<svg version="1.1" xmlns="http://www.w3.org/2000/svg" xmlns:xlink="http://www.w3.org/1999/xlink" width="1164" height="844"><defs/><g><text fill="#eeeeee" stroke="none" font-family="Arial" font-size="24px" font-style="normal" font-weight="normal" text-decoration="none" x="0" y="0">UNREGISTERED</text><text fill="#eeeeee" stroke="none" font-family="Arial" font-size="24px" font-style="normal" font-weight="normal" text-decoration="none" x="0" y="30">UNREGISTERED</text><text fill="#eeeeee" stroke="none" font-family="Arial" font-size="24px" font-style="normal" font-weight="normal" text-decoration="none" x="0" y="60">UNREGISTERED</text><text fill="#eeeeee" stroke="none" font-family="Arial" font-size="24px" font-style="normal" font-weight="normal" text-decoration="none" x="0" y="90">UNREGISTERED</text><text fill="#eeeeee" stroke="none" font-family="Arial" font-size="24px" font-style="normal" font-weight="normal" text-decoration="none" x="0" y="120">UNREGISTERED</text><text fill="#eeeeee" stroke="none" font-family="Arial" font-size="24px" font-style="normal" font-weight="normal" text-decoration="none" x="0" y="150">UNREGISTERED</text><text fill="#eeeeee" stroke="none" font-family="Arial" font-size="24px" font-style="normal" font-weight="normal" text-decoration="none" x="0" y="180">UNREGISTERED</text><text fill="#eeeeee" stroke="none" font-family="Arial" font-size="24px" font-style="normal" font-weight="normal" text-decoration="none" x="0" y="210">UNREGISTERED</text><text fill="#eeeeee" stroke="none" font-family="Arial" font-size="24px" font-style="normal" font-weight="normal" text-decoration="none" x="0" y="240">UNREGISTERED</text><text fill="#eeeeee" stroke="none" font-family="Arial" font-size="24px" font-style="normal" font-weight="normal" text-decoration="none" x="0" y="270">UNREGISTERED</text><text fill="#eeeeee" stroke="none" font-family="Arial" font-size="24px" font-style="normal" font-weight="normal" text-decoration="none" x="0" y="300">UNREGISTERED</text><text fill="#eeeeee" stroke="none" font-family="Arial" font-size="24px" font-style="normal" font-weight="normal" text-decoration="none" x="0" y="330">UNREGISTERED</text><text fill="#eeeeee" stroke="none" font-family="Arial" font-size="24px" font-style="normal" font-weight="normal" text-decoration="none" x="0" y="360">UNREGISTERED</text><text fill="#eeeeee" stroke="none" font-family="Arial" font-size="24px" font-style="normal" font-weight="normal" text-decoration="none" x="0" y="390">UNREGISTERED</text><text fill="#eeeeee" stroke="none" font-family="Arial" font-size="24px" font-style="normal" font-weight="normal" text-decoration="none" x="0" y="420">UNREGISTERED</text><text fill="#eeeeee" stroke="none" font-family="Arial" font-size="24px" font-style="normal" font-weight="normal" text-decoration="none" x="0" y="450">UNREGISTERED</text><text fill="#eeeeee" stroke="none" font-family="Arial" font-size="24px" font-style="normal" font-weight="normal" text-decoration="none" x="0" y="480">UNREGISTERED</text><text fill="#eeeeee" stroke="none" font-family="Arial" font-size="24px" font-style="normal" font-weight="normal" text-decoration="none" x="0" y="510">UNREGISTERED</text><text fill="#eeeeee" stroke="none" font-family="Arial" font-size="24px" font-style="normal" font-weight="normal" text-decoration="none" x="0" y="540">UNREGISTERED</text><text fill="#eeeeee" stroke="none" font-family="Arial" font-size="24px" font-style="normal" font-weight="normal" text-decoration="none" x="0" y="570">UNREGISTERED</text><text fill="#eeeeee" stroke="none" font-family="Arial" font-size="24px" font-style="normal" font-weight="normal" text-decoration="none" x="0" y="600">UNREGISTERED</text><text fill="#eeeeee" stroke="none" font-family="Arial" font-size="24px" font-style="normal" font-weight="normal" text-decoration="none" x="0" y="630">UNREGISTERED</text><text fill="#eeeeee" stroke="none" font-family="Arial" font-size="24px" font-style="normal" font-weight="normal" text-decoration="none" x="0" y="660">UNREGISTERED</text><text fill="#eeeeee" stroke="none" font-family="Arial" font-size="24px" font-style="normal" font-weight="normal" text-decoration="none" x="0" y="690">UNREGISTERED</text><text fill="#eeeeee" stroke="none" font-family="Arial" font-size="24px" font-style="normal" font-weight="normal" text-decoration="none" x="0" y="720">UNREGISTERED</text><text fill="#eeeeee" stroke="none" font-family="Arial" font-size="24px" font-style="normal" font-weight="normal" text-decoration="none" x="0" y="750">UNREGISTERED</text><text fill="#eeeeee" stroke="none" font-family="Arial" font-size="24px" font-style="normal" font-weight="normal" text-decoration="none" x="0" y="780">UNREGISTERED</text><text fill="#eeeeee" stroke="none" font-family="Arial" font-size="24px" font-style="normal" font-weight="normal" text-decoration="none" x="0" y="810">UNREGISTERED</text><text fill="#eeeeee" stroke="none" font-family="Arial" font-size="24px" font-style="normal" font-weight="normal" text-decoration="none" x="0" y="840">UNREGISTERED</text><text fill="#eeeeee" stroke="none" font-family="Arial" font-size="24px" font-style="normal" font-weight="normal" text-decoration="none" x="200" y="0">UNREGISTERED</text><text fill="#eeeeee" stroke="none" font-family="Arial" font-size="24px" font-style="normal" font-weight="normal" text-decoration="none" x="200" y="30">UNREGISTERED</text><text fill="#eeeeee" stroke="none" font-family="Arial" font-size="24px" font-style="normal" font-weight="normal" text-decoration="none" x="200" y="60">UNREGISTERED</text><text fill="#eeeeee" stroke="none" font-family="Arial" font-size="24px" font-style="normal" font-weight="normal" text-decoration="none" x="200" y="90">UNREGISTERED</text><text fill="#eeeeee" stroke="none" font-family="Arial" font-size="24px" font-style="normal" font-weight="normal" text-decoration="none" x="200" y="120">UNREGISTERED</text><text fill="#eeeeee" stroke="none" font-family="Arial" font-size="24px" font-style="normal" font-weight="normal" text-decoration="none" x="200" y="150">UNREGISTERED</text><text fill="#eeeeee" stroke="none" font-family="Arial" font-size="24px" font-style="normal" font-weight="normal" text-decoration="none" x="200" y="180">UNREGISTERED</text><text fill="#eeeeee" stroke="none" font-family="Arial" font-size="24px" font-style="normal" font-weight="normal" text-decoration="none" x="200" y="210">UNREGISTERED</text><text fill="#eeeeee" stroke="none" font-family="Arial" font-size="24px" font-style="normal" font-weight="normal" text-decoration="none" x="200" y="240">UNREGISTERED</text><text fill="#eeeeee" stroke="none" font-family="Arial" font-size="24px" font-style="normal" font-weight="normal" text-decoration="none" x="200" y="270">UNREGISTERED</text><text fill="#eeeeee" stroke="none" font-family="Arial" font-size="24px" font-style="normal" font-weight="normal" text-decoration="none" x="200" y="300">UNREGISTERED</text><text fill="#eeeeee" stroke="none" font-family="Arial" font-size="24px" font-style="normal" font-weight="normal" text-decoration="none" x="200" y="330">UNREGISTERED</text><text fill="#eeeeee" stroke="none" font-family="Arial" font-size="24px" font-style="normal" font-weight="normal" text-decoration="none" x="200" y="360">UNREGISTERED</text><text fill="#eeeeee" stroke="none" font-family="Arial" font-size="24px" font-style="normal" font-weight="normal" text-decoration="none" x="200" y="390">UNREGISTERED</text><text fill="#eeeeee" stroke="none" font-family="Arial" font-size="24px" font-style="normal" font-weight="normal" text-decoration="none" x="200" y="420">UNREGISTERED</text><text fill="#eeeeee" stroke="none" font-family="Arial" font-size="24px" font-style="normal" font-weight="normal" text-decoration="none" x="200" y="450">UNREGISTERED</text><text fill="#eeeeee" stroke="none" font-family="Arial" font-size="24px" font-style="normal" font-weight="normal" text-decoration="none" x="200" y="480">UNREGISTERED</text><text fill="#eeeeee" stroke="none" font-family="Arial" font-size="24px" font-style="normal" font-weight="normal" text-decoration="none" x="200" y="510">UNREGISTERED</text><text fill="#eeeeee" stroke="none" font-family="Arial" font-size="24px" font-style="normal" font-weight="normal" text-decoration="none" x="200" y="540">UNREGISTERED</text><text fill="#eeeeee" stroke="none" font-family="Arial" font-size="24px" font-style="normal" font-weight="normal" text-decoration="none" x="200" y="570">UNREGISTERED</text><text fill="#eeeeee" stroke="none" font-family="Arial" font-size="24px" font-style="normal" font-weight="normal" text-decoration="none" x="200" y="600">UNREGISTERED</text><text fill="#eeeeee" stroke="none" font-family="Arial" font-size="24px" font-style="normal" font-weight="normal" text-decoration="none" x="200" y="630">UNREGISTERED</text><text fill="#eeeeee" stroke="none" font-family="Arial" font-size="24px" font-style="normal" font-weight="normal" text-decoration="none" x="200" y="660">UNREGISTERED</text><text fill="#eeeeee" stroke="none" font-family="Arial" font-size="24px" font-style="normal" font-weight="normal" text-decoration="none" x="200" y="690">UNREGISTERED</text><text fill="#eeeeee" stroke="none" font-family="Arial" font-size="24px" font-style="normal" font-weight="normal" text-decoration="none" x="200" y="720">UNREGISTERED</text><text fill="#eeeeee" stroke="none" font-family="Arial" font-size="24px" font-style="normal" font-weight="normal" text-decoration="none" x="200" y="750">UNREGISTERED</text><text fill="#eeeeee" stroke="none" font-family="Arial" font-size="24px" font-style="normal" font-weight="normal" text-decoration="none" x="200" y="780">UNREGISTERED</text><text fill="#eeeeee" stroke="none" font-family="Arial" font-size="24px" font-style="normal" font-weight="normal" text-decoration="none" x="200" y="810">UNREGISTERED</text><text fill="#eeeeee" stroke="none" font-family="Arial" font-size="24px" font-style="normal" font-weight="normal" text-decoration="none" x="200" y="840">UNREGISTERED</text><text fill="#eeeeee" stroke="none" font-family="Arial" font-size="24px" font-style="normal" font-weight="normal" text-decoration="none" x="400" y="0">UNREGISTERED</text><text fill="#eeeeee" stroke="none" font-family="Arial" font-size="24px" font-style="normal" font-weight="normal" text-decoration="none" x="400" y="30">UNREGISTERED</text><text fill="#eeeeee" stroke="none" font-family="Arial" font-size="24px" font-style="normal" font-weight="normal" text-decoration="none" x="400" y="60">UNREGISTERED</text><text fill="#eeeeee" stroke="none" font-family="Arial" font-size="24px" font-style="normal" font-weight="normal" text-decoration="none" x="400" y="90">UNREGISTERED</text><text fill="#eeeeee" stroke="none" font-family="Arial" font-size="24px" font-style="normal" font-weight="normal" text-decoration="none" x="400" y="120">UNREGISTERED</text><text fill="#eeeeee" stroke="none" font-family="Arial" font-size="24px" font-style="normal" font-weight="normal" text-decoration="none" x="400" y="150">UNREGISTERED</text><text fill="#eeeeee" stroke="none" font-family="Arial" font-size="24px" font-style="normal" font-weight="normal" text-decoration="none" x="400" y="180">UNREGISTERED</text><text fill="#eeeeee" stroke="none" font-family="Arial" font-size="24px" font-style="normal" font-weight="normal" text-decoration="none" x="400" y="210">UNREGISTERED</text><text fill="#eeeeee" stroke="none" font-family="Arial" font-size="24px" font-style="normal" font-weight="normal" text-decoration="none" x="400" y="240">UNREGISTERED</text><text fill="#eeeeee" stroke="none" font-family="Arial" font-size="24px" font-style="normal" font-weight="normal" text-decoration="none" x="400" y="270">UNREGISTERED</text><text fill="#eeeeee" stroke="none" font-family="Arial" font-size="24px" font-style="normal" font-weight="normal" text-decoration="none" x="400" y="300">UNREGISTERED</text><text fill="#eeeeee" stroke="none" font-family="Arial" font-size="24px" font-style="normal" font-weight="normal" text-decoration="none" x="400" y="330">UNREGISTERED</text><text fill="#eeeeee" stroke="none" font-family="Arial" font-size="24px" font-style="normal" font-weight="normal" text-decoration="none" x="400" y="360">UNREGISTERED</text><text fill="#eeeeee" stroke="none" font-family="Arial" font-size="24px" font-style="normal" font-weight="normal" text-decoration="none" x="400" y="390">UNREGISTERED</text><text fill="#eeeeee" stroke="none" font-family="Arial" font-size="24px" font-style="normal" font-weight="normal" text-decoration="none" x="400" y="420">UNREGISTERED</text><text fill="#eeeeee" stroke="none" font-family="Arial" font-size="24px" font-style="normal" font-weight="normal" text-decoration="none" x="400" y="450">UNREGISTERED</text><text fill="#eeeeee" stroke="none" font-family="Arial" font-size="24px" font-style="normal" font-weight="normal" text-decoration="none" x="400" y="480">UNREGISTERED</text><text fill="#eeeeee" stroke="none" font-family="Arial" font-size="24px" font-style="normal" font-weight="normal" text-decoration="none" x="400" y="510">UNREGISTERED</text><text fill="#eeeeee" stroke="none" font-family="Arial" font-size="24px" font-style="normal" font-weight="normal" text-decoration="none" x="400" y="540">UNREGISTERED</text><text fill="#eeeeee" stroke="none" font-family="Arial" font-size="24px" font-style="normal" font-weight="normal" text-decoration="none" x="400" y="570">UNREGISTERED</text><text fill="#eeeeee" stroke="none" font-family="Arial" font-size="24px" font-style="normal" font-weight="normal" text-decoration="none" x="400" y="600">UNREGISTERED</text><text fill="#eeeeee" stroke="none" font-family="Arial" font-size="24px" font-style="normal" font-weight="normal" text-decoration="none" x="400" y="630">UNREGISTERED</text><text fill="#eeeeee" stroke="none" font-family="Arial" font-size="24px" font-style="normal" font-weight="normal" text-decoration="none" x="400" y="660">UNREGISTERED</text><text fill="#eeeeee" stroke="none" font-family="Arial" font-size="24px" font-style="normal" font-weight="normal" text-decoration="none" x="400" y="690">UNREGISTERED</text><text fill="#eeeeee" stroke="none" font-family="Arial" font-size="24px" font-style="normal" font-weight="normal" text-decoration="none" x="400" y="720">UNREGISTERED</text><text fill="#eeeeee" stroke="none" font-family="Arial" font-size="24px" font-style="normal" font-weight="normal" text-decoration="none" x="400" y="750">UNREGISTERED</text><text fill="#eeeeee" stroke="none" font-family="Arial" font-size="24px" font-style="normal" font-weight="normal" text-decoration="none" x="400" y="780">UNREGISTERED</text><text fill="#eeeeee" stroke="none" font-family="Arial" font-size="24px" font-style="normal" font-weight="normal" text-decoration="none" x="400" y="810">UNREGISTERED</text><text fill="#eeeeee" stroke="none" font-family="Arial" font-size="24px" font-style="normal" font-weight="normal" text-decoration="none" x="400" y="840">UNREGISTERED</text><text fill="#eeeeee" stroke="none" font-family="Arial" font-size="24px" font-style="normal" font-weight="normal" text-decoration="none" x="600" y="0">UNREGISTERED</text><text fill="#eeeeee" stroke="none" font-family="Arial" font-size="24px" font-style="normal" font-weight="normal" text-decoration="none" x="600" y="30">UNREGISTERED</text><text fill="#eeeeee" stroke="none" font-family="Arial" font-size="24px" font-style="normal" font-weight="normal" text-decoration="none" x="600" y="60">UNREGISTERED</text><text fill="#eeeeee" stroke="none" font-family="Arial" font-size="24px" font-style="normal" font-weight="normal" text-decoration="none" x="600" y="90">UNREGISTERED</text><text fill="#eeeeee" stroke="none" font-family="Arial" font-size="24px" font-style="normal" font-weight="normal" text-decoration="none" x="600" y="120">UNREGISTERED</text><text fill="#eeeeee" stroke="none" font-family="Arial" font-size="24px" font-style="normal" font-weight="normal" text-decoration="none" x="600" y="150">UNREGISTERED</text><text fill="#eeeeee" stroke="none" font-family="Arial" font-size="24px" font-style="normal" font-weight="normal" text-decoration="none" x="600" y="180">UNREGISTERED</text><text fill="#eeeeee" stroke="none" font-family="Arial" font-size="24px" font-style="normal" font-weight="normal" text-decoration="none" x="600" y="210">UNREGISTERED</text><text fill="#eeeeee" stroke="none" font-family="Arial" font-size="24px" font-style="normal" font-weight="normal" text-decoration="none" x="600" y="240">UNREGISTERED</text><text fill="#eeeeee" stroke="none" font-family="Arial" font-size="24px" font-style="normal" font-weight="normal" text-decoration="none" x="600" y="270">UNREGISTERED</text><text fill="#eeeeee" stroke="none" font-family="Arial" font-size="24px" font-style="normal" font-weight="normal" text-decoration="none" x="600" y="300">UNREGISTERED</text><text fill="#eeeeee" stroke="none" font-family="Arial" font-size="24px" font-style="normal" font-weight="normal" text-decoration="none" x="600" y="330">UNREGISTERED</text><text fill="#eeeeee" stroke="none" font-family="Arial" font-size="24px" font-style="normal" font-weight="normal" text-decoration="none" x="600" y="360">UNREGISTERED</text><text fill="#eeeeee" stroke="none" font-family="Arial" font-size="24px" font-style="normal" font-weight="normal" text-decoration="none" x="600" y="390">UNREGISTERED</text><text fill="#eeeeee" stroke="none" font-family="Arial" font-size="24px" font-style="normal" font-weight="normal" text-decoration="none" x="600" y="420">UNREGISTERED</text><text fill="#eeeeee" stroke="none" font-family="Arial" font-size="24px" font-style="normal" font-weight="normal" text-decoration="none" x="600" y="450">UNREGISTERED</text><text fill="#eeeeee" stroke="none" font-family="Arial" font-size="24px" font-style="normal" font-weight="normal" text-decoration="none" x="600" y="480">UNREGISTERED</text><text fill="#eeeeee" stroke="none" font-family="Arial" font-size="24px" font-style="normal" font-weight="normal" text-decoration="none" x="600" y="510">UNREGISTERED</text><text fill="#eeeeee" stroke="none" font-family="Arial" font-size="24px" font-style="normal" font-weight="normal" text-decoration="none" x="600" y="540">UNREGISTERED</text><text fill="#eeeeee" stroke="none" font-family="Arial" font-size="24px" font-style="normal" font-weight="normal" text-decoration="none" x="600" y="570">UNREGISTERED</text><text fill="#eeeeee" stroke="none" font-family="Arial" font-size="24px" font-style="normal" font-weight="normal" text-decoration="none" x="600" y="600">UNREGISTERED</text><text fill="#eeeeee" stroke="none" font-family="Arial" font-size="24px" font-style="normal" font-weight="normal" text-decoration="none" x="600" y="630">UNREGISTERED</text><text fill="#eeeeee" stroke="none" font-family="Arial" font-size="24px" font-style="normal" font-weight="normal" text-decoration="none" x="600" y="660">UNREGISTERED</text><text fill="#eeeeee" stroke="none" font-family="Arial" font-size="24px" font-style="normal" font-weight="normal" text-decoration="none" x="600" y="690">UNREGISTERED</text><text fill="#eeeeee" stroke="none" font-family="Arial" font-size="24px" font-style="normal" font-weight="normal" text-decoration="none" x="600" y="720">UNREGISTERED</text><text fill="#eeeeee" stroke="none" font-family="Arial" font-size="24px" font-style="normal" font-weight="normal" text-decoration="none" x="600" y="750">UNREGISTERED</text><text fill="#eeeeee" stroke="none" font-family="Arial" font-size="24px" font-style="normal" font-weight="normal" text-decoration="none" x="600" y="780">UNREGISTERED</text><text fill="#eeeeee" stroke="none" font-family="Arial" font-size="24px" font-style="normal" font-weight="normal" text-decoration="none" x="600" y="810">UNREGISTERED</text><text fill="#eeeeee" stroke="none" font-family="Arial" font-size="24px" font-style="normal" font-weight="normal" text-decoration="none" x="600" y="840">UNREGISTERED</text><text fill="#eeeeee" stroke="none" font-family="Arial" font-size="24px" font-style="normal" font-weight="normal" text-decoration="none" x="800" y="0">UNREGISTERED</text><text fill="#eeeeee" stroke="none" font-family="Arial" font-size="24px" font-style="normal" font-weight="normal" text-decoration="none" x="800" y="30">UNREGISTERED</text><text fill="#eeeeee" stroke="none" font-family="Arial" font-size="24px" font-style="normal" font-weight="normal" text-decoration="none" x="800" y="60">UNREGISTERED</text><text fill="#eeeeee" stroke="none" font-family="Arial" font-size="24px" font-style="normal" font-weight="normal" text-decoration="none" x="800" y="90">UNREGISTERED</text><text fill="#eeeeee" stroke="none" font-family="Arial" font-size="24px" font-style="normal" font-weight="normal" text-decoration="none" x="800" y="120">UNREGISTERED</text><text fill="#eeeeee" stroke="none" font-family="Arial" font-size="24px" font-style="normal" font-weight="normal" text-decoration="none" x="800" y="150">UNREGISTERED</text><text fill="#eeeeee" stroke="none" font-family="Arial" font-size="24px" font-style="normal" font-weight="normal" text-decoration="none" x="800" y="180">UNREGISTERED</text><text fill="#eeeeee" stroke="none" font-family="Arial" font-size="24px" font-style="normal" font-weight="normal" text-decoration="none" x="800" y="210">UNREGISTERED</text><text fill="#eeeeee" stroke="none" font-family="Arial" font-size="24px" font-style="normal" font-weight="normal" text-decoration="none" x="800" y="240">UNREGISTERED</text><text fill="#eeeeee" stroke="none" font-family="Arial" font-size="24px" font-style="normal" font-weight="normal" text-decoration="none" x="800" y="270">UNREGISTERED</text><text fill="#eeeeee" stroke="none" font-family="Arial" font-size="24px" font-style="normal" font-weight="normal" text-decoration="none" x="800" y="300">UNREGISTERED</text><text fill="#eeeeee" stroke="none" font-family="Arial" font-size="24px" font-style="normal" font-weight="normal" text-decoration="none" x="800" y="330">UNREGISTERED</text><text fill="#eeeeee" stroke="none" font-family="Arial" font-size="24px" font-style="normal" font-weight="normal" text-decoration="none" x="800" y="360">UNREGISTERED</text><text fill="#eeeeee" stroke="none" font-family="Arial" font-size="24px" font-style="normal" font-weight="normal" text-decoration="none" x="800" y="390">UNREGISTERED</text><text fill="#eeeeee" stroke="none" font-family="Arial" font-size="24px" font-style="normal" font-weight="normal" text-decoration="none" x="800" y="420">UNREGISTERED</text><text fill="#eeeeee" stroke="none" font-family="Arial" font-size="24px" font-style="normal" font-weight="normal" text-decoration="none" x="800" y="450">UNREGISTERED</text><text fill="#eeeeee" stroke="none" font-family="Arial" font-size="24px" font-style="normal" font-weight="normal" text-decoration="none" x="800" y="480">UNREGISTERED</text><text fill="#eeeeee" stroke="none" font-family="Arial" font-size="24px" font-style="normal" font-weight="normal" text-decoration="none" x="800" y="510">UNREGISTERED</text><text fill="#eeeeee" stroke="none" font-family="Arial" font-size="24px" font-style="normal" font-weight="normal" text-decoration="none" x="800" y="540">UNREGISTERED</text><text fill="#eeeeee" stroke="none" font-family="Arial" font-size="24px" font-style="normal" font-weight="normal" text-decoration="none" x="800" y="570">UNREGISTERED</text><text fill="#eeeeee" stroke="none" font-family="Arial" font-size="24px" font-style="normal" font-weight="normal" text-decoration="none" x="800" y="600">UNREGISTERED</text><text fill="#eeeeee" stroke="none" font-family="Arial" font-size="24px" font-style="normal" font-weight="normal" text-decoration="none" x="800" y="630">UNREGISTERED</text><text fill="#eeeeee" stroke="none" font-family="Arial" font-size="24px" font-style="normal" font-weight="normal" text-decoration="none" x="800" y="660">UNREGISTERED</text><text fill="#eeeeee" stroke="none" font-family="Arial" font-size="24px" font-style="normal" font-weight="normal" text-decoration="none" x="800" y="690">UNREGISTERED</text><text fill="#eeeeee" stroke="none" font-family="Arial" font-size="24px" font-style="normal" font-weight="normal" text-decoration="none" x="800" y="720">UNREGISTERED</text><text fill="#eeeeee" stroke="none" font-family="Arial" font-size="24px" font-style="normal" font-weight="normal" text-decoration="none" x="800" y="750">UNREGISTERED</text><text fill="#eeeeee" stroke="none" font-family="Arial" font-size="24px" font-style="normal" font-weight="normal" text-decoration="none" x="800" y="780">UNREGISTERED</text><text fill="#eeeeee" stroke="none" font-family="Arial" font-size="24px" font-style="normal" font-weight="normal" text-decoration="none" x="800" y="810">UNREGISTERED</text><text fill="#eeeeee" stroke="none" font-family="Arial" font-size="24px" font-style="normal" font-weight="normal" text-decoration="none" x="800" y="840">UNREGISTERED</text><text fill="#eeeeee" stroke="none" font-family="Arial" font-size="24px" font-style="normal" font-weight="normal" text-decoration="none" x="1000" y="0">UNREGISTERED</text><text fill="#eeeeee" stroke="none" font-family="Arial" font-size="24px" font-style="normal" font-weight="normal" text-decoration="none" x="1000" y="30">UNREGISTERED</text><text fill="#eeeeee" stroke="none" font-family="Arial" font-size="24px" font-style="normal" font-weight="normal" text-decoration="none" x="1000" y="60">UNREGISTERED</text><text fill="#eeeeee" stroke="none" font-family="Arial" font-size="24px" font-style="normal" font-weight="normal" text-decoration="none" x="1000" y="90">UNREGISTERED</text><text fill="#eeeeee" stroke="none" font-family="Arial" font-size="24px" font-style="normal" font-weight="normal" text-decoration="none" x="1000" y="120">UNREGISTERED</text><text fill="#eeeeee" stroke="none" font-family="Arial" font-size="24px" font-style="normal" font-weight="normal" text-decoration="none" x="1000" y="150">UNREGISTERED</text><text fill="#eeeeee" stroke="none" font-family="Arial" font-size="24px" font-style="normal" font-weight="normal" text-decoration="none" x="1000" y="180">UNREGISTERED</text><text fill="#eeeeee" stroke="none" font-family="Arial" font-size="24px" font-style="normal" font-weight="normal" text-decoration="none" x="1000" y="210">UNREGISTERED</text><text fill="#eeeeee" stroke="none" font-family="Arial" font-size="24px" font-style="normal" font-weight="normal" text-decoration="none" x="1000" y="240">UNREGISTERED</text><text fill="#eeeeee" stroke="none" font-family="Arial" font-size="24px" font-style="normal" font-weight="normal" text-decoration="none" x="1000" y="270">UNREGISTERED</text><text fill="#eeeeee" stroke="none" font-family="Arial" font-size="24px" font-style="normal" font-weight="normal" text-decoration="none" x="1000" y="300">UNREGISTERED</text><text fill="#eeeeee" stroke="none" font-family="Arial" font-size="24px" font-style="normal" font-weight="normal" text-decoration="none" x="1000" y="330">UNREGISTERED</text><text fill="#eeeeee" stroke="none" font-family="Arial" font-size="24px" font-style="normal" font-weight="normal" text-decoration="none" x="1000" y="360">UNREGISTERED</text><text fill="#eeeeee" stroke="none" font-family="Arial" font-size="24px" font-style="normal" font-weight="normal" text-decoration="none" x="1000" y="390">UNREGISTERED</text><text fill="#eeeeee" stroke="none" font-family="Arial" font-size="24px" font-style="normal" font-weight="normal" text-decoration="none" x="1000" y="420">UNREGISTERED</text><text fill="#eeeeee" stroke="none" font-family="Arial" font-size="24px" font-style="normal" font-weight="normal" text-decoration="none" x="1000" y="450">UNREGISTERED</text><text fill="#eeeeee" stroke="none" font-family="Arial" font-size="24px" font-style="normal" font-weight="normal" text-decoration="none" x="1000" y="480">UNREGISTERED</text><text fill="#eeeeee" stroke="none" font-family="Arial" font-size="24px" font-style="normal" font-weight="normal" text-decoration="none" x="1000" y="510">UNREGISTERED</text><text fill="#eeeeee" stroke="none" font-family="Arial" font-size="24px" font-style="normal" font-weight="normal" text-decoration="none" x="1000" y="540">UNREGISTERED</text><text fill="#eeeeee" stroke="none" font-family="Arial" font-size="24px" font-style="normal" font-weight="normal" text-decoration="none" x="1000" y="570">UNREGISTERED</text><text fill="#eeeeee" stroke="none" font-family="Arial" font-size="24px" font-style="normal" font-weight="normal" text-decoration="none" x="1000" y="600">UNREGISTERED</text><text fill="#eeeeee" stroke="none" font-family="Arial" font-size="24px" font-style="normal" font-weight="normal" text-decoration="none" x="1000" y="630">UNREGISTERED</text><text fill="#eeeeee" stroke="none" font-family="Arial" font-size="24px" font-style="normal" font-weight="normal" text-decoration="none" x="1000" y="660">UNREGISTERED</text><text fill="#eeeeee" stroke="none" font-family="Arial" font-size="24px" font-style="normal" font-weight="normal" text-decoration="none" x="1000" y="690">UNREGISTERED</text><text fill="#eeeeee" stroke="none" font-family="Arial" font-size="24px" font-style="normal" font-weight="normal" text-decoration="none" x="1000" y="720">UNREGISTERED</text><text fill="#eeeeee" stroke="none" font-family="Arial" font-size="24px" font-style="normal" font-weight="normal" text-decoration="none" x="1000" y="750">UNREGISTERED</text><text fill="#eeeeee" stroke="none" font-family="Arial" font-size="24px" font-style="normal" font-weight="normal" text-decoration="none" x="1000" y="780">UNREGISTERED</text><text fill="#eeeeee" stroke="none" font-family="Arial" font-size="24px" font-style="normal" font-weight="normal" text-decoration="none" x="1000" y="810">UNREGISTERED</text><text fill="#eeeeee" stroke="none" font-family="Arial" font-size="24px" font-style="normal" font-weight="normal" text-decoration="none" x="1000" y="840">UNREGISTERED</text><g transform="translate(-310,-110) scale(1,1)"><path fill="#C0C0C0" stroke="none" d="M 583 160.5 C 583 155.2532944 587.2532944 151 592.5 151 C 597.7467056 151 602 155.2532944 602 160.5 C 602 165.7467056 597.7467056 170 592.5 170 C 587.2532944 170 583 165.7467056 583 160.5 Z" opacity="0.2"/></g><g transform="translate(-310,-110) scale(1,1)"><path fill="#000000" stroke="none" d="M 576 153.5 C 576 148.2532944 580.2532944 144 585.5 144 C 590.7467056 144 595 148.2532944 595 153.5 C 595 158.7467056 590.7467056 163 585.5 163 C 580.2532944 163 576 158.7467056 576 153.5 Z"/></g><g transform="translate(-310,-110) scale(1,1)"><path fill="#C0C0C0" stroke="none" d="M 537 223 L 643.75537109375 223 Q 653.75537109375 223 653.75537109375 233 L 653.75537109375 253 Q 653.75537109375 263 643.75537109375 263 L 537 263 Q 527 263 527 253 L 527 233 Q 527 223 537 223 Z" opacity="0.2"/></g><g transform="translate(-310,-110) scale(1,1)"><path fill="#ffffff" stroke="none" d="M 530 216 L 636.75537109375 216 Q 646.75537109375 216 646.75537109375 226 L 646.75537109375 246 Q 646.75537109375 256 636.75537109375 256 L 530 256 Q 520 256 520 246 L 520 226 Q 520 216 530 216 Z"/></g><g transform="translate(-310,-110) scale(1,1)"><path fill="none" stroke="#000000" d="M 530 216 L 636.75537109375 216 Q 646.75537109375 216 646.75537109375 226 L 646.75537109375 246 Q 646.75537109375 256 636.75537109375 256 L 530 256 Q 520 256 520 246 L 520 226 Q 520 216 530 216 Z" stroke-miterlimit="10"/></g><g transform="translate(-310,-110) scale(1,1)"><g><path fill="none" stroke="none"/><text fill="#000000" stroke="none" font-family="Arial" font-size="13px" font-style="normal" font-weight="bold" text-decoration="none" x="524.5" y="234">Display Dashboard</text></g></g><g transform="translate(-310,-110) scale(1,1)"><path fill="#C0C0C0" stroke="none" d="M 545 319 L 615.61181640625 319 Q 625.61181640625 319 625.61181640625 329 L 625.61181640625 349 Q 625.61181640625 359 615.61181640625 359 L 545 359 Q 535 359 535 349 L 535 329 Q 535 319 545 319 Z" opacity="0.2"/></g><g transform="translate(-310,-110) scale(1,1)"><path fill="#ffffff" stroke="none" d="M 538 312 L 608.61181640625 312 Q 618.61181640625 312 618.61181640625 322 L 618.61181640625 342 Q 618.61181640625 352 608.61181640625 352 L 538 352 Q 528 352 528 342 L 528 322 Q 528 312 538 312 Z"/></g><g transform="translate(-310,-110) scale(1,1)"><path fill="none" stroke="#000000" d="M 538 312 L 608.61181640625 312 Q 618.61181640625 312 618.61181640625 322 L 618.61181640625 342 Q 618.61181640625 352 608.61181640625 352 L 538 352 Q 528 352 528 342 L 528 322 Q 528 312 538 312 Z" stroke-miterlimit="10"/></g><g transform="translate(-310,-110) scale(1,1)"><g><path fill="none" stroke="none"/><text fill="#000000" stroke="none" font-family="Arial" font-size="13px" font-style="normal" font-weight="bold" text-decoration="none" x="532.5" y="330">Borrow Book</text></g></g><g transform="translate(-310,-110) scale(1,1)"><path fill="#C0C0C0" stroke="none" d="M 545 423 L 622.81640625 423 Q 632.81640625 423 632.81640625 433 L 632.81640625 453 Q 632.81640625 463 622.81640625 463 L 545 463 Q 535 463 535 453 L 535 433 Q 535 423 545 423 Z" opacity="0.2"/></g><g transform="translate(-310,-110) scale(1,1)"><path fill="#ffffff" stroke="none" d="M 538 416 L 615.81640625 416 Q 625.81640625 416 625.81640625 426 L 625.81640625 446 Q 625.81640625 456 615.81640625 456 L 538 456 Q 528 456 528 446 L 528 426 Q 528 416 538 416 Z"/></g><g transform="translate(-310,-110) scale(1,1)"><path fill="none" stroke="#000000" d="M 538 416 L 615.81640625 416 Q 625.81640625 416 625.81640625 426 L 625.81640625 446 Q 625.81640625 456 615.81640625 456 L 538 456 Q 528 456 528 446 L 528 426 Q 528 416 538 416 Z" stroke-miterlimit="10"/></g><g transform="translate(-310,-110) scale(1,1)"><g><path fill="none" stroke="none"/><text fill="#000000" stroke="none" font-family="Arial" font-size="13px" font-style="normal" font-weight="bold" text-decoration="none" x="537.171875" y="434">Search Book</text></g></g><g transform="translate(-310,-110) scale(1,1)"><path fill="none" stroke="#000000" d="M 574 353 L 575 415" stroke-miterlimit="10"/></g><g transform="translate(-310,-110) scale(1,1)"><path fill="none" stroke="#000000" d="M 570.6271368871173 404.90653339055456 L 575 415 L 579.045077524899 404.7707601544613" stroke-miterlimit="10"/></g><g transform="translate(-310,-110) scale(1,1)"><path fill="#C0C0C0" stroke="none" d="M 551 531.5 L 571.5 511 L 591 531.5 L 571.5 551 L 551 531.5" opacity="0.2"/></g><g transform="translate(-310,-110) scale(1,1)"><path fill="#ffffff" stroke="none" d="M 544 524 L 564 504 L 584 524 L 564 544 L 544 524"/></g><g transform="translate(-310,-110) scale(1,1)"><path fill="none" stroke="#000000" d="M 544 524 L 564 504 L 584 524 L 564 544 L 544 524 L 544 524" stroke-miterlimit="10"/></g><g transform="translate(-310,-110) scale(1,1)"><path fill="none" stroke="#000000" d="M 573 457 L 567 503" stroke-miterlimit="10"/></g><g transform="translate(-310,-110) scale(1,1)"><path fill="none" stroke="#000000" d="M 564.14027253627 492.3782318405461 L 567 503 L 572.4885916117922 493.4671430243099" stroke-miterlimit="10"/></g><g transform="translate(-310,-110) scale(1,1)"><path fill="#C0C0C0" stroke="none" d="M 873 631 L 1027.45166015625 631 Q 1037.45166015625 631 1037.45166015625 641 L 1037.45166015625 661 Q 1037.45166015625 671 1027.45166015625 671 L 873 671 Q 863 671 863 661 L 863 641 Q 863 631 873 631 Z" opacity="0.2"/></g><g transform="translate(-310,-110) scale(1,1)"><path fill="#ffffff" stroke="none" d="M 866 624 L 1020.45166015625 624 Q 1030.45166015625 624 1030.45166015625 634 L 1030.45166015625 654 Q 1030.45166015625 664 1020.45166015625 664 L 866 664 Q 856 664 856 654 L 856 634 Q 856 624 866 624 Z"/></g><g transform="translate(-310,-110) scale(1,1)"><path fill="none" stroke="#000000" d="M 866 624 L 1020.45166015625 624 Q 1030.45166015625 624 1030.45166015625 634 L 1030.45166015625 654 Q 1030.45166015625 664 1020.45166015625 664 L 866 664 Q 856 664 856 654 L 856 634 Q 856 624 866 624 Z" stroke-miterlimit="10"/></g><g transform="translate(-310,-110) scale(1,1)"><g><path fill="none" stroke="none"/><text fill="#000000" stroke="none" font-family="Arial" font-size="13px" font-style="normal" font-weight="bold" text-decoration="none" x="880.745849609375" y="642">Choose Return Date</text></g></g><g transform="translate(-310,-110) scale(1,1)"><path fill="none" stroke="#000000" d="M 585 523 L 639 520" stroke-miterlimit="10"/></g><g transform="translate(-310,-110) scale(1,1)"><path fill="none" stroke="#000000" d="M 629.0864741046723 524.766760359266 L 639 520 L 628.6194700396172 516.3606871882736" stroke-miterlimit="10"/></g><g transform="translate(-310,-110) scale(1,1)"><g><path fill="none" stroke="none"/><text fill="#000000" stroke="none" font-family="Arial" font-size="13px" font-style="normal" font-weight="normal" text-decoration="none" x="583.299560546875" y="551">[Found]</text></g></g><g transform="translate(-310,-110) scale(1,1)"><path fill="none" stroke="#000000" d="M 585 164 L 584 215" stroke-miterlimit="10"/></g><g transform="translate(-310,-110) scale(1,1)"><path fill="none" stroke="#000000" d="M 579.9905210615756 204.7567544868664 L 584 215 L 588.407938617311 204.92180188992006" stroke-miterlimit="10"/></g><g transform="translate(-310,-110) scale(1,1)"><path fill="#C0C0C0" stroke="none" d="M 711 655 L 735.5 631 L 759 655 L 735.5 678 L 711 655" opacity="0.2"/></g><g transform="translate(-310,-110) scale(1,1)"><path fill="#ffffff" stroke="none" d="M 704 647.5 L 728 624 L 752 647.5 L 728 671 L 704 647.5"/></g><g transform="translate(-310,-110) scale(1,1)"><path fill="none" stroke="#000000" d="M 704 647.5 L 728 624 L 752 647.5 L 728 671 L 704 647.5 L 704 647.5" stroke-miterlimit="10"/></g><g transform="translate(-310,-110) scale(1,1)"><path fill="none" stroke="#000000" d="M 581 257 L 575 311" stroke-miterlimit="10"/></g><g transform="translate(-310,-110) scale(1,1)"><path fill="none" stroke="#000000" d="M 571.9385084650058 300.4346192883948 L 575 311 L 580.3060509220539 301.36434622806684" stroke-miterlimit="10"/></g><g transform="translate(-310,-110) scale(1,1)"><path fill="#C0C0C0" stroke="none" d="M 1153 631 L 1315.392578125 631 Q 1325.392578125 631 1325.392578125 641 L 1325.392578125 661 Q 1325.392578125 671 1315.392578125 671 L 1153 671 Q 1143 671 1143 661 L 1143 641 Q 1143 631 1153 631 Z" opacity="0.2"/></g><g transform="translate(-310,-110) scale(1,1)"><path fill="#ffffff" stroke="none" d="M 1146 624 L 1308.392578125 624 Q 1318.392578125 624 1318.392578125 634 L 1318.392578125 654 Q 1318.392578125 664 1308.392578125 664 L 1146 664 Q 1136 664 1136 654 L 1136 634 Q 1136 624 1146 624 Z"/></g><g transform="translate(-310,-110) scale(1,1)"><path fill="none" stroke="#000000" d="M 1146 624 L 1308.392578125 624 Q 1318.392578125 624 1318.392578125 634 L 1318.392578125 654 Q 1318.392578125 664 1308.392578125 664 L 1146 664 Q 1136 664 1136 654 L 1136 634 Q 1136 624 1146 624 Z" stroke-miterlimit="10"/></g><g transform="translate(-310,-110) scale(1,1)"><g><path fill="none" stroke="none"/><text fill="#000000" stroke="none" font-family="Arial" font-size="13px" font-style="normal" font-weight="bold" text-decoration="none" x="1140.5" y="642">Decrease Number of Copies</text></g></g><g transform="translate(-310,-110) scale(1,1)"><path fill="none" stroke="#000000" d="M 824 908 L 448 908 M 448 908 A 8 8 0 0 1 440 900 L 440 264 M 440 264 A 8 8 0 0 1 448 256 L 520 256" stroke-miterlimit="10"/></g><g transform="translate(-310,-110) scale(1,1)"><path fill="none" stroke="#000000" d="M 509.83732514237585 260.209517756016 L 520 256 L 509.83732514237585 251.790482243984" stroke-miterlimit="10"/></g><g transform="translate(-310,-110) scale(1,1)"><g><path fill="none" stroke="none"/><text fill="#000000" stroke="none" font-family="Arial" font-size="13px" font-style="normal" font-weight="normal" text-decoration="none" x="623.5" y="898">[Display Dashboard]</text></g></g><g transform="translate(-310,-110) scale(1,1)"><path fill="none" stroke="#000000" d="M 560 544 L 560 864 M 560 864 A 8 8 0 0 0 568 872 L 840 872 M 840 872 A 8 8 0 0 1 848 880 L 848 888" stroke-miterlimit="10"/></g><g transform="translate(-310,-110) scale(1,1)"><path fill="none" stroke="#000000" d="M 843.790482243984 877.8373251423759 L 848 888 L 852.209517756016 877.8373251423759" stroke-miterlimit="10"/></g><g transform="translate(-310,-110) scale(1,1)"><g><path fill="none" stroke="none"/><text fill="#000000" stroke="none" font-family="Arial" font-size="13px" font-style="normal" font-weight="normal" text-decoration="none" x="670.5" y="862">[Not Found]</text></g></g><g transform="translate(-310,-110) scale(1,1)"><path fill="#C0C0C0" stroke="none" d="M 831 915.5 L 859.5 895 L 887 915.5 L 859.5 935 L 831 915.5" opacity="0.2"/></g><g transform="translate(-310,-110) scale(1,1)"><path fill="#ffffff" stroke="none" d="M 824 908 L 852 888 L 880 908 L 852 928 L 824 908"/></g><g transform="translate(-310,-110) scale(1,1)"><path fill="none" stroke="#000000" d="M 824 908 L 852 888 L 880 908 L 852 928 L 824 908 L 824 908" stroke-miterlimit="10"/></g><g transform="translate(-310,-110) scale(1,1)"><path fill="none" stroke="#000000" d="M 1179 664 L 1179 776 M 1179 776 A 8 8 0 0 1 1171 784 L 936 784" stroke-miterlimit="10"/></g><g transform="translate(-310,-110) scale(1,1)"><path fill="none" stroke="#000000" d="M 946.1626748576241 779.790482243984 L 936 784 L 946.1626748576241 788.209517756016" stroke-miterlimit="10"/></g><g transform="translate(-310,-110) scale(1,1)"><path fill="none" stroke="#000000" d="M 753 647 L 855 645" stroke-miterlimit="10"/></g><g transform="translate(-310,-110) scale(1,1)"><path fill="none" stroke="#000000" d="M 844.9218018899201 649.407938617311 L 855 645 L 844.7567544868664 640.9905210615756" stroke-miterlimit="10"/></g><g transform="translate(-310,-110) scale(1,1)"><g><path fill="none" stroke="none"/><text fill="#000000" stroke="none" font-family="Arial" font-size="13px" font-style="normal" font-weight="normal" text-decoration="none" x="760.305908203125" y="636">[Click Confirm]</text></g></g><g transform="translate(-310,-110) scale(1,1)"><path fill="#C0C0C0" stroke="none" d="M 879 783.5 L 911.5 759 L 943 783.5 L 911.5 807 L 879 783.5" opacity="0.2"/></g><g transform="translate(-310,-110) scale(1,1)"><path fill="#ffffff" stroke="none" d="M 872 776 L 904 752 L 936 776 L 904 800 L 872 776"/></g><g transform="translate(-310,-110) scale(1,1)"><path fill="none" stroke="#000000" d="M 872 776 L 904 752 L 936 776 L 904 800 L 872 776 L 872 776" stroke-miterlimit="10"/></g><g transform="translate(-310,-110) scale(1,1)"><path fill="none" stroke="#000000" d="M 736 671 L 736 776 M 736 776 A 8 8 0 0 0 744 784 L 872 784" stroke-miterlimit="10"/></g><g transform="translate(-310,-110) scale(1,1)"><path fill="none" stroke="#000000" d="M 861.8373251423759 788.209517756016 L 872 784 L 861.8373251423758 779.790482243984" stroke-miterlimit="10"/></g><g transform="translate(-310,-110) scale(1,1)"><g><path fill="none" stroke="none"/><text fill="#000000" stroke="none" font-family="Arial" font-size="13px" font-style="normal" font-weight="normal" text-decoration="none" x="710.5" y="774">[Discard]</text></g></g><g transform="translate(-310,-110) scale(1,1)"><path fill="none" stroke="#000000" d="M 919 800 L 919 900 M 919 900 A 8 8 0 0 1 911 908 L 880 908" stroke-miterlimit="10"/></g><g transform="translate(-310,-110) scale(1,1)"><path fill="none" stroke="#000000" d="M 890.1626748576241 903.790482243984 L 880 908 L 890.1626748576241 912.209517756016" stroke-miterlimit="10"/></g><g transform="translate(-310,-110) scale(1,1)"><path fill="#C0C0C0" stroke="none" d="M 657 503 L 801.29541015625 503 Q 811.29541015625 503 811.29541015625 513 L 811.29541015625 533 Q 811.29541015625 543 801.29541015625 543 L 657 543 Q 647 543 647 533 L 647 513 Q 647 503 657 503 Z" opacity="0.2"/></g><g transform="translate(-310,-110) scale(1,1)"><path fill="#ffffff" stroke="none" d="M 650 496 L 794.29541015625 496 Q 804.29541015625 496 804.29541015625 506 L 804.29541015625 526 Q 804.29541015625 536 794.29541015625 536 L 650 536 Q 640 536 640 526 L 640 506 Q 640 496 650 496 Z"/></g><g transform="translate(-310,-110) scale(1,1)"><path fill="none" stroke="#000000" d="M 650 496 L 794.29541015625 496 Q 804.29541015625 496 804.29541015625 506 L 804.29541015625 526 Q 804.29541015625 536 794.29541015625 536 L 650 536 Q 640 536 640 526 L 640 506 Q 640 496 650 496 Z" stroke-miterlimit="10"/></g><g transform="translate(-310,-110) scale(1,1)"><g><path fill="none" stroke="none"/><text fill="#000000" stroke="none" font-family="Arial" font-size="13px" font-style="normal" font-weight="bold" text-decoration="none" x="644.5" y="514">Choose Payment Method</text></g></g><g transform="translate(-310,-110) scale(1,1)"><path fill="none" stroke="#000000" d="M 723 537 L 727 623" stroke-miterlimit="10"/></g><g transform="translate(-310,-110) scale(1,1)"><path fill="none" stroke="#000000" d="M 722.322856065764 613.0438800419822 L 727 623 L 730.7327997441373 612.6527198708951" stroke-miterlimit="10"/></g><g transform="translate(-310,-110) scale(1,1)"><path fill="none" stroke="#000000" d="M 1031 644 L 1135 644" stroke-miterlimit="10"/></g><g transform="translate(-310,-110) scale(1,1)"><path fill="none" stroke="#000000" d="M 1124.837325142376 648.209517756016 L 1135 644 L 1124.837325142376 639.790482243984" stroke-miterlimit="10"/></g><g transform="translate(-310,-110) scale(1,1)"><rect fill="#ffffff" stroke="none" x="320" y="120" width="712" height="21"/></g><g transform="translate(-310,-110) scale(1,1)"><path fill="none" stroke="#000000" d="M 320 120 L 1032 120 L 1032 141 L 320 141 L 320 120 Z Z" stroke-miterlimit="10" stroke-width="2"/></g><g transform="translate(-310,-110) scale(1,1)"><path fill="none" stroke="#000000" d="M 320 944 L 320 120 L 1032 120 L 1032 944" stroke-miterlimit="10" stroke-width="2"/></g><g transform="translate(-310,-110) scale(1,1)"><g><path fill="none" stroke="none"/><text fill="#000000" stroke="none" font-family="Arial" font-size="13px" font-style="normal" font-weight="normal" text-decoration="none" x="647.825927734375" y="134">Customer</text></g></g><g transform="translate(-310,-110) scale(1,1)"><rect fill="#ffffff" stroke="none" x="1032" y="120" width="432" height="21"/></g><g transform="translate(-310,-110) scale(1,1)"><path fill="none" stroke="#000000" d="M 1032 120 L 1464 120 L 1464 141 L 1032 141 L 1032 120 Z Z" stroke-miterlimit="10" stroke-width="2"/></g><g transform="translate(-310,-110) scale(1,1)"><path fill="none" stroke="#000000" d="M 1032 944 L 1032 120 L 1464 120 L 1464 944" stroke-miterlimit="10" stroke-width="2"/></g><g transform="translate(-310,-110) scale(1,1)"><g><path fill="none" stroke="none"/><text fill="#000000" stroke="none" font-family="Arial" font-size="13px" font-style="normal" font-weight="normal" text-decoration="none" x="1226.3291015625" y="134">System</text></g></g></g></svg>