<svg version="1.1" xmlns="http://www.w3.org/2000/svg" xmlns:xlink="http://www.w3.org/1999/xlink" width="1004" height="868"><defs/><g><text fill="#eeeeee" stroke="none" font-family="Arial" font-size="24px" font-style="normal" font-weight="normal" text-decoration="none" x="0" y="0">UNREGISTERED</text><text fill="#eeeeee" stroke="none" font-family="Arial" font-size="24px" font-style="normal" font-weight="normal" text-decoration="none" x="0" y="30">UNREGISTERED</text><text fill="#eeeeee" stroke="none" font-family="Arial" font-size="24px" font-style="normal" font-weight="normal" text-decoration="none" x="0" y="60">UNREGISTERED</text><text fill="#eeeeee" stroke="none" font-family="Arial" font-size="24px" font-style="normal" font-weight="normal" text-decoration="none" x="0" y="90">UNREGISTERED</text><text fill="#eeeeee" stroke="none" font-family="Arial" font-size="24px" font-style="normal" font-weight="normal" text-decoration="none" x="0" y="120">UNREGISTERED</text><text fill="#eeeeee" stroke="none" font-family="Arial" font-size="24px" font-style="normal" font-weight="normal" text-decoration="none" x="0" y="150">UNREGISTERED</text><text fill="#eeeeee" stroke="none" font-family="Arial" font-size="24px" font-style="normal" font-weight="normal" text-decoration="none" x="0" y="180">UNREGISTERED</text><text fill="#eeeeee" stroke="none" font-family="Arial" font-size="24px" font-style="normal" font-weight="normal" text-decoration="none" x="0" y="210">UNREGISTERED</text><text fill="#eeeeee" stroke="none" font-family="Arial" font-size="24px" font-style="normal" font-weight="normal" text-decoration="none" x="0" y="240">UNREGISTERED</text><text fill="#eeeeee" stroke="none" font-family="Arial" font-size="24px" font-style="normal" font-weight="normal" text-decoration="none" x="0" y="270">UNREGISTERED</text><text fill="#eeeeee" stroke="none" font-family="Arial" font-size="24px" font-style="normal" font-weight="normal" text-decoration="none" x="0" y="300">UNREGISTERED</text><text fill="#eeeeee" stroke="none" font-family="Arial" font-size="24px" font-style="normal" font-weight="normal" text-decoration="none" x="0" y="330">UNREGISTERED</text><text fill="#eeeeee" stroke="none" font-family="Arial" font-size="24px" font-style="normal" font-weight="normal" text-decoration="none" x="0" y="360">UNREGISTERED</text><text fill="#eeeeee" stroke="none" font-family="Arial" font-size="24px" font-style="normal" font-weight="normal" text-decoration="none" x="0" y="390">UNREGISTERED</text><text fill="#eeeeee" stroke="none" font-family="Arial" font-size="24px" font-style="normal" font-weight="normal" text-decoration="none" x="0" y="420">UNREGISTERED</text><text fill="#eeeeee" stroke="none" font-family="Arial" font-size="24px" font-style="normal" font-weight="normal" text-decoration="none" x="0" y="450">UNREGISTERED</text><text fill="#eeeeee" stroke="none" font-family="Arial" font-size="24px" font-style="normal" font-weight="normal" text-decoration="none" x="0" y="480">UNREGISTERED</text><text fill="#eeeeee" stroke="none" font-family="Arial" font-size="24px" font-style="normal" font-weight="normal" text-decoration="none" x="0" y="510">UNREGISTERED</text><text fill="#eeeeee" stroke="none" font-family="Arial" font-size="24px" font-style="normal" font-weight="normal" text-decoration="none" x="0" y="540">UNREGISTERED</text><text fill="#eeeeee" stroke="none" font-family="Arial" font-size="24px" font-style="normal" font-weight="normal" text-decoration="none" x="0" y="570">UNREGISTERED</text><text fill="#eeeeee" stroke="none" font-family="Arial" font-size="24px" font-style="normal" font-weight="normal" text-decoration="none" x="0" y="600">UNREGISTERED</text><text fill="#eeeeee" stroke="none" font-family="Arial" font-size="24px" font-style="normal" font-weight="normal" text-decoration="none" x="0" y="630">UNREGISTERED</text><text fill="#eeeeee" stroke="none" font-family="Arial" font-size="24px" font-style="normal" font-weight="normal" text-decoration="none" x="0" y="660">UNREGISTERED</text><text fill="#eeeeee" stroke="none" font-family="Arial" font-size="24px" font-style="normal" font-weight="normal" text-decoration="none" x="0" y="690">UNREGISTERED</text><text fill="#eeeeee" stroke="none" font-family="Arial" font-size="24px" font-style="normal" font-weight="normal" text-decoration="none" x="0" y="720">UNREGISTERED</text><text fill="#eeeeee" stroke="none" font-family="Arial" font-size="24px" font-style="normal" font-weight="normal" text-decoration="none" x="0" y="750">UNREGISTERED</text><text fill="#eeeeee" stroke="none" font-family="Arial" font-size="24px" font-style="normal" font-weight="normal" text-decoration="none" x="0" y="780">UNREGISTERED</text><text fill="#eeeeee" stroke="none" font-family="Arial" font-size="24px" font-style="normal" font-weight="normal" text-decoration="none" x="0" y="810">UNREGISTERED</text><text fill="#eeeeee" stroke="none" font-family="Arial" font-size="24px" font-style="normal" font-weight="normal" text-decoration="none" x="0" y="840">UNREGISTERED</text><text fill="#eeeeee" stroke="none" font-family="Arial" font-size="24px" font-style="normal" font-weight="normal" text-decoration="none" x="200" y="0">UNREGISTERED</text><text fill="#eeeeee" stroke="none" font-family="Arial" font-size="24px" font-style="normal" font-weight="normal" text-decoration="none" x="200" y="30">UNREGISTERED</text><text fill="#eeeeee" stroke="none" font-family="Arial" font-size="24px" font-style="normal" font-weight="normal" text-decoration="none" x="200" y="60">UNREGISTERED</text><text fill="#eeeeee" stroke="none" font-family="Arial" font-size="24px" font-style="normal" font-weight="normal" text-decoration="none" x="200" y="90">UNREGISTERED</text><text fill="#eeeeee" stroke="none" font-family="Arial" font-size="24px" font-style="normal" font-weight="normal" text-decoration="none" x="200" y="120">UNREGISTERED</text><text fill="#eeeeee" stroke="none" font-family="Arial" font-size="24px" font-style="normal" font-weight="normal" text-decoration="none" x="200" y="150">UNREGISTERED</text><text fill="#eeeeee" stroke="none" font-family="Arial" font-size="24px" font-style="normal" font-weight="normal" text-decoration="none" x="200" y="180">UNREGISTERED</text><text fill="#eeeeee" stroke="none" font-family="Arial" font-size="24px" font-style="normal" font-weight="normal" text-decoration="none" x="200" y="210">UNREGISTERED</text><text fill="#eeeeee" stroke="none" font-family="Arial" font-size="24px" font-style="normal" font-weight="normal" text-decoration="none" x="200" y="240">UNREGISTERED</text><text fill="#eeeeee" stroke="none" font-family="Arial" font-size="24px" font-style="normal" font-weight="normal" text-decoration="none" x="200" y="270">UNREGISTERED</text><text fill="#eeeeee" stroke="none" font-family="Arial" font-size="24px" font-style="normal" font-weight="normal" text-decoration="none" x="200" y="300">UNREGISTERED</text><text fill="#eeeeee" stroke="none" font-family="Arial" font-size="24px" font-style="normal" font-weight="normal" text-decoration="none" x="200" y="330">UNREGISTERED</text><text fill="#eeeeee" stroke="none" font-family="Arial" font-size="24px" font-style="normal" font-weight="normal" text-decoration="none" x="200" y="360">UNREGISTERED</text><text fill="#eeeeee" stroke="none" font-family="Arial" font-size="24px" font-style="normal" font-weight="normal" text-decoration="none" x="200" y="390">UNREGISTERED</text><text fill="#eeeeee" stroke="none" font-family="Arial" font-size="24px" font-style="normal" font-weight="normal" text-decoration="none" x="200" y="420">UNREGISTERED</text><text fill="#eeeeee" stroke="none" font-family="Arial" font-size="24px" font-style="normal" font-weight="normal" text-decoration="none" x="200" y="450">UNREGISTERED</text><text fill="#eeeeee" stroke="none" font-family="Arial" font-size="24px" font-style="normal" font-weight="normal" text-decoration="none" x="200" y="480">UNREGISTERED</text><text fill="#eeeeee" stroke="none" font-family="Arial" font-size="24px" font-style="normal" font-weight="normal" text-decoration="none" x="200" y="510">UNREGISTERED</text><text fill="#eeeeee" stroke="none" font-family="Arial" font-size="24px" font-style="normal" font-weight="normal" text-decoration="none" x="200" y="540">UNREGISTERED</text><text fill="#eeeeee" stroke="none" font-family="Arial" font-size="24px" font-style="normal" font-weight="normal" text-decoration="none" x="200" y="570">UNREGISTERED</text><text fill="#eeeeee" stroke="none" font-family="Arial" font-size="24px" font-style="normal" font-weight="normal" text-decoration="none" x="200" y="600">UNREGISTERED</text><text fill="#eeeeee" stroke="none" font-family="Arial" font-size="24px" font-style="normal" font-weight="normal" text-decoration="none" x="200" y="630">UNREGISTERED</text><text fill="#eeeeee" stroke="none" font-family="Arial" font-size="24px" font-style="normal" font-weight="normal" text-decoration="none" x="200" y="660">UNREGISTERED</text><text fill="#eeeeee" stroke="none" font-family="Arial" font-size="24px" font-style="normal" font-weight="normal" text-decoration="none" x="200" y="690">UNREGISTERED</text><text fill="#eeeeee" stroke="none" font-family="Arial" font-size="24px" font-style="normal" font-weight="normal" text-decoration="none" x="200" y="720">UNREGISTERED</text><text fill="#eeeeee" stroke="none" font-family="Arial" font-size="24px" font-style="normal" font-weight="normal" text-decoration="none" x="200" y="750">UNREGISTERED</text><text fill="#eeeeee" stroke="none" font-family="Arial" font-size="24px" font-style="normal" font-weight="normal" text-decoration="none" x="200" y="780">UNREGISTERED</text><text fill="#eeeeee" stroke="none" font-family="Arial" font-size="24px" font-style="normal" font-weight="normal" text-decoration="none" x="200" y="810">UNREGISTERED</text><text fill="#eeeeee" stroke="none" font-family="Arial" font-size="24px" font-style="normal" font-weight="normal" text-decoration="none" x="200" y="840">UNREGISTERED</text><text fill="#eeeeee" stroke="none" font-family="Arial" font-size="24px" font-style="normal" font-weight="normal" text-decoration="none" x="400" y="0">UNREGISTERED</text><text fill="#eeeeee" stroke="none" font-family="Arial" font-size="24px" font-style="normal" font-weight="normal" text-decoration="none" x="400" y="30">UNREGISTERED</text><text fill="#eeeeee" stroke="none" font-family="Arial" font-size="24px" font-style="normal" font-weight="normal" text-decoration="none" x="400" y="60">UNREGISTERED</text><text fill="#eeeeee" stroke="none" font-family="Arial" font-size="24px" font-style="normal" font-weight="normal" text-decoration="none" x="400" y="90">UNREGISTERED</text><text fill="#eeeeee" stroke="none" font-family="Arial" font-size="24px" font-style="normal" font-weight="normal" text-decoration="none" x="400" y="120">UNREGISTERED</text><text fill="#eeeeee" stroke="none" font-family="Arial" font-size="24px" font-style="normal" font-weight="normal" text-decoration="none" x="400" y="150">UNREGISTERED</text><text fill="#eeeeee" stroke="none" font-family="Arial" font-size="24px" font-style="normal" font-weight="normal" text-decoration="none" x="400" y="180">UNREGISTERED</text><text fill="#eeeeee" stroke="none" font-family="Arial" font-size="24px" font-style="normal" font-weight="normal" text-decoration="none" x="400" y="210">UNREGISTERED</text><text fill="#eeeeee" stroke="none" font-family="Arial" font-size="24px" font-style="normal" font-weight="normal" text-decoration="none" x="400" y="240">UNREGISTERED</text><text fill="#eeeeee" stroke="none" font-family="Arial" font-size="24px" font-style="normal" font-weight="normal" text-decoration="none" x="400" y="270">UNREGISTERED</text><text fill="#eeeeee" stroke="none" font-family="Arial" font-size="24px" font-style="normal" font-weight="normal" text-decoration="none" x="400" y="300">UNREGISTERED</text><text fill="#eeeeee" stroke="none" font-family="Arial" font-size="24px" font-style="normal" font-weight="normal" text-decoration="none" x="400" y="330">UNREGISTERED</text><text fill="#eeeeee" stroke="none" font-family="Arial" font-size="24px" font-style="normal" font-weight="normal" text-decoration="none" x="400" y="360">UNREGISTERED</text><text fill="#eeeeee" stroke="none" font-family="Arial" font-size="24px" font-style="normal" font-weight="normal" text-decoration="none" x="400" y="390">UNREGISTERED</text><text fill="#eeeeee" stroke="none" font-family="Arial" font-size="24px" font-style="normal" font-weight="normal" text-decoration="none" x="400" y="420">UNREGISTERED</text><text fill="#eeeeee" stroke="none" font-family="Arial" font-size="24px" font-style="normal" font-weight="normal" text-decoration="none" x="400" y="450">UNREGISTERED</text><text fill="#eeeeee" stroke="none" font-family="Arial" font-size="24px" font-style="normal" font-weight="normal" text-decoration="none" x="400" y="480">UNREGISTERED</text><text fill="#eeeeee" stroke="none" font-family="Arial" font-size="24px" font-style="normal" font-weight="normal" text-decoration="none" x="400" y="510">UNREGISTERED</text><text fill="#eeeeee" stroke="none" font-family="Arial" font-size="24px" font-style="normal" font-weight="normal" text-decoration="none" x="400" y="540">UNREGISTERED</text><text fill="#eeeeee" stroke="none" font-family="Arial" font-size="24px" font-style="normal" font-weight="normal" text-decoration="none" x="400" y="570">UNREGISTERED</text><text fill="#eeeeee" stroke="none" font-family="Arial" font-size="24px" font-style="normal" font-weight="normal" text-decoration="none" x="400" y="600">UNREGISTERED</text><text fill="#eeeeee" stroke="none" font-family="Arial" font-size="24px" font-style="normal" font-weight="normal" text-decoration="none" x="400" y="630">UNREGISTERED</text><text fill="#eeeeee" stroke="none" font-family="Arial" font-size="24px" font-style="normal" font-weight="normal" text-decoration="none" x="400" y="660">UNREGISTERED</text><text fill="#eeeeee" stroke="none" font-family="Arial" font-size="24px" font-style="normal" font-weight="normal" text-decoration="none" x="400" y="690">UNREGISTERED</text><text fill="#eeeeee" stroke="none" font-family="Arial" font-size="24px" font-style="normal" font-weight="normal" text-decoration="none" x="400" y="720">UNREGISTERED</text><text fill="#eeeeee" stroke="none" font-family="Arial" font-size="24px" font-style="normal" font-weight="normal" text-decoration="none" x="400" y="750">UNREGISTERED</text><text fill="#eeeeee" stroke="none" font-family="Arial" font-size="24px" font-style="normal" font-weight="normal" text-decoration="none" x="400" y="780">UNREGISTERED</text><text fill="#eeeeee" stroke="none" font-family="Arial" font-size="24px" font-style="normal" font-weight="normal" text-decoration="none" x="400" y="810">UNREGISTERED</text><text fill="#eeeeee" stroke="none" font-family="Arial" font-size="24px" font-style="normal" font-weight="normal" text-decoration="none" x="400" y="840">UNREGISTERED</text><text fill="#eeeeee" stroke="none" font-family="Arial" font-size="24px" font-style="normal" font-weight="normal" text-decoration="none" x="600" y="0">UNREGISTERED</text><text fill="#eeeeee" stroke="none" font-family="Arial" font-size="24px" font-style="normal" font-weight="normal" text-decoration="none" x="600" y="30">UNREGISTERED</text><text fill="#eeeeee" stroke="none" font-family="Arial" font-size="24px" font-style="normal" font-weight="normal" text-decoration="none" x="600" y="60">UNREGISTERED</text><text fill="#eeeeee" stroke="none" font-family="Arial" font-size="24px" font-style="normal" font-weight="normal" text-decoration="none" x="600" y="90">UNREGISTERED</text><text fill="#eeeeee" stroke="none" font-family="Arial" font-size="24px" font-style="normal" font-weight="normal" text-decoration="none" x="600" y="120">UNREGISTERED</text><text fill="#eeeeee" stroke="none" font-family="Arial" font-size="24px" font-style="normal" font-weight="normal" text-decoration="none" x="600" y="150">UNREGISTERED</text><text fill="#eeeeee" stroke="none" font-family="Arial" font-size="24px" font-style="normal" font-weight="normal" text-decoration="none" x="600" y="180">UNREGISTERED</text><text fill="#eeeeee" stroke="none" font-family="Arial" font-size="24px" font-style="normal" font-weight="normal" text-decoration="none" x="600" y="210">UNREGISTERED</text><text fill="#eeeeee" stroke="none" font-family="Arial" font-size="24px" font-style="normal" font-weight="normal" text-decoration="none" x="600" y="240">UNREGISTERED</text><text fill="#eeeeee" stroke="none" font-family="Arial" font-size="24px" font-style="normal" font-weight="normal" text-decoration="none" x="600" y="270">UNREGISTERED</text><text fill="#eeeeee" stroke="none" font-family="Arial" font-size="24px" font-style="normal" font-weight="normal" text-decoration="none" x="600" y="300">UNREGISTERED</text><text fill="#eeeeee" stroke="none" font-family="Arial" font-size="24px" font-style="normal" font-weight="normal" text-decoration="none" x="600" y="330">UNREGISTERED</text><text fill="#eeeeee" stroke="none" font-family="Arial" font-size="24px" font-style="normal" font-weight="normal" text-decoration="none" x="600" y="360">UNREGISTERED</text><text fill="#eeeeee" stroke="none" font-family="Arial" font-size="24px" font-style="normal" font-weight="normal" text-decoration="none" x="600" y="390">UNREGISTERED</text><text fill="#eeeeee" stroke="none" font-family="Arial" font-size="24px" font-style="normal" font-weight="normal" text-decoration="none" x="600" y="420">UNREGISTERED</text><text fill="#eeeeee" stroke="none" font-family="Arial" font-size="24px" font-style="normal" font-weight="normal" text-decoration="none" x="600" y="450">UNREGISTERED</text><text fill="#eeeeee" stroke="none" font-family="Arial" font-size="24px" font-style="normal" font-weight="normal" text-decoration="none" x="600" y="480">UNREGISTERED</text><text fill="#eeeeee" stroke="none" font-family="Arial" font-size="24px" font-style="normal" font-weight="normal" text-decoration="none" x="600" y="510">UNREGISTERED</text><text fill="#eeeeee" stroke="none" font-family="Arial" font-size="24px" font-style="normal" font-weight="normal" text-decoration="none" x="600" y="540">UNREGISTERED</text><text fill="#eeeeee" stroke="none" font-family="Arial" font-size="24px" font-style="normal" font-weight="normal" text-decoration="none" x="600" y="570">UNREGISTERED</text><text fill="#eeeeee" stroke="none" font-family="Arial" font-size="24px" font-style="normal" font-weight="normal" text-decoration="none" x="600" y="600">UNREGISTERED</text><text fill="#eeeeee" stroke="none" font-family="Arial" font-size="24px" font-style="normal" font-weight="normal" text-decoration="none" x="600" y="630">UNREGISTERED</text><text fill="#eeeeee" stroke="none" font-family="Arial" font-size="24px" font-style="normal" font-weight="normal" text-decoration="none" x="600" y="660">UNREGISTERED</text><text fill="#eeeeee" stroke="none" font-family="Arial" font-size="24px" font-style="normal" font-weight="normal" text-decoration="none" x="600" y="690">UNREGISTERED</text><text fill="#eeeeee" stroke="none" font-family="Arial" font-size="24px" font-style="normal" font-weight="normal" text-decoration="none" x="600" y="720">UNREGISTERED</text><text fill="#eeeeee" stroke="none" font-family="Arial" font-size="24px" font-style="normal" font-weight="normal" text-decoration="none" x="600" y="750">UNREGISTERED</text><text fill="#eeeeee" stroke="none" font-family="Arial" font-size="24px" font-style="normal" font-weight="normal" text-decoration="none" x="600" y="780">UNREGISTERED</text><text fill="#eeeeee" stroke="none" font-family="Arial" font-size="24px" font-style="normal" font-weight="normal" text-decoration="none" x="600" y="810">UNREGISTERED</text><text fill="#eeeeee" stroke="none" font-family="Arial" font-size="24px" font-style="normal" font-weight="normal" text-decoration="none" x="600" y="840">UNREGISTERED</text><text fill="#eeeeee" stroke="none" font-family="Arial" font-size="24px" font-style="normal" font-weight="normal" text-decoration="none" x="800" y="0">UNREGISTERED</text><text fill="#eeeeee" stroke="none" font-family="Arial" font-size="24px" font-style="normal" font-weight="normal" text-decoration="none" x="800" y="30">UNREGISTERED</text><text fill="#eeeeee" stroke="none" font-family="Arial" font-size="24px" font-style="normal" font-weight="normal" text-decoration="none" x="800" y="60">UNREGISTERED</text><text fill="#eeeeee" stroke="none" font-family="Arial" font-size="24px" font-style="normal" font-weight="normal" text-decoration="none" x="800" y="90">UNREGISTERED</text><text fill="#eeeeee" stroke="none" font-family="Arial" font-size="24px" font-style="normal" font-weight="normal" text-decoration="none" x="800" y="120">UNREGISTERED</text><text fill="#eeeeee" stroke="none" font-family="Arial" font-size="24px" font-style="normal" font-weight="normal" text-decoration="none" x="800" y="150">UNREGISTERED</text><text fill="#eeeeee" stroke="none" font-family="Arial" font-size="24px" font-style="normal" font-weight="normal" text-decoration="none" x="800" y="180">UNREGISTERED</text><text fill="#eeeeee" stroke="none" font-family="Arial" font-size="24px" font-style="normal" font-weight="normal" text-decoration="none" x="800" y="210">UNREGISTERED</text><text fill="#eeeeee" stroke="none" font-family="Arial" font-size="24px" font-style="normal" font-weight="normal" text-decoration="none" x="800" y="240">UNREGISTERED</text><text fill="#eeeeee" stroke="none" font-family="Arial" font-size="24px" font-style="normal" font-weight="normal" text-decoration="none" x="800" y="270">UNREGISTERED</text><text fill="#eeeeee" stroke="none" font-family="Arial" font-size="24px" font-style="normal" font-weight="normal" text-decoration="none" x="800" y="300">UNREGISTERED</text><text fill="#eeeeee" stroke="none" font-family="Arial" font-size="24px" font-style="normal" font-weight="normal" text-decoration="none" x="800" y="330">UNREGISTERED</text><text fill="#eeeeee" stroke="none" font-family="Arial" font-size="24px" font-style="normal" font-weight="normal" text-decoration="none" x="800" y="360">UNREGISTERED</text><text fill="#eeeeee" stroke="none" font-family="Arial" font-size="24px" font-style="normal" font-weight="normal" text-decoration="none" x="800" y="390">UNREGISTERED</text><text fill="#eeeeee" stroke="none" font-family="Arial" font-size="24px" font-style="normal" font-weight="normal" text-decoration="none" x="800" y="420">UNREGISTERED</text><text fill="#eeeeee" stroke="none" font-family="Arial" font-size="24px" font-style="normal" font-weight="normal" text-decoration="none" x="800" y="450">UNREGISTERED</text><text fill="#eeeeee" stroke="none" font-family="Arial" font-size="24px" font-style="normal" font-weight="normal" text-decoration="none" x="800" y="480">UNREGISTERED</text><text fill="#eeeeee" stroke="none" font-family="Arial" font-size="24px" font-style="normal" font-weight="normal" text-decoration="none" x="800" y="510">UNREGISTERED</text><text fill="#eeeeee" stroke="none" font-family="Arial" font-size="24px" font-style="normal" font-weight="normal" text-decoration="none" x="800" y="540">UNREGISTERED</text><text fill="#eeeeee" stroke="none" font-family="Arial" font-size="24px" font-style="normal" font-weight="normal" text-decoration="none" x="800" y="570">UNREGISTERED</text><text fill="#eeeeee" stroke="none" font-family="Arial" font-size="24px" font-style="normal" font-weight="normal" text-decoration="none" x="800" y="600">UNREGISTERED</text><text fill="#eeeeee" stroke="none" font-family="Arial" font-size="24px" font-style="normal" font-weight="normal" text-decoration="none" x="800" y="630">UNREGISTERED</text><text fill="#eeeeee" stroke="none" font-family="Arial" font-size="24px" font-style="normal" font-weight="normal" text-decoration="none" x="800" y="660">UNREGISTERED</text><text fill="#eeeeee" stroke="none" font-family="Arial" font-size="24px" font-style="normal" font-weight="normal" text-decoration="none" x="800" y="690">UNREGISTERED</text><text fill="#eeeeee" stroke="none" font-family="Arial" font-size="24px" font-style="normal" font-weight="normal" text-decoration="none" x="800" y="720">UNREGISTERED</text><text fill="#eeeeee" stroke="none" font-family="Arial" font-size="24px" font-style="normal" font-weight="normal" text-decoration="none" x="800" y="750">UNREGISTERED</text><text fill="#eeeeee" stroke="none" font-family="Arial" font-size="24px" font-style="normal" font-weight="normal" text-decoration="none" x="800" y="780">UNREGISTERED</text><text fill="#eeeeee" stroke="none" font-family="Arial" font-size="24px" font-style="normal" font-weight="normal" text-decoration="none" x="800" y="810">UNREGISTERED</text><text fill="#eeeeee" stroke="none" font-family="Arial" font-size="24px" font-style="normal" font-weight="normal" text-decoration="none" x="800" y="840">UNREGISTERED</text><text fill="#eeeeee" stroke="none" font-family="Arial" font-size="24px" font-style="normal" font-weight="normal" text-decoration="none" x="1000" y="0">UNREGISTERED</text><text fill="#eeeeee" stroke="none" font-family="Arial" font-size="24px" font-style="normal" font-weight="normal" text-decoration="none" x="1000" y="30">UNREGISTERED</text><text fill="#eeeeee" stroke="none" font-family="Arial" font-size="24px" font-style="normal" font-weight="normal" text-decoration="none" x="1000" y="60">UNREGISTERED</text><text fill="#eeeeee" stroke="none" font-family="Arial" font-size="24px" font-style="normal" font-weight="normal" text-decoration="none" x="1000" y="90">UNREGISTERED</text><text fill="#eeeeee" stroke="none" font-family="Arial" font-size="24px" font-style="normal" font-weight="normal" text-decoration="none" x="1000" y="120">UNREGISTERED</text><text fill="#eeeeee" stroke="none" font-family="Arial" font-size="24px" font-style="normal" font-weight="normal" text-decoration="none" x="1000" y="150">UNREGISTERED</text><text fill="#eeeeee" stroke="none" font-family="Arial" font-size="24px" font-style="normal" font-weight="normal" text-decoration="none" x="1000" y="180">UNREGISTERED</text><text fill="#eeeeee" stroke="none" font-family="Arial" font-size="24px" font-style="normal" font-weight="normal" text-decoration="none" x="1000" y="210">UNREGISTERED</text><text fill="#eeeeee" stroke="none" font-family="Arial" font-size="24px" font-style="normal" font-weight="normal" text-decoration="none" x="1000" y="240">UNREGISTERED</text><text fill="#eeeeee" stroke="none" font-family="Arial" font-size="24px" font-style="normal" font-weight="normal" text-decoration="none" x="1000" y="270">UNREGISTERED</text><text fill="#eeeeee" stroke="none" font-family="Arial" font-size="24px" font-style="normal" font-weight="normal" text-decoration="none" x="1000" y="300">UNREGISTERED</text><text fill="#eeeeee" stroke="none" font-family="Arial" font-size="24px" font-style="normal" font-weight="normal" text-decoration="none" x="1000" y="330">UNREGISTERED</text><text fill="#eeeeee" stroke="none" font-family="Arial" font-size="24px" font-style="normal" font-weight="normal" text-decoration="none" x="1000" y="360">UNREGISTERED</text><text fill="#eeeeee" stroke="none" font-family="Arial" font-size="24px" font-style="normal" font-weight="normal" text-decoration="none" x="1000" y="390">UNREGISTERED</text><text fill="#eeeeee" stroke="none" font-family="Arial" font-size="24px" font-style="normal" font-weight="normal" text-decoration="none" x="1000" y="420">UNREGISTERED</text><text fill="#eeeeee" stroke="none" font-family="Arial" font-size="24px" font-style="normal" font-weight="normal" text-decoration="none" x="1000" y="450">UNREGISTERED</text><text fill="#eeeeee" stroke="none" font-family="Arial" font-size="24px" font-style="normal" font-weight="normal" text-decoration="none" x="1000" y="480">UNREGISTERED</text><text fill="#eeeeee" stroke="none" font-family="Arial" font-size="24px" font-style="normal" font-weight="normal" text-decoration="none" x="1000" y="510">UNREGISTERED</text><text fill="#eeeeee" stroke="none" font-family="Arial" font-size="24px" font-style="normal" font-weight="normal" text-decoration="none" x="1000" y="540">UNREGISTERED</text><text fill="#eeeeee" stroke="none" font-family="Arial" font-size="24px" font-style="normal" font-weight="normal" text-decoration="none" x="1000" y="570">UNREGISTERED</text><text fill="#eeeeee" stroke="none" font-family="Arial" font-size="24px" font-style="normal" font-weight="normal" text-decoration="none" x="1000" y="600">UNREGISTERED</text><text fill="#eeeeee" stroke="none" font-family="Arial" font-size="24px" font-style="normal" font-weight="normal" text-decoration="none" x="1000" y="630">UNREGISTERED</text><text fill="#eeeeee" stroke="none" font-family="Arial" font-size="24px" font-style="normal" font-weight="normal" text-decoration="none" x="1000" y="660">UNREGISTERED</text><text fill="#eeeeee" stroke="none" font-family="Arial" font-size="24px" font-style="normal" font-weight="normal" text-decoration="none" x="1000" y="690">UNREGISTERED</text><text fill="#eeeeee" stroke="none" font-family="Arial" font-size="24px" font-style="normal" font-weight="normal" text-decoration="none" x="1000" y="720">UNREGISTERED</text><text fill="#eeeeee" stroke="none" font-family="Arial" font-size="24px" font-style="normal" font-weight="normal" text-decoration="none" x="1000" y="750">UNREGISTERED</text><text fill="#eeeeee" stroke="none" font-family="Arial" font-size="24px" font-style="normal" font-weight="normal" text-decoration="none" x="1000" y="780">UNREGISTERED</text><text fill="#eeeeee" stroke="none" font-family="Arial" font-size="24px" font-style="normal" font-weight="normal" text-decoration="none" x="1000" y="810">UNREGISTERED</text><text fill="#eeeeee" stroke="none" font-family="Arial" font-size="24px" font-style="normal" font-weight="normal" text-decoration="none" x="1000" y="840">UNREGISTERED</text><g transform="translate(-350,-94) scale(1,1)"><path fill="#C0C0C0" stroke="none" d="M 583 160.5 C 583 155.2532944 587.2532944 151 592.5 151 C 597.7467056 151 602 155.2532944 602 160.5 C 602 165.7467056 597.7467056 170 592.5 170 C 587.2532944 170 583 165.7467056 583 160.5 Z" opacity="0.2"/></g><g transform="translate(-350,-94) scale(1,1)"><path fill="#000000" stroke="none" d="M 576 153.5 C 576 148.2532944 580.2532944 144 585.5 144 C 590.7467056 144 595 148.2532944 595 153.5 C 595 158.7467056 590.7467056 163 585.5 163 C 580.2532944 163 576 158.7467056 576 153.5 Z"/></g><g transform="translate(-350,-94) scale(1,1)"><path fill="#C0C0C0" stroke="none" d="M 537 223 L 643.75537109375 223 Q 653.75537109375 223 653.75537109375 233 L 653.75537109375 253 Q 653.75537109375 263 643.75537109375 263 L 537 263 Q 527 263 527 253 L 527 233 Q 527 223 537 223 Z" opacity="0.2"/></g><g transform="translate(-350,-94) scale(1,1)"><path fill="#ffffff" stroke="none" d="M 530 216 L 636.75537109375 216 Q 646.75537109375 216 646.75537109375 226 L 646.75537109375 246 Q 646.75537109375 256 636.75537109375 256 L 530 256 Q 520 256 520 246 L 520 226 Q 520 216 530 216 Z"/></g><g transform="translate(-350,-94) scale(1,1)"><path fill="none" stroke="#000000" d="M 530 216 L 636.75537109375 216 Q 646.75537109375 216 646.75537109375 226 L 646.75537109375 246 Q 646.75537109375 256 636.75537109375 256 L 530 256 Q 520 256 520 246 L 520 226 Q 520 216 530 216 Z" stroke-miterlimit="10"/></g><g transform="translate(-350,-94) scale(1,1)"><g><path fill="none" stroke="none"/><text fill="#000000" stroke="none" font-family="Arial" font-size="13px" font-style="normal" font-weight="bold" text-decoration="none" x="524.5" y="234">Display Dashboard</text></g></g><g transform="translate(-350,-94) scale(1,1)"><path fill="#C0C0C0" stroke="none" d="M 545 319 L 615.61181640625 319 Q 625.61181640625 319 625.61181640625 329 L 625.61181640625 349 Q 625.61181640625 359 615.61181640625 359 L 545 359 Q 535 359 535 349 L 535 329 Q 535 319 545 319 Z" opacity="0.2"/></g><g transform="translate(-350,-94) scale(1,1)"><path fill="#ffffff" stroke="none" d="M 538 312 L 608.61181640625 312 Q 618.61181640625 312 618.61181640625 322 L 618.61181640625 342 Q 618.61181640625 352 608.61181640625 352 L 538 352 Q 528 352 528 342 L 528 322 Q 528 312 538 312 Z"/></g><g transform="translate(-350,-94) scale(1,1)"><path fill="none" stroke="#000000" d="M 538 312 L 608.61181640625 312 Q 618.61181640625 312 618.61181640625 322 L 618.61181640625 342 Q 618.61181640625 352 608.61181640625 352 L 538 352 Q 528 352 528 342 L 528 322 Q 528 312 538 312 Z" stroke-miterlimit="10"/></g><g transform="translate(-350,-94) scale(1,1)"><g><path fill="none" stroke="none"/><text fill="#000000" stroke="none" font-family="Arial" font-size="13px" font-style="normal" font-weight="bold" text-decoration="none" x="542.970458984375" y="330">Buy Book</text></g></g><g transform="translate(-350,-94) scale(1,1)"><path fill="#C0C0C0" stroke="none" d="M 545 423 L 622.81640625 423 Q 632.81640625 423 632.81640625 433 L 632.81640625 453 Q 632.81640625 463 622.81640625 463 L 545 463 Q 535 463 535 453 L 535 433 Q 535 423 545 423 Z" opacity="0.2"/></g><g transform="translate(-350,-94) scale(1,1)"><path fill="#ffffff" stroke="none" d="M 538 416 L 615.81640625 416 Q 625.81640625 416 625.81640625 426 L 625.81640625 446 Q 625.81640625 456 615.81640625 456 L 538 456 Q 528 456 528 446 L 528 426 Q 528 416 538 416 Z"/></g><g transform="translate(-350,-94) scale(1,1)"><path fill="none" stroke="#000000" d="M 538 416 L 615.81640625 416 Q 625.81640625 416 625.81640625 426 L 625.81640625 446 Q 625.81640625 456 615.81640625 456 L 538 456 Q 528 456 528 446 L 528 426 Q 528 416 538 416 Z" stroke-miterlimit="10"/></g><g transform="translate(-350,-94) scale(1,1)"><g><path fill="none" stroke="none"/><text fill="#000000" stroke="none" font-family="Arial" font-size="13px" font-style="normal" font-weight="bold" text-decoration="none" x="537.171875" y="434">Search Book</text></g></g><g transform="translate(-350,-94) scale(1,1)"><path fill="none" stroke="#000000" d="M 574 353 L 575 415" stroke-miterlimit="10"/></g><g transform="translate(-350,-94) scale(1,1)"><path fill="none" stroke="#000000" d="M 570.6271368871173 404.90653339055456 L 575 415 L 579.045077524899 404.7707601544613" stroke-miterlimit="10"/></g><g transform="translate(-350,-94) scale(1,1)"><path fill="#C0C0C0" stroke="none" d="M 551 531.5 L 571.5 511 L 591 531.5 L 571.5 551 L 551 531.5" opacity="0.2"/></g><g transform="translate(-350,-94) scale(1,1)"><path fill="#ffffff" stroke="none" d="M 544 524 L 564 504 L 584 524 L 564 544 L 544 524"/></g><g transform="translate(-350,-94) scale(1,1)"><path fill="none" stroke="#000000" d="M 544 524 L 564 504 L 584 524 L 564 544 L 544 524 L 544 524" stroke-miterlimit="10"/></g><g transform="translate(-350,-94) scale(1,1)"><path fill="none" stroke="#000000" d="M 573 457 L 567 503" stroke-miterlimit="10"/></g><g transform="translate(-350,-94) scale(1,1)"><path fill="none" stroke="#000000" d="M 564.14027253627 492.3782318405461 L 567 503 L 572.4885916117922 493.4671430243099" stroke-miterlimit="10"/></g><g transform="translate(-350,-94) scale(1,1)"><path fill="#C0C0C0" stroke="none" d="M 673 511 L 827.45166015625 511 Q 837.45166015625 511 837.45166015625 521 L 837.45166015625 541 Q 837.45166015625 551 827.45166015625 551 L 673 551 Q 663 551 663 541 L 663 521 Q 663 511 673 511 Z" opacity="0.2"/></g><g transform="translate(-350,-94) scale(1,1)"><path fill="#ffffff" stroke="none" d="M 666 504 L 820.45166015625 504 Q 830.45166015625 504 830.45166015625 514 L 830.45166015625 534 Q 830.45166015625 544 820.45166015625 544 L 666 544 Q 656 544 656 534 L 656 514 Q 656 504 666 504 Z"/></g><g transform="translate(-350,-94) scale(1,1)"><path fill="none" stroke="#000000" d="M 666 504 L 820.45166015625 504 Q 830.45166015625 504 830.45166015625 514 L 830.45166015625 534 Q 830.45166015625 544 820.45166015625 544 L 666 544 Q 656 544 656 534 L 656 514 Q 656 504 666 504 Z" stroke-miterlimit="10"/></g><g transform="translate(-350,-94) scale(1,1)"><g><path fill="none" stroke="none"/><text fill="#000000" stroke="none" font-family="Arial" font-size="13px" font-style="normal" font-weight="bold" text-decoration="none" x="665.578125" y="522">Choose Payment Method</text></g></g><g transform="translate(-350,-94) scale(1,1)"><path fill="none" stroke="#000000" d="M 585 524 L 655 524" stroke-miterlimit="10"/></g><g transform="translate(-350,-94) scale(1,1)"><path fill="none" stroke="#000000" d="M 644.8373251423759 528.209517756016 L 655 524 L 644.8373251423758 519.790482243984" stroke-miterlimit="10"/></g><g transform="translate(-350,-94) scale(1,1)"><g><path fill="none" stroke="none"/><text fill="#000000" stroke="none" font-family="Arial" font-size="13px" font-style="normal" font-weight="normal" text-decoration="none" x="590.299560546875" y="554">[Found]</text></g></g><g transform="translate(-350,-94) scale(1,1)"><path fill="none" stroke="#000000" d="M 585 164 L 584 215" stroke-miterlimit="10"/></g><g transform="translate(-350,-94) scale(1,1)"><path fill="none" stroke="#000000" d="M 579.9905210615756 204.7567544868664 L 584 215 L 588.407938617311 204.92180188992006" stroke-miterlimit="10"/></g><g transform="translate(-350,-94) scale(1,1)"><path fill="#C0C0C0" stroke="none" d="M 783 892 L 828 863 L 872 892 L 828 920 L 783 892" opacity="0.2"/></g><g transform="translate(-350,-94) scale(1,1)"><path fill="#ffffff" stroke="none" d="M 776 884.5 L 820.5 856 L 865 884.5 L 820.5 913 L 776 884.5"/></g><g transform="translate(-350,-94) scale(1,1)"><path fill="none" stroke="#000000" d="M 776 884.5 L 820.5 856 L 865 884.5 L 820.5 913 L 776 884.5 L 776 884.5" stroke-miterlimit="10"/></g><g transform="translate(-350,-94) scale(1,1)"><path fill="none" stroke="#000000" d="M 581 257 L 575 311" stroke-miterlimit="10"/></g><g transform="translate(-350,-94) scale(1,1)"><path fill="none" stroke="#000000" d="M 571.9385084650058 300.4346192883948 L 575 311 L 580.3060509220539 301.36434622806684" stroke-miterlimit="10"/></g><g transform="translate(-350,-94) scale(1,1)"><path fill="#C0C0C0" stroke="none" d="M 1113 607 L 1275.392578125 607 Q 1285.392578125 607 1285.392578125 617 L 1285.392578125 637 Q 1285.392578125 647 1275.392578125 647 L 1113 647 Q 1103 647 1103 637 L 1103 617 Q 1103 607 1113 607 Z" opacity="0.2"/></g><g transform="translate(-350,-94) scale(1,1)"><path fill="#ffffff" stroke="none" d="M 1106 600 L 1268.392578125 600 Q 1278.392578125 600 1278.392578125 610 L 1278.392578125 630 Q 1278.392578125 640 1268.392578125 640 L 1106 640 Q 1096 640 1096 630 L 1096 610 Q 1096 600 1106 600 Z"/></g><g transform="translate(-350,-94) scale(1,1)"><path fill="none" stroke="#000000" d="M 1106 600 L 1268.392578125 600 Q 1278.392578125 600 1278.392578125 610 L 1278.392578125 630 Q 1278.392578125 640 1268.392578125 640 L 1106 640 Q 1096 640 1096 630 L 1096 610 Q 1096 600 1106 600 Z" stroke-miterlimit="10"/></g><g transform="translate(-350,-94) scale(1,1)"><g><path fill="none" stroke="none"/><text fill="#000000" stroke="none" font-family="Arial" font-size="13px" font-style="normal" font-weight="bold" text-decoration="none" x="1100.5" y="618">Decrease Number of Copies</text></g></g><g transform="translate(-350,-94) scale(1,1)"><path fill="none" stroke="#000000" d="M 776 884 L 440 884 M 440 884 A 8 8 0 0 1 432 876 L 432 264 M 432 264 A 8 8 0 0 1 440 256 L 520 256" stroke-miterlimit="10"/></g><g transform="translate(-350,-94) scale(1,1)"><path fill="none" stroke="#000000" d="M 509.83732514237585 260.209517756016 L 520 256 L 509.83732514237585 251.790482243984" stroke-miterlimit="10"/></g><g transform="translate(-350,-94) scale(1,1)"><g><path fill="none" stroke="none"/><text fill="#000000" stroke="none" font-family="Arial" font-size="13px" font-style="normal" font-weight="normal" text-decoration="none" x="623.5" y="866">[Display Dashboard]</text></g></g><g transform="translate(-350,-94) scale(1,1)"><path fill="none" stroke="#000000" d="M 560 544 L 560 740 M 560 740 A 8 8 0 0 0 568 748 L 784 748" stroke-miterlimit="10"/></g><g transform="translate(-350,-94) scale(1,1)"><path fill="none" stroke="#000000" d="M 773.8373251423759 752.209517756016 L 784 748 L 773.8373251423758 743.790482243984" stroke-miterlimit="10"/></g><g transform="translate(-350,-94) scale(1,1)"><g><path fill="none" stroke="none"/><text fill="#000000" stroke="none" font-family="Arial" font-size="13px" font-style="normal" font-weight="normal" text-decoration="none" x="526.5" y="738">[Not Found]</text></g></g><g transform="translate(-350,-94) scale(1,1)"><path fill="#C0C0C0" stroke="none" d="M 791 763.5 L 819.5 743 L 847 763.5 L 819.5 783 L 791 763.5" opacity="0.2"/></g><g transform="translate(-350,-94) scale(1,1)"><path fill="#ffffff" stroke="none" d="M 784 756 L 812 736 L 840 756 L 812 776 L 784 756"/></g><g transform="translate(-350,-94) scale(1,1)"><path fill="none" stroke="#000000" d="M 784 756 L 812 736 L 840 756 L 812 776 L 784 756 L 784 756" stroke-miterlimit="10"/></g><g transform="translate(-350,-94) scale(1,1)"><path fill="none" stroke="#000000" d="M 1171 640 L 1171 740 M 1171 740 A 8 8 0 0 1 1163 748 L 840 748" stroke-miterlimit="10"/></g><g transform="translate(-350,-94) scale(1,1)"><path fill="none" stroke="#000000" d="M 850.1626748576241 743.790482243984 L 840 748 L 850.1626748576241 752.209517756016" stroke-miterlimit="10"/></g><g transform="translate(-350,-94) scale(1,1)"><path fill="none" stroke="#000000" d="M 813 777 L 818 855" stroke-miterlimit="10"/></g><g transform="translate(-350,-94) scale(1,1)"><path fill="none" stroke="#000000" d="M 813.148985256035 845.1274291112277 L 818 855 L 821.5507764021022 844.5888527557106" stroke-miterlimit="10"/></g><g transform="translate(-350,-94) scale(1,1)"><rect fill="#ffffff" stroke="none" x="360" y="104" width="640" height="21"/></g><g transform="translate(-350,-94) scale(1,1)"><path fill="none" stroke="#000000" d="M 360 104 L 1000 104 L 1000 125 L 360 125 L 360 104 Z Z" stroke-miterlimit="10" stroke-width="2"/></g><g transform="translate(-350,-94) scale(1,1)"><path fill="none" stroke="#000000" d="M 360 944 L 360 104 L 1000 104 L 1000 944" stroke-miterlimit="10" stroke-width="2"/></g><g transform="translate(-350,-94) scale(1,1)"><g><path fill="none" stroke="none"/><text fill="#000000" stroke="none" font-family="Arial" font-size="13px" font-style="normal" font-weight="normal" text-decoration="none" x="651.825927734375" y="118">Customer</text></g></g><g transform="translate(-350,-94) scale(1,1)"><rect fill="#ffffff" stroke="none" x="1000" y="104" width="344" height="21"/></g><g transform="translate(-350,-94) scale(1,1)"><path fill="none" stroke="#000000" d="M 1000 104 L 1344 104 L 1344 125 L 1000 125 L 1000 104 Z Z" stroke-miterlimit="10" stroke-width="2"/></g><g transform="translate(-350,-94) scale(1,1)"><path fill="none" stroke="#000000" d="M 1000 952 L 1000 104 L 1344 104 L 1344 952" stroke-miterlimit="10" stroke-width="2"/></g><g transform="translate(-350,-94) scale(1,1)"><g><path fill="none" stroke="none"/><text fill="#000000" stroke="none" font-family="Arial" font-size="13px" font-style="normal" font-weight="normal" text-decoration="none" x="1150.3291015625" y="118">System</text></g></g><g transform="translate(-350,-94) scale(1,1)"><path fill="#C0C0C0" stroke="none" d="M 783 623.5 L 807.5 599 L 831 623.5 L 807.5 647 L 783 623.5" opacity="0.2"/></g><g transform="translate(-350,-94) scale(1,1)"><path fill="#ffffff" stroke="none" d="M 776 616 L 800 592 L 824 616 L 800 640 L 776 616"/></g><g transform="translate(-350,-94) scale(1,1)"><path fill="none" stroke="#000000" d="M 776 616 L 800 592 L 824 616 L 800 640 L 776 616 L 776 616" stroke-miterlimit="10"/></g><g transform="translate(-350,-94) scale(1,1)"><path fill="none" stroke="#000000" d="M 760 544 L 760 584 M 760 584 A 8 8 0 0 0 768 592 L 776 592" stroke-miterlimit="10"/></g><g transform="translate(-350,-94) scale(1,1)"><path fill="none" stroke="#000000" d="M 765.8373251423759 596.209517756016 L 776 592 L 765.8373251423758 587.790482243984" stroke-miterlimit="10"/></g><g transform="translate(-350,-94) scale(1,1)"><path fill="none" stroke="#000000" d="M 824 620 L 1096 620" stroke-miterlimit="10"/></g><g transform="translate(-350,-94) scale(1,1)"><path fill="none" stroke="#000000" d="M 1085.837325142376 624.209517756016 L 1096 620 L 1085.837325142376 615.790482243984" stroke-miterlimit="10"/></g><g transform="translate(-350,-94) scale(1,1)"><g><path fill="none" stroke="none"/><text fill="#000000" stroke="none" font-family="Arial" font-size="13px" font-style="normal" font-weight="normal" text-decoration="none" x="933.5" y="610">[Confirm]</text></g></g><g transform="translate(-350,-94) scale(1,1)"><path fill="none" stroke="#000000" d="M 804 640 L 804 736" stroke-miterlimit="10"/></g><g transform="translate(-350,-94) scale(1,1)"><path fill="none" stroke="#000000" d="M 799.790482243984 725.8373251423759 L 804 736 L 808.209517756016 725.8373251423759" stroke-miterlimit="10"/></g><g transform="translate(-350,-94) scale(1,1)"><g><path fill="none" stroke="none"/><text fill="#000000" stroke="none" font-family="Arial" font-size="13px" font-style="normal" font-weight="normal" text-decoration="none" x="792.5" y="692">[Discard]</text></g></g></g></svg>