<svg version="1.1" xmlns="http://www.w3.org/2000/svg" xmlns:xlink="http://www.w3.org/1999/xlink" width="662.0654296875" height="636"><defs/><g><text fill="#eeeeee" stroke="none" font-family="Arial" font-size="24px" font-style="normal" font-weight="normal" text-decoration="none" x="0" y="0">UNREGISTERED</text><text fill="#eeeeee" stroke="none" font-family="Arial" font-size="24px" font-style="normal" font-weight="normal" text-decoration="none" x="0" y="30">UNREGISTERED</text><text fill="#eeeeee" stroke="none" font-family="Arial" font-size="24px" font-style="normal" font-weight="normal" text-decoration="none" x="0" y="60">UNREGISTERED</text><text fill="#eeeeee" stroke="none" font-family="Arial" font-size="24px" font-style="normal" font-weight="normal" text-decoration="none" x="0" y="90">UNREGISTERED</text><text fill="#eeeeee" stroke="none" font-family="Arial" font-size="24px" font-style="normal" font-weight="normal" text-decoration="none" x="0" y="120">UNREGISTERED</text><text fill="#eeeeee" stroke="none" font-family="Arial" font-size="24px" font-style="normal" font-weight="normal" text-decoration="none" x="0" y="150">UNREGISTERED</text><text fill="#eeeeee" stroke="none" font-family="Arial" font-size="24px" font-style="normal" font-weight="normal" text-decoration="none" x="0" y="180">UNREGISTERED</text><text fill="#eeeeee" stroke="none" font-family="Arial" font-size="24px" font-style="normal" font-weight="normal" text-decoration="none" x="0" y="210">UNREGISTERED</text><text fill="#eeeeee" stroke="none" font-family="Arial" font-size="24px" font-style="normal" font-weight="normal" text-decoration="none" x="0" y="240">UNREGISTERED</text><text fill="#eeeeee" stroke="none" font-family="Arial" font-size="24px" font-style="normal" font-weight="normal" text-decoration="none" x="0" y="270">UNREGISTERED</text><text fill="#eeeeee" stroke="none" font-family="Arial" font-size="24px" font-style="normal" font-weight="normal" text-decoration="none" x="0" y="300">UNREGISTERED</text><text fill="#eeeeee" stroke="none" font-family="Arial" font-size="24px" font-style="normal" font-weight="normal" text-decoration="none" x="0" y="330">UNREGISTERED</text><text fill="#eeeeee" stroke="none" font-family="Arial" font-size="24px" font-style="normal" font-weight="normal" text-decoration="none" x="0" y="360">UNREGISTERED</text><text fill="#eeeeee" stroke="none" font-family="Arial" font-size="24px" font-style="normal" font-weight="normal" text-decoration="none" x="0" y="390">UNREGISTERED</text><text fill="#eeeeee" stroke="none" font-family="Arial" font-size="24px" font-style="normal" font-weight="normal" text-decoration="none" x="0" y="420">UNREGISTERED</text><text fill="#eeeeee" stroke="none" font-family="Arial" font-size="24px" font-style="normal" font-weight="normal" text-decoration="none" x="0" y="450">UNREGISTERED</text><text fill="#eeeeee" stroke="none" font-family="Arial" font-size="24px" font-style="normal" font-weight="normal" text-decoration="none" x="0" y="480">UNREGISTERED</text><text fill="#eeeeee" stroke="none" font-family="Arial" font-size="24px" font-style="normal" font-weight="normal" text-decoration="none" x="0" y="510">UNREGISTERED</text><text fill="#eeeeee" stroke="none" font-family="Arial" font-size="24px" font-style="normal" font-weight="normal" text-decoration="none" x="0" y="540">UNREGISTERED</text><text fill="#eeeeee" stroke="none" font-family="Arial" font-size="24px" font-style="normal" font-weight="normal" text-decoration="none" x="0" y="570">UNREGISTERED</text><text fill="#eeeeee" stroke="none" font-family="Arial" font-size="24px" font-style="normal" font-weight="normal" text-decoration="none" x="0" y="600">UNREGISTERED</text><text fill="#eeeeee" stroke="none" font-family="Arial" font-size="24px" font-style="normal" font-weight="normal" text-decoration="none" x="0" y="630">UNREGISTERED</text><text fill="#eeeeee" stroke="none" font-family="Arial" font-size="24px" font-style="normal" font-weight="normal" text-decoration="none" x="200" y="0">UNREGISTERED</text><text fill="#eeeeee" stroke="none" font-family="Arial" font-size="24px" font-style="normal" font-weight="normal" text-decoration="none" x="200" y="30">UNREGISTERED</text><text fill="#eeeeee" stroke="none" font-family="Arial" font-size="24px" font-style="normal" font-weight="normal" text-decoration="none" x="200" y="60">UNREGISTERED</text><text fill="#eeeeee" stroke="none" font-family="Arial" font-size="24px" font-style="normal" font-weight="normal" text-decoration="none" x="200" y="90">UNREGISTERED</text><text fill="#eeeeee" stroke="none" font-family="Arial" font-size="24px" font-style="normal" font-weight="normal" text-decoration="none" x="200" y="120">UNREGISTERED</text><text fill="#eeeeee" stroke="none" font-family="Arial" font-size="24px" font-style="normal" font-weight="normal" text-decoration="none" x="200" y="150">UNREGISTERED</text><text fill="#eeeeee" stroke="none" font-family="Arial" font-size="24px" font-style="normal" font-weight="normal" text-decoration="none" x="200" y="180">UNREGISTERED</text><text fill="#eeeeee" stroke="none" font-family="Arial" font-size="24px" font-style="normal" font-weight="normal" text-decoration="none" x="200" y="210">UNREGISTERED</text><text fill="#eeeeee" stroke="none" font-family="Arial" font-size="24px" font-style="normal" font-weight="normal" text-decoration="none" x="200" y="240">UNREGISTERED</text><text fill="#eeeeee" stroke="none" font-family="Arial" font-size="24px" font-style="normal" font-weight="normal" text-decoration="none" x="200" y="270">UNREGISTERED</text><text fill="#eeeeee" stroke="none" font-family="Arial" font-size="24px" font-style="normal" font-weight="normal" text-decoration="none" x="200" y="300">UNREGISTERED</text><text fill="#eeeeee" stroke="none" font-family="Arial" font-size="24px" font-style="normal" font-weight="normal" text-decoration="none" x="200" y="330">UNREGISTERED</text><text fill="#eeeeee" stroke="none" font-family="Arial" font-size="24px" font-style="normal" font-weight="normal" text-decoration="none" x="200" y="360">UNREGISTERED</text><text fill="#eeeeee" stroke="none" font-family="Arial" font-size="24px" font-style="normal" font-weight="normal" text-decoration="none" x="200" y="390">UNREGISTERED</text><text fill="#eeeeee" stroke="none" font-family="Arial" font-size="24px" font-style="normal" font-weight="normal" text-decoration="none" x="200" y="420">UNREGISTERED</text><text fill="#eeeeee" stroke="none" font-family="Arial" font-size="24px" font-style="normal" font-weight="normal" text-decoration="none" x="200" y="450">UNREGISTERED</text><text fill="#eeeeee" stroke="none" font-family="Arial" font-size="24px" font-style="normal" font-weight="normal" text-decoration="none" x="200" y="480">UNREGISTERED</text><text fill="#eeeeee" stroke="none" font-family="Arial" font-size="24px" font-style="normal" font-weight="normal" text-decoration="none" x="200" y="510">UNREGISTERED</text><text fill="#eeeeee" stroke="none" font-family="Arial" font-size="24px" font-style="normal" font-weight="normal" text-decoration="none" x="200" y="540">UNREGISTERED</text><text fill="#eeeeee" stroke="none" font-family="Arial" font-size="24px" font-style="normal" font-weight="normal" text-decoration="none" x="200" y="570">UNREGISTERED</text><text fill="#eeeeee" stroke="none" font-family="Arial" font-size="24px" font-style="normal" font-weight="normal" text-decoration="none" x="200" y="600">UNREGISTERED</text><text fill="#eeeeee" stroke="none" font-family="Arial" font-size="24px" font-style="normal" font-weight="normal" text-decoration="none" x="200" y="630">UNREGISTERED</text><text fill="#eeeeee" stroke="none" font-family="Arial" font-size="24px" font-style="normal" font-weight="normal" text-decoration="none" x="400" y="0">UNREGISTERED</text><text fill="#eeeeee" stroke="none" font-family="Arial" font-size="24px" font-style="normal" font-weight="normal" text-decoration="none" x="400" y="30">UNREGISTERED</text><text fill="#eeeeee" stroke="none" font-family="Arial" font-size="24px" font-style="normal" font-weight="normal" text-decoration="none" x="400" y="60">UNREGISTERED</text><text fill="#eeeeee" stroke="none" font-family="Arial" font-size="24px" font-style="normal" font-weight="normal" text-decoration="none" x="400" y="90">UNREGISTERED</text><text fill="#eeeeee" stroke="none" font-family="Arial" font-size="24px" font-style="normal" font-weight="normal" text-decoration="none" x="400" y="120">UNREGISTERED</text><text fill="#eeeeee" stroke="none" font-family="Arial" font-size="24px" font-style="normal" font-weight="normal" text-decoration="none" x="400" y="150">UNREGISTERED</text><text fill="#eeeeee" stroke="none" font-family="Arial" font-size="24px" font-style="normal" font-weight="normal" text-decoration="none" x="400" y="180">UNREGISTERED</text><text fill="#eeeeee" stroke="none" font-family="Arial" font-size="24px" font-style="normal" font-weight="normal" text-decoration="none" x="400" y="210">UNREGISTERED</text><text fill="#eeeeee" stroke="none" font-family="Arial" font-size="24px" font-style="normal" font-weight="normal" text-decoration="none" x="400" y="240">UNREGISTERED</text><text fill="#eeeeee" stroke="none" font-family="Arial" font-size="24px" font-style="normal" font-weight="normal" text-decoration="none" x="400" y="270">UNREGISTERED</text><text fill="#eeeeee" stroke="none" font-family="Arial" font-size="24px" font-style="normal" font-weight="normal" text-decoration="none" x="400" y="300">UNREGISTERED</text><text fill="#eeeeee" stroke="none" font-family="Arial" font-size="24px" font-style="normal" font-weight="normal" text-decoration="none" x="400" y="330">UNREGISTERED</text><text fill="#eeeeee" stroke="none" font-family="Arial" font-size="24px" font-style="normal" font-weight="normal" text-decoration="none" x="400" y="360">UNREGISTERED</text><text fill="#eeeeee" stroke="none" font-family="Arial" font-size="24px" font-style="normal" font-weight="normal" text-decoration="none" x="400" y="390">UNREGISTERED</text><text fill="#eeeeee" stroke="none" font-family="Arial" font-size="24px" font-style="normal" font-weight="normal" text-decoration="none" x="400" y="420">UNREGISTERED</text><text fill="#eeeeee" stroke="none" font-family="Arial" font-size="24px" font-style="normal" font-weight="normal" text-decoration="none" x="400" y="450">UNREGISTERED</text><text fill="#eeeeee" stroke="none" font-family="Arial" font-size="24px" font-style="normal" font-weight="normal" text-decoration="none" x="400" y="480">UNREGISTERED</text><text fill="#eeeeee" stroke="none" font-family="Arial" font-size="24px" font-style="normal" font-weight="normal" text-decoration="none" x="400" y="510">UNREGISTERED</text><text fill="#eeeeee" stroke="none" font-family="Arial" font-size="24px" font-style="normal" font-weight="normal" text-decoration="none" x="400" y="540">UNREGISTERED</text><text fill="#eeeeee" stroke="none" font-family="Arial" font-size="24px" font-style="normal" font-weight="normal" text-decoration="none" x="400" y="570">UNREGISTERED</text><text fill="#eeeeee" stroke="none" font-family="Arial" font-size="24px" font-style="normal" font-weight="normal" text-decoration="none" x="400" y="600">UNREGISTERED</text><text fill="#eeeeee" stroke="none" font-family="Arial" font-size="24px" font-style="normal" font-weight="normal" text-decoration="none" x="400" y="630">UNREGISTERED</text><text fill="#eeeeee" stroke="none" font-family="Arial" font-size="24px" font-style="normal" font-weight="normal" text-decoration="none" x="600" y="0">UNREGISTERED</text><text fill="#eeeeee" stroke="none" font-family="Arial" font-size="24px" font-style="normal" font-weight="normal" text-decoration="none" x="600" y="30">UNREGISTERED</text><text fill="#eeeeee" stroke="none" font-family="Arial" font-size="24px" font-style="normal" font-weight="normal" text-decoration="none" x="600" y="60">UNREGISTERED</text><text fill="#eeeeee" stroke="none" font-family="Arial" font-size="24px" font-style="normal" font-weight="normal" text-decoration="none" x="600" y="90">UNREGISTERED</text><text fill="#eeeeee" stroke="none" font-family="Arial" font-size="24px" font-style="normal" font-weight="normal" text-decoration="none" x="600" y="120">UNREGISTERED</text><text fill="#eeeeee" stroke="none" font-family="Arial" font-size="24px" font-style="normal" font-weight="normal" text-decoration="none" x="600" y="150">UNREGISTERED</text><text fill="#eeeeee" stroke="none" font-family="Arial" font-size="24px" font-style="normal" font-weight="normal" text-decoration="none" x="600" y="180">UNREGISTERED</text><text fill="#eeeeee" stroke="none" font-family="Arial" font-size="24px" font-style="normal" font-weight="normal" text-decoration="none" x="600" y="210">UNREGISTERED</text><text fill="#eeeeee" stroke="none" font-family="Arial" font-size="24px" font-style="normal" font-weight="normal" text-decoration="none" x="600" y="240">UNREGISTERED</text><text fill="#eeeeee" stroke="none" font-family="Arial" font-size="24px" font-style="normal" font-weight="normal" text-decoration="none" x="600" y="270">UNREGISTERED</text><text fill="#eeeeee" stroke="none" font-family="Arial" font-size="24px" font-style="normal" font-weight="normal" text-decoration="none" x="600" y="300">UNREGISTERED</text><text fill="#eeeeee" stroke="none" font-family="Arial" font-size="24px" font-style="normal" font-weight="normal" text-decoration="none" x="600" y="330">UNREGISTERED</text><text fill="#eeeeee" stroke="none" font-family="Arial" font-size="24px" font-style="normal" font-weight="normal" text-decoration="none" x="600" y="360">UNREGISTERED</text><text fill="#eeeeee" stroke="none" font-family="Arial" font-size="24px" font-style="normal" font-weight="normal" text-decoration="none" x="600" y="390">UNREGISTERED</text><text fill="#eeeeee" stroke="none" font-family="Arial" font-size="24px" font-style="normal" font-weight="normal" text-decoration="none" x="600" y="420">UNREGISTERED</text><text fill="#eeeeee" stroke="none" font-family="Arial" font-size="24px" font-style="normal" font-weight="normal" text-decoration="none" x="600" y="450">UNREGISTERED</text><text fill="#eeeeee" stroke="none" font-family="Arial" font-size="24px" font-style="normal" font-weight="normal" text-decoration="none" x="600" y="480">UNREGISTERED</text><text fill="#eeeeee" stroke="none" font-family="Arial" font-size="24px" font-style="normal" font-weight="normal" text-decoration="none" x="600" y="510">UNREGISTERED</text><text fill="#eeeeee" stroke="none" font-family="Arial" font-size="24px" font-style="normal" font-weight="normal" text-decoration="none" x="600" y="540">UNREGISTERED</text><text fill="#eeeeee" stroke="none" font-family="Arial" font-size="24px" font-style="normal" font-weight="normal" text-decoration="none" x="600" y="570">UNREGISTERED</text><text fill="#eeeeee" stroke="none" font-family="Arial" font-size="24px" font-style="normal" font-weight="normal" text-decoration="none" x="600" y="600">UNREGISTERED</text><text fill="#eeeeee" stroke="none" font-family="Arial" font-size="24px" font-style="normal" font-weight="normal" text-decoration="none" x="600" y="630">UNREGISTERED</text><g transform="translate(-222,-94) scale(1,1)"><path fill="#C0C0C0" stroke="none" d="M 383 120.5 C 383 115.2532944 387.2532944 111 392.5 111 C 397.7467056 111 402 115.2532944 402 120.5 C 402 125.7467056 397.7467056 130 392.5 130 C 387.2532944 130 383 125.7467056 383 120.5 Z" opacity="0.2"/></g><g transform="translate(-222,-94) scale(1,1)"><path fill="#000000" stroke="none" d="M 376 113.5 C 376 108.2532944 380.2532944 104 385.5 104 C 390.7467056 104 395 108.2532944 395 113.5 C 395 118.7467056 390.7467056 123 385.5 123 C 380.2532944 123 376 118.7467056 376 113.5 Z"/></g><g transform="translate(-222,-94) scale(1,1)"><path fill="#C0C0C0" stroke="none" d="M 337 191 L 443.75537109375 191 Q 453.75537109375 191 453.75537109375 201 L 453.75537109375 221 Q 453.75537109375 231 443.75537109375 231 L 337 231 Q 327 231 327 221 L 327 201 Q 327 191 337 191 Z" opacity="0.2"/></g><g transform="translate(-222,-94) scale(1,1)"><path fill="#ffffff" stroke="none" d="M 330 184 L 436.75537109375 184 Q 446.75537109375 184 446.75537109375 194 L 446.75537109375 214 Q 446.75537109375 224 436.75537109375 224 L 330 224 Q 320 224 320 214 L 320 194 Q 320 184 330 184 Z"/></g><g transform="translate(-222,-94) scale(1,1)"><path fill="none" stroke="#000000" d="M 330 184 L 436.75537109375 184 Q 446.75537109375 184 446.75537109375 194 L 446.75537109375 214 Q 446.75537109375 224 436.75537109375 224 L 330 224 Q 320 224 320 214 L 320 194 Q 320 184 330 184 Z" stroke-miterlimit="10"/></g><g transform="translate(-222,-94) scale(1,1)"><g><path fill="none" stroke="none"/><text fill="#000000" stroke="none" font-family="Arial" font-size="13px" font-style="normal" font-weight="bold" text-decoration="none" x="324.5" y="202">Display Dashboard</text></g></g><g transform="translate(-222,-94) scale(1,1)"><path fill="none" stroke="#000000" d="M 385 124 L 383 183" stroke-miterlimit="10"/></g><g transform="translate(-222,-94) scale(1,1)"><path fill="none" stroke="#000000" d="M 379.13719842274446 172.70054545256147 L 383 183 L 387.55140096336095 172.9857726573281" stroke-miterlimit="10"/></g><g transform="translate(-222,-94) scale(1,1)"><path fill="#C0C0C0" stroke="none" d="M 359 311.5 L 391.5 287 L 423 311.5 L 391.5 335 L 359 311.5" opacity="0.2"/></g><g transform="translate(-222,-94) scale(1,1)"><path fill="#ffffff" stroke="none" d="M 352 304 L 384 280 L 416 304 L 384 328 L 352 304"/></g><g transform="translate(-222,-94) scale(1,1)"><path fill="none" stroke="#000000" d="M 352 304 L 384 280 L 416 304 L 384 328 L 352 304 L 352 304" stroke-miterlimit="10"/></g><g transform="translate(-222,-94) scale(1,1)"><path fill="none" stroke="#000000" d="M 383 225 L 384 279" stroke-miterlimit="10"/></g><g transform="translate(-222,-94) scale(1,1)"><path fill="none" stroke="#000000" d="M 379.6030384339769 268.9170079347985 L 384 279 L 388.02063072400256 268.76112659609436" stroke-miterlimit="10"/></g><g transform="translate(-222,-94) scale(1,1)"><path fill="#C0C0C0" stroke="none" d="M 361 407 L 420.7890625 407 Q 430.7890625 407 430.7890625 417 L 430.7890625 437 Q 430.7890625 447 420.7890625 447 L 361 447 Q 351 447 351 437 L 351 417 Q 351 407 361 407 Z" opacity="0.2"/></g><g transform="translate(-222,-94) scale(1,1)"><path fill="#ffffff" stroke="none" d="M 354 400 L 413.7890625 400 Q 423.7890625 400 423.7890625 410 L 423.7890625 430 Q 423.7890625 440 413.7890625 440 L 354 440 Q 344 440 344 430 L 344 410 Q 344 400 354 400 Z"/></g><g transform="translate(-222,-94) scale(1,1)"><path fill="none" stroke="#000000" d="M 354 400 L 413.7890625 400 Q 423.7890625 400 423.7890625 410 L 423.7890625 430 Q 423.7890625 440 413.7890625 440 L 354 440 Q 344 440 344 430 L 344 410 Q 344 400 354 400 Z" stroke-miterlimit="10"/></g><g transform="translate(-222,-94) scale(1,1)"><g><path fill="none" stroke="none"/><text fill="#000000" stroke="none" font-family="Arial" font-size="13px" font-style="normal" font-weight="bold" text-decoration="none" x="349.937744140625" y="418">Check Mail</text></g></g><g transform="translate(-222,-94) scale(1,1)"><path fill="none" stroke="#000000" d="M 384 329 L 383 399" stroke-miterlimit="10"/></g><g transform="translate(-222,-94) scale(1,1)"><path fill="none" stroke="#000000" d="M 378.93607797814394 388.7782321587568 L 383 399 L 387.3542545363899 388.8984918238746" stroke-miterlimit="10"/></g><g transform="translate(-222,-94) scale(1,1)"><g><path fill="none" stroke="none"/><text fill="#000000" stroke="none" font-family="Arial" font-size="13px" font-style="normal" font-weight="normal" text-decoration="none" x="382.67138671875" y="370">[Click 3]</text></g></g><g transform="translate(-222,-94) scale(1,1)"><path fill="#C0C0C0" stroke="none" d="M 585 295 L 653.47265625 295 Q 663.47265625 295 663.47265625 305 L 663.47265625 325 Q 663.47265625 335 653.47265625 335 L 585 335 Q 575 335 575 325 L 575 305 Q 575 295 585 295 Z" opacity="0.2"/></g><g transform="translate(-222,-94) scale(1,1)"><path fill="#ffffff" stroke="none" d="M 578 288 L 646.47265625 288 Q 656.47265625 288 656.47265625 298 L 656.47265625 318 Q 656.47265625 328 646.47265625 328 L 578 328 Q 568 328 568 318 L 568 298 Q 568 288 578 288 Z"/></g><g transform="translate(-222,-94) scale(1,1)"><path fill="none" stroke="#000000" d="M 578 288 L 646.47265625 288 Q 656.47265625 288 656.47265625 298 L 656.47265625 318 Q 656.47265625 328 646.47265625 328 L 578 328 Q 568 328 568 318 L 568 298 Q 568 288 578 288 Z" stroke-miterlimit="10"/></g><g transform="translate(-222,-94) scale(1,1)"><g><path fill="none" stroke="none"/><text fill="#000000" stroke="none" font-family="Arial" font-size="13px" font-style="normal" font-weight="bold" text-decoration="none" x="572.5" y="306">Search Book</text></g></g><g transform="translate(-222,-94) scale(1,1)"><path fill="none" stroke="#000000" d="M 417 305 L 567 307" stroke-miterlimit="10"/></g><g transform="translate(-222,-94) scale(1,1)"><path fill="none" stroke="#000000" d="M 556.7821064558028 311.0736533381541 L 567 307 L 556.894350285844 302.6553660850679" stroke-miterlimit="10"/></g><g transform="translate(-222,-94) scale(1,1)"><g><path fill="none" stroke="none"/><text fill="#000000" stroke="none" font-family="Arial" font-size="13px" font-style="normal" font-weight="normal" text-decoration="none" x="468.67138671875" y="296">[Click 5]</text></g></g><g transform="translate(-222,-94) scale(1,1)"><path fill="#C0C0C0" stroke="none" d="M 585 391 L 645.2841796875 391 Q 655.2841796875 391 655.2841796875 401 L 655.2841796875 421 Q 655.2841796875 431 645.2841796875 431 L 585 431 Q 575 431 575 421 L 575 401 Q 575 391 585 391 Z" opacity="0.2"/></g><g transform="translate(-222,-94) scale(1,1)"><path fill="#ffffff" stroke="none" d="M 578 384 L 638.2841796875 384 Q 648.2841796875 384 648.2841796875 394 L 648.2841796875 414 Q 648.2841796875 424 638.2841796875 424 L 578 424 Q 568 424 568 414 L 568 394 Q 568 384 578 384 Z"/></g><g transform="translate(-222,-94) scale(1,1)"><path fill="none" stroke="#000000" d="M 578 384 L 638.2841796875 384 Q 648.2841796875 384 648.2841796875 394 L 648.2841796875 414 Q 648.2841796875 424 638.2841796875 424 L 578 424 Q 568 424 568 414 L 568 394 Q 568 384 578 384 Z" stroke-miterlimit="10"/></g><g transform="translate(-222,-94) scale(1,1)"><g><path fill="none" stroke="none"/><text fill="#000000" stroke="none" font-family="Arial" font-size="13px" font-style="normal" font-weight="bold" text-decoration="none" x="572.5" y="402">Write Name</text></g></g><g transform="translate(-222,-94) scale(1,1)"><path fill="#C0C0C0" stroke="none" d="M 583 495.5 L 619.5 471 L 655 495.5 L 619.5 519 L 583 495.5" opacity="0.2"/></g><g transform="translate(-222,-94) scale(1,1)"><path fill="#ffffff" stroke="none" d="M 576 488 L 612 464 L 648 488 L 612 512 L 576 488"/></g><g transform="translate(-222,-94) scale(1,1)"><path fill="none" stroke="#000000" d="M 576 488 L 612 464 L 648 488 L 612 512 L 576 488 L 576 488" stroke-miterlimit="10"/></g><g transform="translate(-222,-94) scale(1,1)"><path fill="#C0C0C0" stroke="none" d="M 569 607 L 675.01904296875 607 Q 685.01904296875 607 685.01904296875 617 L 685.01904296875 637 Q 685.01904296875 647 675.01904296875 647 L 569 647 Q 559 647 559 637 L 559 617 Q 559 607 569 607 Z" opacity="0.2"/></g><g transform="translate(-222,-94) scale(1,1)"><path fill="#ffffff" stroke="none" d="M 562 600 L 668.01904296875 600 Q 678.01904296875 600 678.01904296875 610 L 678.01904296875 630 Q 678.01904296875 640 668.01904296875 640 L 562 640 Q 552 640 552 630 L 552 610 Q 552 600 562 600 Z"/></g><g transform="translate(-222,-94) scale(1,1)"><path fill="none" stroke="#000000" d="M 562 600 L 668.01904296875 600 Q 678.01904296875 600 678.01904296875 610 L 678.01904296875 630 Q 678.01904296875 640 668.01904296875 640 L 562 640 Q 552 640 552 630 L 552 610 Q 552 600 562 600 Z" stroke-miterlimit="10"/></g><g transform="translate(-222,-94) scale(1,1)"><g><path fill="none" stroke="none"/><text fill="#000000" stroke="none" font-family="Arial" font-size="13px" font-style="normal" font-weight="bold" text-decoration="none" x="556.5" y="618">Show Book Details</text></g></g><g transform="translate(-222,-94) scale(1,1)"><path fill="none" stroke="#000000" d="M 613 513 L 615 599" stroke-miterlimit="10"/></g><g transform="translate(-222,-94) scale(1,1)"><path fill="none" stroke="#000000" d="M 610.5553427141674 588.9379414824056 L 615 599 L 618.9721025036246 588.7422028826506" stroke-miterlimit="10"/></g><g transform="translate(-222,-94) scale(1,1)"><g><path fill="none" stroke="none"/><text fill="#000000" stroke="none" font-family="Arial" font-size="13px" font-style="normal" font-weight="normal" text-decoration="none" x="605.5" y="560">[Found]</text></g></g><g transform="translate(-222,-94) scale(1,1)"><path fill="#C0C0C0" stroke="none" d="M 721 479 L 871.0654296875 479 Q 881.0654296875 479 881.0654296875 489 L 881.0654296875 509 Q 881.0654296875 519 871.0654296875 519 L 721 519 Q 711 519 711 509 L 711 489 Q 711 479 721 479 Z" opacity="0.2"/></g><g transform="translate(-222,-94) scale(1,1)"><path fill="#ffffff" stroke="none" d="M 714 472 L 864.0654296875 472 Q 874.0654296875 472 874.0654296875 482 L 874.0654296875 502 Q 874.0654296875 512 864.0654296875 512 L 714 512 Q 704 512 704 502 L 704 482 Q 704 472 714 472 Z"/></g><g transform="translate(-222,-94) scale(1,1)"><path fill="none" stroke="#000000" d="M 714 472 L 864.0654296875 472 Q 874.0654296875 472 874.0654296875 482 L 874.0654296875 502 Q 874.0654296875 512 864.0654296875 512 L 714 512 Q 704 512 704 502 L 704 482 Q 704 472 714 472 Z" stroke-miterlimit="10"/></g><g transform="translate(-222,-94) scale(1,1)"><g><path fill="none" stroke="none"/><text fill="#000000" stroke="none" font-family="Arial" font-size="13px" font-style="normal" font-weight="bold" text-decoration="none" x="708.5" y="490">Show not Found message</text></g></g><g transform="translate(-222,-94) scale(1,1)"><path fill="none" stroke="#000000" d="M 649 489 L 703 490" stroke-miterlimit="10"/></g><g transform="translate(-222,-94) scale(1,1)"><path fill="none" stroke="#000000" d="M 692.7611265960943 494.02063072400256 L 703 490 L 692.9170079347986 485.6030384339769" stroke-miterlimit="10"/></g><g transform="translate(-222,-94) scale(1,1)"><g><path fill="none" stroke="none"/><text fill="#000000" stroke="none" font-family="Arial" font-size="13px" font-style="normal" font-weight="normal" text-decoration="none" x="642.5" y="479">[Not Found]</text></g></g><g transform="translate(-222,-94) scale(1,1)"><path fill="#C0C0C0" stroke="none" d="M 767 630 L 802 607 L 836 630 L 802 652 L 767 630" opacity="0.2"/></g><g transform="translate(-222,-94) scale(1,1)"><path fill="#ffffff" stroke="none" d="M 760 622.5 L 794.5 600 L 829 622.5 L 794.5 645 L 760 622.5"/></g><g transform="translate(-222,-94) scale(1,1)"><path fill="none" stroke="#000000" d="M 760 622.5 L 794.5 600 L 829 622.5 L 794.5 645 L 760 622.5 L 760 622.5" stroke-miterlimit="10"/></g><g transform="translate(-222,-94) scale(1,1)"><path fill="none" stroke="#000000" d="M 679 621 L 759 622" stroke-miterlimit="10"/></g><g transform="translate(-222,-94) scale(1,1)"><path fill="none" stroke="#000000" d="M 748.7855041467444 626.0821654135796 L 759 622 L 748.8907338698939 617.6637875616284" stroke-miterlimit="10"/></g><g transform="translate(-222,-94) scale(1,1)"><path fill="none" stroke="#000000" d="M 790 513 L 793 599" stroke-miterlimit="10"/></g><g transform="translate(-222,-94) scale(1,1)"><path fill="none" stroke="#000000" d="M 788.4387447230259 588.9902572311635 L 793 599 L 796.852662452706 588.6967484731514" stroke-miterlimit="10"/></g><g transform="translate(-222,-94) scale(1,1)"><path fill="none" stroke="#000000" d="M 611 329 L 609 383" stroke-miterlimit="10"/></g><g transform="translate(-222,-94) scale(1,1)"><path fill="none" stroke="#000000" d="M 605.1695039351113 372.6884870219316 L 609 383 L 613.582771008294 373.0000895061236" stroke-miterlimit="10"/></g><g transform="translate(-222,-94) scale(1,1)"><path fill="none" stroke="#000000" d="M 609 425 L 611 463" stroke-miterlimit="10"/></g><g transform="translate(-222,-94) scale(1,1)"><path fill="none" stroke="#000000" d="M 606.2621621840279 453.07261903473307 L 611 463 L 614.6695611521266 452.63012435220156" stroke-miterlimit="10"/></g><g transform="translate(-222,-94) scale(1,1)"><path fill="#C0C0C0" stroke="none" d="M 463 707.5 L 487.5 687 L 511 707.5 L 487.5 727 L 463 707.5" opacity="0.2"/></g><g transform="translate(-222,-94) scale(1,1)"><path fill="#ffffff" stroke="none" d="M 456 700 L 480 680 L 504 700 L 480 720 L 456 700"/></g><g transform="translate(-222,-94) scale(1,1)"><path fill="none" stroke="#000000" d="M 456 700 L 480 680 L 504 700 L 480 720 L 456 700 L 456 700" stroke-miterlimit="10"/></g><g transform="translate(-222,-94) scale(1,1)"><path fill="none" stroke="#000000" d="M 776 645 L 776 686 M 776 686 A 8 8 0 0 1 768 694 L 504 694" stroke-miterlimit="10"/></g><g transform="translate(-222,-94) scale(1,1)"><path fill="none" stroke="#000000" d="M 514.1626748576241 689.790482243984 L 504 694 L 514.1626748576241 698.209517756016" stroke-miterlimit="10"/></g><g transform="translate(-222,-94) scale(1,1)"><path fill="none" stroke="#000000" d="M 391 440 L 391 689 M 391 689 A 8 8 0 0 0 399 697 L 456 697" stroke-miterlimit="10"/></g><g transform="translate(-222,-94) scale(1,1)"><path fill="none" stroke="#000000" d="M 445.83732514237585 701.209517756016 L 456 697 L 445.83732514237585 692.790482243984" stroke-miterlimit="10"/></g><g transform="translate(-222,-94) scale(1,1)"><path fill="none" stroke="#000000" d="M 456 712 L 240 712 M 240 712 A 8 8 0 0 1 232 704 L 232 216 M 232 216 A 8 8 0 0 1 240 208 L 320 208" stroke-miterlimit="10"/></g><g transform="translate(-222,-94) scale(1,1)"><path fill="none" stroke="#000000" d="M 309.83732514237585 212.209517756016 L 320 208 L 309.83732514237585 203.790482243984" stroke-miterlimit="10"/></g></g></svg>