<svg version="1.1" xmlns="http://www.w3.org/2000/svg" xmlns:xlink="http://www.w3.org/1999/xlink" width="908" height="556"><defs/><g><text fill="#eeeeee" stroke="none" font-family="Arial" font-size="24px" font-style="normal" font-weight="normal" text-decoration="none" x="0" y="0">UNREGISTERED</text><text fill="#eeeeee" stroke="none" font-family="Arial" font-size="24px" font-style="normal" font-weight="normal" text-decoration="none" x="0" y="30">UNREGISTERED</text><text fill="#eeeeee" stroke="none" font-family="Arial" font-size="24px" font-style="normal" font-weight="normal" text-decoration="none" x="0" y="60">UNREGISTERED</text><text fill="#eeeeee" stroke="none" font-family="Arial" font-size="24px" font-style="normal" font-weight="normal" text-decoration="none" x="0" y="90">UNREGISTERED</text><text fill="#eeeeee" stroke="none" font-family="Arial" font-size="24px" font-style="normal" font-weight="normal" text-decoration="none" x="0" y="120">UNREGISTERED</text><text fill="#eeeeee" stroke="none" font-family="Arial" font-size="24px" font-style="normal" font-weight="normal" text-decoration="none" x="0" y="150">UNREGISTERED</text><text fill="#eeeeee" stroke="none" font-family="Arial" font-size="24px" font-style="normal" font-weight="normal" text-decoration="none" x="0" y="180">UNREGISTERED</text><text fill="#eeeeee" stroke="none" font-family="Arial" font-size="24px" font-style="normal" font-weight="normal" text-decoration="none" x="0" y="210">UNREGISTERED</text><text fill="#eeeeee" stroke="none" font-family="Arial" font-size="24px" font-style="normal" font-weight="normal" text-decoration="none" x="0" y="240">UNREGISTERED</text><text fill="#eeeeee" stroke="none" font-family="Arial" font-size="24px" font-style="normal" font-weight="normal" text-decoration="none" x="0" y="270">UNREGISTERED</text><text fill="#eeeeee" stroke="none" font-family="Arial" font-size="24px" font-style="normal" font-weight="normal" text-decoration="none" x="0" y="300">UNREGISTERED</text><text fill="#eeeeee" stroke="none" font-family="Arial" font-size="24px" font-style="normal" font-weight="normal" text-decoration="none" x="0" y="330">UNREGISTERED</text><text fill="#eeeeee" stroke="none" font-family="Arial" font-size="24px" font-style="normal" font-weight="normal" text-decoration="none" x="0" y="360">UNREGISTERED</text><text fill="#eeeeee" stroke="none" font-family="Arial" font-size="24px" font-style="normal" font-weight="normal" text-decoration="none" x="0" y="390">UNREGISTERED</text><text fill="#eeeeee" stroke="none" font-family="Arial" font-size="24px" font-style="normal" font-weight="normal" text-decoration="none" x="0" y="420">UNREGISTERED</text><text fill="#eeeeee" stroke="none" font-family="Arial" font-size="24px" font-style="normal" font-weight="normal" text-decoration="none" x="0" y="450">UNREGISTERED</text><text fill="#eeeeee" stroke="none" font-family="Arial" font-size="24px" font-style="normal" font-weight="normal" text-decoration="none" x="0" y="480">UNREGISTERED</text><text fill="#eeeeee" stroke="none" font-family="Arial" font-size="24px" font-style="normal" font-weight="normal" text-decoration="none" x="0" y="510">UNREGISTERED</text><text fill="#eeeeee" stroke="none" font-family="Arial" font-size="24px" font-style="normal" font-weight="normal" text-decoration="none" x="0" y="540">UNREGISTERED</text><text fill="#eeeeee" stroke="none" font-family="Arial" font-size="24px" font-style="normal" font-weight="normal" text-decoration="none" x="200" y="0">UNREGISTERED</text><text fill="#eeeeee" stroke="none" font-family="Arial" font-size="24px" font-style="normal" font-weight="normal" text-decoration="none" x="200" y="30">UNREGISTERED</text><text fill="#eeeeee" stroke="none" font-family="Arial" font-size="24px" font-style="normal" font-weight="normal" text-decoration="none" x="200" y="60">UNREGISTERED</text><text fill="#eeeeee" stroke="none" font-family="Arial" font-size="24px" font-style="normal" font-weight="normal" text-decoration="none" x="200" y="90">UNREGISTERED</text><text fill="#eeeeee" stroke="none" font-family="Arial" font-size="24px" font-style="normal" font-weight="normal" text-decoration="none" x="200" y="120">UNREGISTERED</text><text fill="#eeeeee" stroke="none" font-family="Arial" font-size="24px" font-style="normal" font-weight="normal" text-decoration="none" x="200" y="150">UNREGISTERED</text><text fill="#eeeeee" stroke="none" font-family="Arial" font-size="24px" font-style="normal" font-weight="normal" text-decoration="none" x="200" y="180">UNREGISTERED</text><text fill="#eeeeee" stroke="none" font-family="Arial" font-size="24px" font-style="normal" font-weight="normal" text-decoration="none" x="200" y="210">UNREGISTERED</text><text fill="#eeeeee" stroke="none" font-family="Arial" font-size="24px" font-style="normal" font-weight="normal" text-decoration="none" x="200" y="240">UNREGISTERED</text><text fill="#eeeeee" stroke="none" font-family="Arial" font-size="24px" font-style="normal" font-weight="normal" text-decoration="none" x="200" y="270">UNREGISTERED</text><text fill="#eeeeee" stroke="none" font-family="Arial" font-size="24px" font-style="normal" font-weight="normal" text-decoration="none" x="200" y="300">UNREGISTERED</text><text fill="#eeeeee" stroke="none" font-family="Arial" font-size="24px" font-style="normal" font-weight="normal" text-decoration="none" x="200" y="330">UNREGISTERED</text><text fill="#eeeeee" stroke="none" font-family="Arial" font-size="24px" font-style="normal" font-weight="normal" text-decoration="none" x="200" y="360">UNREGISTERED</text><text fill="#eeeeee" stroke="none" font-family="Arial" font-size="24px" font-style="normal" font-weight="normal" text-decoration="none" x="200" y="390">UNREGISTERED</text><text fill="#eeeeee" stroke="none" font-family="Arial" font-size="24px" font-style="normal" font-weight="normal" text-decoration="none" x="200" y="420">UNREGISTERED</text><text fill="#eeeeee" stroke="none" font-family="Arial" font-size="24px" font-style="normal" font-weight="normal" text-decoration="none" x="200" y="450">UNREGISTERED</text><text fill="#eeeeee" stroke="none" font-family="Arial" font-size="24px" font-style="normal" font-weight="normal" text-decoration="none" x="200" y="480">UNREGISTERED</text><text fill="#eeeeee" stroke="none" font-family="Arial" font-size="24px" font-style="normal" font-weight="normal" text-decoration="none" x="200" y="510">UNREGISTERED</text><text fill="#eeeeee" stroke="none" font-family="Arial" font-size="24px" font-style="normal" font-weight="normal" text-decoration="none" x="200" y="540">UNREGISTERED</text><text fill="#eeeeee" stroke="none" font-family="Arial" font-size="24px" font-style="normal" font-weight="normal" text-decoration="none" x="400" y="0">UNREGISTERED</text><text fill="#eeeeee" stroke="none" font-family="Arial" font-size="24px" font-style="normal" font-weight="normal" text-decoration="none" x="400" y="30">UNREGISTERED</text><text fill="#eeeeee" stroke="none" font-family="Arial" font-size="24px" font-style="normal" font-weight="normal" text-decoration="none" x="400" y="60">UNREGISTERED</text><text fill="#eeeeee" stroke="none" font-family="Arial" font-size="24px" font-style="normal" font-weight="normal" text-decoration="none" x="400" y="90">UNREGISTERED</text><text fill="#eeeeee" stroke="none" font-family="Arial" font-size="24px" font-style="normal" font-weight="normal" text-decoration="none" x="400" y="120">UNREGISTERED</text><text fill="#eeeeee" stroke="none" font-family="Arial" font-size="24px" font-style="normal" font-weight="normal" text-decoration="none" x="400" y="150">UNREGISTERED</text><text fill="#eeeeee" stroke="none" font-family="Arial" font-size="24px" font-style="normal" font-weight="normal" text-decoration="none" x="400" y="180">UNREGISTERED</text><text fill="#eeeeee" stroke="none" font-family="Arial" font-size="24px" font-style="normal" font-weight="normal" text-decoration="none" x="400" y="210">UNREGISTERED</text><text fill="#eeeeee" stroke="none" font-family="Arial" font-size="24px" font-style="normal" font-weight="normal" text-decoration="none" x="400" y="240">UNREGISTERED</text><text fill="#eeeeee" stroke="none" font-family="Arial" font-size="24px" font-style="normal" font-weight="normal" text-decoration="none" x="400" y="270">UNREGISTERED</text><text fill="#eeeeee" stroke="none" font-family="Arial" font-size="24px" font-style="normal" font-weight="normal" text-decoration="none" x="400" y="300">UNREGISTERED</text><text fill="#eeeeee" stroke="none" font-family="Arial" font-size="24px" font-style="normal" font-weight="normal" text-decoration="none" x="400" y="330">UNREGISTERED</text><text fill="#eeeeee" stroke="none" font-family="Arial" font-size="24px" font-style="normal" font-weight="normal" text-decoration="none" x="400" y="360">UNREGISTERED</text><text fill="#eeeeee" stroke="none" font-family="Arial" font-size="24px" font-style="normal" font-weight="normal" text-decoration="none" x="400" y="390">UNREGISTERED</text><text fill="#eeeeee" stroke="none" font-family="Arial" font-size="24px" font-style="normal" font-weight="normal" text-decoration="none" x="400" y="420">UNREGISTERED</text><text fill="#eeeeee" stroke="none" font-family="Arial" font-size="24px" font-style="normal" font-weight="normal" text-decoration="none" x="400" y="450">UNREGISTERED</text><text fill="#eeeeee" stroke="none" font-family="Arial" font-size="24px" font-style="normal" font-weight="normal" text-decoration="none" x="400" y="480">UNREGISTERED</text><text fill="#eeeeee" stroke="none" font-family="Arial" font-size="24px" font-style="normal" font-weight="normal" text-decoration="none" x="400" y="510">UNREGISTERED</text><text fill="#eeeeee" stroke="none" font-family="Arial" font-size="24px" font-style="normal" font-weight="normal" text-decoration="none" x="400" y="540">UNREGISTERED</text><text fill="#eeeeee" stroke="none" font-family="Arial" font-size="24px" font-style="normal" font-weight="normal" text-decoration="none" x="600" y="0">UNREGISTERED</text><text fill="#eeeeee" stroke="none" font-family="Arial" font-size="24px" font-style="normal" font-weight="normal" text-decoration="none" x="600" y="30">UNREGISTERED</text><text fill="#eeeeee" stroke="none" font-family="Arial" font-size="24px" font-style="normal" font-weight="normal" text-decoration="none" x="600" y="60">UNREGISTERED</text><text fill="#eeeeee" stroke="none" font-family="Arial" font-size="24px" font-style="normal" font-weight="normal" text-decoration="none" x="600" y="90">UNREGISTERED</text><text fill="#eeeeee" stroke="none" font-family="Arial" font-size="24px" font-style="normal" font-weight="normal" text-decoration="none" x="600" y="120">UNREGISTERED</text><text fill="#eeeeee" stroke="none" font-family="Arial" font-size="24px" font-style="normal" font-weight="normal" text-decoration="none" x="600" y="150">UNREGISTERED</text><text fill="#eeeeee" stroke="none" font-family="Arial" font-size="24px" font-style="normal" font-weight="normal" text-decoration="none" x="600" y="180">UNREGISTERED</text><text fill="#eeeeee" stroke="none" font-family="Arial" font-size="24px" font-style="normal" font-weight="normal" text-decoration="none" x="600" y="210">UNREGISTERED</text><text fill="#eeeeee" stroke="none" font-family="Arial" font-size="24px" font-style="normal" font-weight="normal" text-decoration="none" x="600" y="240">UNREGISTERED</text><text fill="#eeeeee" stroke="none" font-family="Arial" font-size="24px" font-style="normal" font-weight="normal" text-decoration="none" x="600" y="270">UNREGISTERED</text><text fill="#eeeeee" stroke="none" font-family="Arial" font-size="24px" font-style="normal" font-weight="normal" text-decoration="none" x="600" y="300">UNREGISTERED</text><text fill="#eeeeee" stroke="none" font-family="Arial" font-size="24px" font-style="normal" font-weight="normal" text-decoration="none" x="600" y="330">UNREGISTERED</text><text fill="#eeeeee" stroke="none" font-family="Arial" font-size="24px" font-style="normal" font-weight="normal" text-decoration="none" x="600" y="360">UNREGISTERED</text><text fill="#eeeeee" stroke="none" font-family="Arial" font-size="24px" font-style="normal" font-weight="normal" text-decoration="none" x="600" y="390">UNREGISTERED</text><text fill="#eeeeee" stroke="none" font-family="Arial" font-size="24px" font-style="normal" font-weight="normal" text-decoration="none" x="600" y="420">UNREGISTERED</text><text fill="#eeeeee" stroke="none" font-family="Arial" font-size="24px" font-style="normal" font-weight="normal" text-decoration="none" x="600" y="450">UNREGISTERED</text><text fill="#eeeeee" stroke="none" font-family="Arial" font-size="24px" font-style="normal" font-weight="normal" text-decoration="none" x="600" y="480">UNREGISTERED</text><text fill="#eeeeee" stroke="none" font-family="Arial" font-size="24px" font-style="normal" font-weight="normal" text-decoration="none" x="600" y="510">UNREGISTERED</text><text fill="#eeeeee" stroke="none" font-family="Arial" font-size="24px" font-style="normal" font-weight="normal" text-decoration="none" x="600" y="540">UNREGISTERED</text><text fill="#eeeeee" stroke="none" font-family="Arial" font-size="24px" font-style="normal" font-weight="normal" text-decoration="none" x="800" y="0">UNREGISTERED</text><text fill="#eeeeee" stroke="none" font-family="Arial" font-size="24px" font-style="normal" font-weight="normal" text-decoration="none" x="800" y="30">UNREGISTERED</text><text fill="#eeeeee" stroke="none" font-family="Arial" font-size="24px" font-style="normal" font-weight="normal" text-decoration="none" x="800" y="60">UNREGISTERED</text><text fill="#eeeeee" stroke="none" font-family="Arial" font-size="24px" font-style="normal" font-weight="normal" text-decoration="none" x="800" y="90">UNREGISTERED</text><text fill="#eeeeee" stroke="none" font-family="Arial" font-size="24px" font-style="normal" font-weight="normal" text-decoration="none" x="800" y="120">UNREGISTERED</text><text fill="#eeeeee" stroke="none" font-family="Arial" font-size="24px" font-style="normal" font-weight="normal" text-decoration="none" x="800" y="150">UNREGISTERED</text><text fill="#eeeeee" stroke="none" font-family="Arial" font-size="24px" font-style="normal" font-weight="normal" text-decoration="none" x="800" y="180">UNREGISTERED</text><text fill="#eeeeee" stroke="none" font-family="Arial" font-size="24px" font-style="normal" font-weight="normal" text-decoration="none" x="800" y="210">UNREGISTERED</text><text fill="#eeeeee" stroke="none" font-family="Arial" font-size="24px" font-style="normal" font-weight="normal" text-decoration="none" x="800" y="240">UNREGISTERED</text><text fill="#eeeeee" stroke="none" font-family="Arial" font-size="24px" font-style="normal" font-weight="normal" text-decoration="none" x="800" y="270">UNREGISTERED</text><text fill="#eeeeee" stroke="none" font-family="Arial" font-size="24px" font-style="normal" font-weight="normal" text-decoration="none" x="800" y="300">UNREGISTERED</text><text fill="#eeeeee" stroke="none" font-family="Arial" font-size="24px" font-style="normal" font-weight="normal" text-decoration="none" x="800" y="330">UNREGISTERED</text><text fill="#eeeeee" stroke="none" font-family="Arial" font-size="24px" font-style="normal" font-weight="normal" text-decoration="none" x="800" y="360">UNREGISTERED</text><text fill="#eeeeee" stroke="none" font-family="Arial" font-size="24px" font-style="normal" font-weight="normal" text-decoration="none" x="800" y="390">UNREGISTERED</text><text fill="#eeeeee" stroke="none" font-family="Arial" font-size="24px" font-style="normal" font-weight="normal" text-decoration="none" x="800" y="420">UNREGISTERED</text><text fill="#eeeeee" stroke="none" font-family="Arial" font-size="24px" font-style="normal" font-weight="normal" text-decoration="none" x="800" y="450">UNREGISTERED</text><text fill="#eeeeee" stroke="none" font-family="Arial" font-size="24px" font-style="normal" font-weight="normal" text-decoration="none" x="800" y="480">UNREGISTERED</text><text fill="#eeeeee" stroke="none" font-family="Arial" font-size="24px" font-style="normal" font-weight="normal" text-decoration="none" x="800" y="510">UNREGISTERED</text><text fill="#eeeeee" stroke="none" font-family="Arial" font-size="24px" font-style="normal" font-weight="normal" text-decoration="none" x="800" y="540">UNREGISTERED</text><g transform="translate(10,-110) scale(1,1)"><path fill="#C0C0C0" stroke="none" d="M 231 168.5 C 231 163.2532944 238.1634432 159 247 159 C 255.8365568 159 263 163.2532944 263 168.5 C 263 173.7467056 255.8365568 178 247 178 C 238.1634432 178 231 173.7467056 231 168.5 Z" opacity="0.2"/></g><g transform="translate(10,-110) scale(1,1)"><path fill="#000000" stroke="none" d="M 224 161.5 C 224 156.2532944 231.1634432 152 240 152 C 248.8365568 152 256 156.2532944 256 161.5 C 256 166.7467056 248.8365568 171 240 171 C 231.1634432 171 224 166.7467056 224 161.5 Z"/></g><g transform="translate(10,-110) scale(1,1)"><path fill="#C0C0C0" stroke="none" d="M 223 243.5 L 247.5 223 L 271 243.5 L 247.5 263 L 223 243.5" opacity="0.2"/></g><g transform="translate(10,-110) scale(1,1)"><path fill="#ffffff" stroke="none" d="M 216 236 L 240 216 L 264 236 L 240 256 L 216 236"/></g><g transform="translate(10,-110) scale(1,1)"><path fill="none" stroke="#000000" d="M 216 236 L 240 216 L 264 236 L 240 256 L 216 236 L 216 236" stroke-miterlimit="10"/></g><g transform="translate(10,-110) scale(1,1)"><path fill="none" stroke="#000000" d="M 240 172 L 240 215" stroke-miterlimit="10"/></g><g transform="translate(10,-110) scale(1,1)"><path fill="none" stroke="#000000" d="M 235.790482243984 204.83732514237585 L 240 215 L 244.209517756016 204.83732514237585" stroke-miterlimit="10"/></g><g transform="translate(10,-110) scale(1,1)"><path fill="#C0C0C0" stroke="none" d="M 25 223 L 151.9853515625 223 Q 161.9853515625 223 161.9853515625 233 L 161.9853515625 253 Q 161.9853515625 263 151.9853515625 263 L 25 263 Q 15 263 15 253 L 15 233 Q 15 223 25 223 Z" opacity="0.2"/></g><g transform="translate(10,-110) scale(1,1)"><path fill="#ffffff" stroke="none" d="M 18 216 L 144.9853515625 216 Q 154.9853515625 216 154.9853515625 226 L 154.9853515625 246 Q 154.9853515625 256 144.9853515625 256 L 18 256 Q 8 256 8 246 L 8 226 Q 8 216 18 216 Z"/></g><g transform="translate(10,-110) scale(1,1)"><path fill="none" stroke="#000000" d="M 18 216 L 144.9853515625 216 Q 154.9853515625 216 154.9853515625 226 L 154.9853515625 246 Q 154.9853515625 256 144.9853515625 256 L 18 256 Q 8 256 8 246 L 8 226 Q 8 216 18 216 Z" stroke-miterlimit="10"/></g><g transform="translate(10,-110) scale(1,1)"><g><path fill="none" stroke="none"/><text fill="#000000" stroke="none" font-family="Arial" font-size="13px" font-style="normal" font-weight="bold" text-decoration="none" x="12.5" y="234">Display Register Form</text></g></g><g transform="translate(10,-110) scale(1,1)"><path fill="none" stroke="#000000" d="M 215 236 L 156 236" stroke-miterlimit="10"/></g><g transform="translate(10,-110) scale(1,1)"><path fill="none" stroke="#000000" d="M 166.16267485762415 231.790482243984 L 156 236 L 166.16267485762415 240.209517756016" stroke-miterlimit="10"/></g><g transform="translate(10,-110) scale(1,1)"><g><path fill="none" stroke="none"/><text fill="#000000" stroke="none" font-family="Arial" font-size="13px" font-style="normal" font-weight="normal" text-decoration="none" x="151.5" y="226">[New User]</text></g></g><g transform="translate(10,-110) scale(1,1)"><path fill="#C0C0C0" stroke="none" d="M 353 223 L 463.341796875 223 Q 473.341796875 223 473.341796875 233 L 473.341796875 253 Q 473.341796875 263 463.341796875 263 L 353 263 Q 343 263 343 253 L 343 233 Q 343 223 353 223 Z" opacity="0.2"/></g><g transform="translate(10,-110) scale(1,1)"><path fill="#ffffff" stroke="none" d="M 346 216 L 456.341796875 216 Q 466.341796875 216 466.341796875 226 L 466.341796875 246 Q 466.341796875 256 456.341796875 256 L 346 256 Q 336 256 336 246 L 336 226 Q 336 216 346 216 Z"/></g><g transform="translate(10,-110) scale(1,1)"><path fill="none" stroke="#000000" d="M 346 216 L 456.341796875 216 Q 466.341796875 216 466.341796875 226 L 466.341796875 246 Q 466.341796875 256 456.341796875 256 L 346 256 Q 336 256 336 246 L 336 226 Q 336 216 346 216 Z" stroke-miterlimit="10"/></g><g transform="translate(10,-110) scale(1,1)"><g><path fill="none" stroke="none"/><text fill="#000000" stroke="none" font-family="Arial" font-size="13px" font-style="normal" font-weight="bold" text-decoration="none" x="340.5" y="234">Display Login Form</text></g></g><g transform="translate(10,-110) scale(1,1)"><path fill="none" stroke="#000000" d="M 265 236 L 335 236" stroke-miterlimit="10"/></g><g transform="translate(10,-110) scale(1,1)"><path fill="none" stroke="#000000" d="M 324.83732514237585 240.209517756016 L 335 236 L 324.83732514237585 231.790482243984" stroke-miterlimit="10"/></g><g transform="translate(10,-110) scale(1,1)"><g><path fill="none" stroke="none"/><text fill="#000000" stroke="none" font-family="Arial" font-size="13px" font-style="normal" font-weight="normal" text-decoration="none" x="270.5" y="219">[Old User]</text></g></g><g transform="translate(10,-110) scale(1,1)"><rect fill="#ffffff" stroke="none" x="0" y="120" width="488" height="21"/></g><g transform="translate(10,-110) scale(1,1)"><path fill="none" stroke="#000000" d="M 0 120 L 488 120 L 488 141 L 0 141 L 0 120 Z Z" stroke-miterlimit="10" stroke-width="2"/></g><g transform="translate(10,-110) scale(1,1)"><path fill="none" stroke="#000000" d="M 0 656 L 0 120 L 488 120 L 488 656" stroke-miterlimit="10" stroke-width="2"/></g><g transform="translate(10,-110) scale(1,1)"><g><path fill="none" stroke="none"/><text fill="#000000" stroke="none" font-family="Arial" font-size="13px" font-style="normal" font-weight="normal" text-decoration="none" x="230.2763671875" y="134">User</text></g></g><g transform="translate(10,-110) scale(1,1)"><path fill="#C0C0C0" stroke="none" d="M 553 367 L 666.24267578125 367 Q 676.24267578125 367 676.24267578125 377 L 676.24267578125 397 Q 676.24267578125 407 666.24267578125 407 L 553 407 Q 543 407 543 397 L 543 377 Q 543 367 553 367 Z" opacity="0.2"/></g><g transform="translate(10,-110) scale(1,1)"><path fill="#ffffff" stroke="none" d="M 546 360 L 659.24267578125 360 Q 669.24267578125 360 669.24267578125 370 L 669.24267578125 390 Q 669.24267578125 400 659.24267578125 400 L 546 400 Q 536 400 536 390 L 536 370 Q 536 360 546 360 Z"/></g><g transform="translate(10,-110) scale(1,1)"><path fill="none" stroke="#000000" d="M 546 360 L 659.24267578125 360 Q 669.24267578125 360 669.24267578125 370 L 669.24267578125 390 Q 669.24267578125 400 659.24267578125 400 L 546 400 Q 536 400 536 390 L 536 370 Q 536 360 546 360 Z" stroke-miterlimit="10"/></g><g transform="translate(10,-110) scale(1,1)"><g><path fill="none" stroke="none"/><text fill="#000000" stroke="none" font-family="Arial" font-size="13px" font-style="normal" font-weight="bold" text-decoration="none" x="540.5" y="378">Validate Information</text></g></g><g transform="translate(10,-110) scale(1,1)"><path fill="#C0C0C0" stroke="none" d="M 25 359 L 148.341796875 359 Q 158.341796875 359 158.341796875 369 L 158.341796875 389 Q 158.341796875 399 148.341796875 399 L 25 399 Q 15 399 15 389 L 15 369 Q 15 359 25 359 Z" opacity="0.2"/></g><g transform="translate(10,-110) scale(1,1)"><path fill="#ffffff" stroke="none" d="M 18 352 L 141.341796875 352 Q 151.341796875 352 151.341796875 362 L 151.341796875 382 Q 151.341796875 392 141.341796875 392 L 18 392 Q 8 392 8 382 L 8 362 Q 8 352 18 352 Z"/></g><g transform="translate(10,-110) scale(1,1)"><path fill="none" stroke="#000000" d="M 18 352 L 141.341796875 352 Q 151.341796875 352 151.341796875 362 L 151.341796875 382 Q 151.341796875 392 141.341796875 392 L 18 392 Q 8 392 8 382 L 8 362 Q 8 352 18 352 Z" stroke-miterlimit="10"/></g><g transform="translate(10,-110) scale(1,1)"><g><path fill="none" stroke="none"/><text fill="#000000" stroke="none" font-family="Arial" font-size="13px" font-style="normal" font-weight="bold" text-decoration="none" x="12.5" y="370">Fill Registration Form</text></g></g><g transform="translate(10,-110) scale(1,1)"><path fill="#C0C0C0" stroke="none" d="M 361 287 L 443.87548828125 287 Q 453.87548828125 287 453.87548828125 297 L 453.87548828125 317 Q 453.87548828125 327 443.87548828125 327 L 361 327 Q 351 327 351 317 L 351 297 Q 351 287 361 287 Z" opacity="0.2"/></g><g transform="translate(10,-110) scale(1,1)"><path fill="#ffffff" stroke="none" d="M 354 280 L 436.87548828125 280 Q 446.87548828125 280 446.87548828125 290 L 446.87548828125 310 Q 446.87548828125 320 436.87548828125 320 L 354 320 Q 344 320 344 310 L 344 290 Q 344 280 354 280 Z"/></g><g transform="translate(10,-110) scale(1,1)"><path fill="none" stroke="#000000" d="M 354 280 L 436.87548828125 280 Q 446.87548828125 280 446.87548828125 290 L 446.87548828125 310 Q 446.87548828125 320 436.87548828125 320 L 354 320 Q 344 320 344 310 L 344 290 Q 344 280 354 280 Z" stroke-miterlimit="10"/></g><g transform="translate(10,-110) scale(1,1)"><g><path fill="none" stroke="none"/><text fill="#000000" stroke="none" font-family="Arial" font-size="13px" font-style="normal" font-weight="bold" text-decoration="none" x="348.5" y="298">Fill Login Form</text></g></g><g transform="translate(10,-110) scale(1,1)"><path fill="none" stroke="#000000" d="M 81 257 L 79 351" stroke-miterlimit="10"/></g><g transform="translate(10,-110) scale(1,1)"><path fill="none" stroke="#000000" d="M 75.0076129302576 340.7500807083493 L 79 351 L 83.4247434676047 340.9291685921226" stroke-miterlimit="10"/></g><g transform="translate(10,-110) scale(1,1)"><path fill="none" stroke="#000000" d="M 399 257 L 397 279" stroke-miterlimit="10"/></g><g transform="translate(10,-110) scale(1,1)"><path fill="none" stroke="#000000" d="M 393.72785521430103 268.49794931923185 L 397 279 L 402.11231548574403 269.2601729802721" stroke-miterlimit="10"/></g><g transform="translate(10,-110) scale(1,1)"><rect fill="#ffffff" stroke="none" x="488" y="120" width="400" height="21"/></g><g transform="translate(10,-110) scale(1,1)"><path fill="none" stroke="#000000" d="M 488 120 L 888 120 L 888 141 L 488 141 L 488 120 Z Z" stroke-miterlimit="10" stroke-width="2"/></g><g transform="translate(10,-110) scale(1,1)"><path fill="none" stroke="#000000" d="M 488 656 L 488 120 L 888 120 L 888 656" stroke-miterlimit="10" stroke-width="2"/></g><g transform="translate(10,-110) scale(1,1)"><g><path fill="none" stroke="none"/><text fill="#000000" stroke="none" font-family="Arial" font-size="13px" font-style="normal" font-weight="normal" text-decoration="none" x="666.3291015625" y="134">System</text></g></g><g transform="translate(10,-110) scale(1,1)"><path fill="#C0C0C0" stroke="none" d="M 583 455.5 L 606 431 L 628 455.5 L 606 479 L 583 455.5" opacity="0.2"/></g><g transform="translate(10,-110) scale(1,1)"><path fill="#ffffff" stroke="none" d="M 576 448 L 598.5 424 L 621 448 L 598.5 472 L 576 448"/></g><g transform="translate(10,-110) scale(1,1)"><path fill="none" stroke="#000000" d="M 576 448 L 598.5 424 L 621 448 L 598.5 472 L 576 448 L 576 448" stroke-miterlimit="10"/></g><g transform="translate(10,-110) scale(1,1)"><path fill="#C0C0C0" stroke="none" d="M 49 535 L 141 535 Q 151 535 151 545 L 151 565 Q 151 575 141 575 L 49 575 Q 39 575 39 565 L 39 545 Q 39 535 49 535 Z" opacity="0.2"/></g><g transform="translate(10,-110) scale(1,1)"><path fill="#ffffff" stroke="none" d="M 42 528 L 134 528 Q 144 528 144 538 L 144 558 Q 144 568 134 568 L 42 568 Q 32 568 32 558 L 32 538 Q 32 528 42 528 Z"/></g><g transform="translate(10,-110) scale(1,1)"><path fill="none" stroke="#000000" d="M 42 528 L 134 528 Q 144 528 144 538 L 144 558 Q 144 568 134 568 L 42 568 Q 32 568 32 558 L 32 538 Q 32 528 42 528 Z" stroke-miterlimit="10"/></g><g transform="translate(10,-110) scale(1,1)"><g><path fill="none" stroke="none"/><text fill="#000000" stroke="none" font-family="Arial" font-size="13px" font-style="normal" font-weight="bold" text-decoration="none" x="47.17822265625" y="546">show system</text></g></g><g transform="translate(10,-110) scale(1,1)"><path fill="none" stroke="#000000" d="M 601 401 L 599 423" stroke-miterlimit="10"/></g><g transform="translate(10,-110) scale(1,1)"><path fill="none" stroke="#000000" d="M 595.727855214301 412.49794931923185 L 599 423 L 604.112315485744 413.2601729802721" stroke-miterlimit="10"/></g><g transform="translate(10,-110) scale(1,1)"><path fill="none" stroke="#000000" d="M 621 448 L 704 448 M 704 448 A 8 8 0 0 0 712 440 L 712 320 M 712 320 A 8 8 0 0 0 704 312 L 447 312" stroke-miterlimit="10"/></g><g transform="translate(10,-110) scale(1,1)"><path fill="none" stroke="#000000" d="M 457.16267485762415 307.790482243984 L 447 312 L 457.16267485762415 316.209517756016" stroke-miterlimit="10"/></g><g transform="translate(10,-110) scale(1,1)"><g><path fill="none" stroke="none"/><text fill="#000000" stroke="none" font-family="Arial" font-size="13px" font-style="normal" font-weight="normal" text-decoration="none" x="621.776123046875" y="435">[Valid info]</text></g></g><g transform="translate(10,-110) scale(1,1)"><path fill="#C0C0C0" stroke="none" d="M 49 447 L 166.59716796875 447 Q 176.59716796875 447 176.59716796875 457 L 176.59716796875 484 Q 176.59716796875 494 166.59716796875 494 L 49 494 Q 39 494 39 484 L 39 457 Q 39 447 49 447 Z" opacity="0.2"/></g><g transform="translate(10,-110) scale(1,1)"><path fill="#ffffff" stroke="none" d="M 42 440 L 159.59716796875 440 Q 169.59716796875 440 169.59716796875 450 L 169.59716796875 477 Q 169.59716796875 487 159.59716796875 487 L 42 487 Q 32 487 32 477 L 32 450 Q 32 440 42 440 Z"/></g><g transform="translate(10,-110) scale(1,1)"><path fill="none" stroke="#000000" d="M 42 440 L 159.59716796875 440 Q 169.59716796875 440 169.59716796875 450 L 169.59716796875 477 Q 169.59716796875 487 159.59716796875 487 L 42 487 Q 32 487 32 477 L 32 450 Q 32 440 42 440 Z" stroke-miterlimit="10"/></g><g transform="translate(10,-110) scale(1,1)"><g><path fill="none" stroke="none"/><text fill="#000000" stroke="none" font-family="Arial" font-size="13px" font-style="normal" font-weight="bold" text-decoration="none" x="36.5" y="458">Show Error Message</text></g></g><g transform="translate(10,-110) scale(1,1)"><path fill="none" stroke="#000000" d="M 576 447 L 170 447" stroke-miterlimit="10"/></g><g transform="translate(10,-110) scale(1,1)"><path fill="none" stroke="#000000" d="M 180.16267485762415 442.790482243984 L 170 447 L 180.16267485762415 451.209517756016" stroke-miterlimit="10"/></g><g transform="translate(10,-110) scale(1,1)"><g><path fill="none" stroke="none"/><text fill="#000000" stroke="none" font-family="Arial" font-size="13px" font-style="normal" font-weight="normal" text-decoration="none" x="492.647705078125" y="427">[Not valid]</text></g></g><g transform="translate(10,-110) scale(1,1)"><path fill="none" stroke="#000000" d="M 151 376 L 536 376" stroke-miterlimit="10"/></g><g transform="translate(10,-110) scale(1,1)"><path fill="none" stroke="#000000" d="M 525.8373251423759 380.209517756016 L 536 376 L 525.8373251423758 371.790482243984" stroke-miterlimit="10"/></g><g transform="translate(10,-110) scale(1,1)"><path fill="#C0C0C0" stroke="none" d="M 665 255 L 861.365234375 255 Q 871.365234375 255 871.365234375 265 L 871.365234375 285 Q 871.365234375 295 861.365234375 295 L 665 295 Q 655 295 655 285 L 655 265 Q 655 255 665 255 Z" opacity="0.2"/></g><g transform="translate(10,-110) scale(1,1)"><path fill="#ffffff" stroke="none" d="M 658 248 L 854.365234375 248 Q 864.365234375 248 864.365234375 258 L 864.365234375 278 Q 864.365234375 288 854.365234375 288 L 658 288 Q 648 288 648 278 L 648 258 Q 648 248 658 248 Z"/></g><g transform="translate(10,-110) scale(1,1)"><path fill="none" stroke="#000000" d="M 658 248 L 854.365234375 248 Q 864.365234375 248 864.365234375 258 L 864.365234375 278 Q 864.365234375 288 854.365234375 288 L 658 288 Q 648 288 648 278 L 648 258 Q 648 248 658 248 Z" stroke-miterlimit="10"/></g><g transform="translate(10,-110) scale(1,1)"><g><path fill="none" stroke="none"/><text fill="#000000" stroke="none" font-family="Arial" font-size="13px" font-style="normal" font-weight="bold" text-decoration="none" x="652.5" y="266">Validate Username and Password</text></g></g><g transform="translate(10,-110) scale(1,1)"><path fill="none" stroke="#000000" d="M 408 280 L 408 280 M 408 280 A 8 8 0 0 1 416 272 L 648 272" stroke-miterlimit="10"/></g><g transform="translate(10,-110) scale(1,1)"><path fill="none" stroke="#000000" d="M 637.8373251423759 276.209517756016 L 648 272 L 637.8373251423758 267.790482243984" stroke-miterlimit="10"/></g><g transform="translate(10,-110) scale(1,1)"><path fill="#C0C0C0" stroke="none" d="M 815 395.5 L 843.5 367 L 871 395.5 L 843.5 423 L 815 395.5" opacity="0.2"/></g><g transform="translate(10,-110) scale(1,1)"><path fill="#ffffff" stroke="none" d="M 808 388 L 836 360 L 864 388 L 836 416 L 808 388"/></g><g transform="translate(10,-110) scale(1,1)"><path fill="none" stroke="#000000" d="M 808 388 L 836 360 L 864 388 L 836 416 L 808 388 L 808 388" stroke-miterlimit="10"/></g><g transform="translate(10,-110) scale(1,1)"><path fill="none" stroke="#000000" d="M 836 416 L 836 528 M 836 528 A 8 8 0 0 1 828 536 L 144 536" stroke-miterlimit="10"/></g><g transform="translate(10,-110) scale(1,1)"><path fill="none" stroke="#000000" d="M 154.16267485762415 531.790482243984 L 144 536 L 154.16267485762415 540.209517756016" stroke-miterlimit="10"/></g><g transform="translate(10,-110) scale(1,1)"><g><path fill="none" stroke="none"/><text fill="#000000" stroke="none" font-family="Arial" font-size="13px" font-style="normal" font-weight="normal" text-decoration="none" x="838.966552734375" y="453">[Valid]</text></g></g><g transform="translate(10,-110) scale(1,1)"><path fill="none" stroke="#000000" d="M 808 376 L 752 376 M 752 376 A 8 8 0 0 0 744 384 L 744 488 M 744 488 A 8 8 0 0 1 736 496 L 108 496 M 108 496 A 8 8 0 0 1 100 488 L 100 487" stroke-miterlimit="10"/></g><g transform="translate(10,-110) scale(1,1)"><path fill="none" stroke="#000000" d="M 104.20951775601598 497.16267485762415 L 100 487 L 95.79048224398402 497.16267485762415" stroke-miterlimit="10"/></g><g transform="translate(10,-110) scale(1,1)"><g><path fill="none" stroke="none"/><text fill="#000000" stroke="none" font-family="Arial" font-size="13px" font-style="normal" font-weight="normal" text-decoration="none" x="735.5" y="363">[Not valid]</text></g></g><g transform="translate(10,-110) scale(1,1)"><path fill="none" stroke="#000000" d="M 770 288 L 770 328 M 770 328 A 8 8 0 0 0 778 336 L 832 336 M 832 336 A 8 8 0 0 1 840 344 L 840 360" stroke-miterlimit="10"/></g><g transform="translate(10,-110) scale(1,1)"><path fill="none" stroke="#000000" d="M 835.790482243984 349.83732514237585 L 840 360 L 844.209517756016 349.83732514237585" stroke-miterlimit="10"/></g><g transform="translate(10,-110) scale(1,1)"><path fill="#C0C0C0" stroke="none" d="M 79 627.5 C 79 620.59644 84.59644 615 91.5 615 C 98.40356 615 104 620.59644 104 627.5 C 104 634.40356 98.40356 640 91.5 640 C 84.59644 640 79 634.40356 79 627.5 Z" opacity="0.2"/></g><g transform="translate(10,-110) scale(1,1)"><path fill="none" stroke="#000000" d="M 72 620.5 C 72 613.59644 77.59644 608 84.5 608 C 91.40356 608 97 613.59644 97 620.5 C 97 627.40356 91.40356 633 84.5 633 C 77.59644 633 72 627.40356 72 620.5 Z" stroke-miterlimit="10"/></g><g transform="translate(10,-110) scale(1,1)"><path fill="#000000" stroke="none" d="M 77 620.5 C 77 616.357864 80.357864 613 84.5 613 C 88.642136 613 92 616.357864 92 620.5 C 92 624.642136 88.642136 628 84.5 628 C 80.357864 628 77 624.642136 77 620.5 Z"/></g><g transform="translate(10,-110) scale(1,1)"><path fill="none" stroke="#000000" d="M 87 569 L 85 607" stroke-miterlimit="10"/></g><g transform="translate(10,-110) scale(1,1)"><path fill="none" stroke="#000000" d="M 81.33043884787344 596.6301243522015 L 85 607 L 89.73783781597211 597.0726190347331" stroke-miterlimit="10"/></g></g></svg>