<svg version="1.1" xmlns="http://www.w3.org/2000/svg" xmlns:xlink="http://www.w3.org/1999/xlink" width="1133" height="660"><defs/><g><text fill="#eeeeee" stroke="none" font-family="Arial" font-size="24px" font-style="normal" font-weight="normal" text-decoration="none" x="0" y="0">UNREGISTERED</text><text fill="#eeeeee" stroke="none" font-family="Arial" font-size="24px" font-style="normal" font-weight="normal" text-decoration="none" x="0" y="30">UNREGISTERED</text><text fill="#eeeeee" stroke="none" font-family="Arial" font-size="24px" font-style="normal" font-weight="normal" text-decoration="none" x="0" y="60">UNREGISTERED</text><text fill="#eeeeee" stroke="none" font-family="Arial" font-size="24px" font-style="normal" font-weight="normal" text-decoration="none" x="0" y="90">UNREGISTERED</text><text fill="#eeeeee" stroke="none" font-family="Arial" font-size="24px" font-style="normal" font-weight="normal" text-decoration="none" x="0" y="120">UNREGISTERED</text><text fill="#eeeeee" stroke="none" font-family="Arial" font-size="24px" font-style="normal" font-weight="normal" text-decoration="none" x="0" y="150">UNREGISTERED</text><text fill="#eeeeee" stroke="none" font-family="Arial" font-size="24px" font-style="normal" font-weight="normal" text-decoration="none" x="0" y="180">UNREGISTERED</text><text fill="#eeeeee" stroke="none" font-family="Arial" font-size="24px" font-style="normal" font-weight="normal" text-decoration="none" x="0" y="210">UNREGISTERED</text><text fill="#eeeeee" stroke="none" font-family="Arial" font-size="24px" font-style="normal" font-weight="normal" text-decoration="none" x="0" y="240">UNREGISTERED</text><text fill="#eeeeee" stroke="none" font-family="Arial" font-size="24px" font-style="normal" font-weight="normal" text-decoration="none" x="0" y="270">UNREGISTERED</text><text fill="#eeeeee" stroke="none" font-family="Arial" font-size="24px" font-style="normal" font-weight="normal" text-decoration="none" x="0" y="300">UNREGISTERED</text><text fill="#eeeeee" stroke="none" font-family="Arial" font-size="24px" font-style="normal" font-weight="normal" text-decoration="none" x="0" y="330">UNREGISTERED</text><text fill="#eeeeee" stroke="none" font-family="Arial" font-size="24px" font-style="normal" font-weight="normal" text-decoration="none" x="0" y="360">UNREGISTERED</text><text fill="#eeeeee" stroke="none" font-family="Arial" font-size="24px" font-style="normal" font-weight="normal" text-decoration="none" x="0" y="390">UNREGISTERED</text><text fill="#eeeeee" stroke="none" font-family="Arial" font-size="24px" font-style="normal" font-weight="normal" text-decoration="none" x="0" y="420">UNREGISTERED</text><text fill="#eeeeee" stroke="none" font-family="Arial" font-size="24px" font-style="normal" font-weight="normal" text-decoration="none" x="0" y="450">UNREGISTERED</text><text fill="#eeeeee" stroke="none" font-family="Arial" font-size="24px" font-style="normal" font-weight="normal" text-decoration="none" x="0" y="480">UNREGISTERED</text><text fill="#eeeeee" stroke="none" font-family="Arial" font-size="24px" font-style="normal" font-weight="normal" text-decoration="none" x="0" y="510">UNREGISTERED</text><text fill="#eeeeee" stroke="none" font-family="Arial" font-size="24px" font-style="normal" font-weight="normal" text-decoration="none" x="0" y="540">UNREGISTERED</text><text fill="#eeeeee" stroke="none" font-family="Arial" font-size="24px" font-style="normal" font-weight="normal" text-decoration="none" x="0" y="570">UNREGISTERED</text><text fill="#eeeeee" stroke="none" font-family="Arial" font-size="24px" font-style="normal" font-weight="normal" text-decoration="none" x="0" y="600">UNREGISTERED</text><text fill="#eeeeee" stroke="none" font-family="Arial" font-size="24px" font-style="normal" font-weight="normal" text-decoration="none" x="0" y="630">UNREGISTERED</text><text fill="#eeeeee" stroke="none" font-family="Arial" font-size="24px" font-style="normal" font-weight="normal" text-decoration="none" x="200" y="0">UNREGISTERED</text><text fill="#eeeeee" stroke="none" font-family="Arial" font-size="24px" font-style="normal" font-weight="normal" text-decoration="none" x="200" y="30">UNREGISTERED</text><text fill="#eeeeee" stroke="none" font-family="Arial" font-size="24px" font-style="normal" font-weight="normal" text-decoration="none" x="200" y="60">UNREGISTERED</text><text fill="#eeeeee" stroke="none" font-family="Arial" font-size="24px" font-style="normal" font-weight="normal" text-decoration="none" x="200" y="90">UNREGISTERED</text><text fill="#eeeeee" stroke="none" font-family="Arial" font-size="24px" font-style="normal" font-weight="normal" text-decoration="none" x="200" y="120">UNREGISTERED</text><text fill="#eeeeee" stroke="none" font-family="Arial" font-size="24px" font-style="normal" font-weight="normal" text-decoration="none" x="200" y="150">UNREGISTERED</text><text fill="#eeeeee" stroke="none" font-family="Arial" font-size="24px" font-style="normal" font-weight="normal" text-decoration="none" x="200" y="180">UNREGISTERED</text><text fill="#eeeeee" stroke="none" font-family="Arial" font-size="24px" font-style="normal" font-weight="normal" text-decoration="none" x="200" y="210">UNREGISTERED</text><text fill="#eeeeee" stroke="none" font-family="Arial" font-size="24px" font-style="normal" font-weight="normal" text-decoration="none" x="200" y="240">UNREGISTERED</text><text fill="#eeeeee" stroke="none" font-family="Arial" font-size="24px" font-style="normal" font-weight="normal" text-decoration="none" x="200" y="270">UNREGISTERED</text><text fill="#eeeeee" stroke="none" font-family="Arial" font-size="24px" font-style="normal" font-weight="normal" text-decoration="none" x="200" y="300">UNREGISTERED</text><text fill="#eeeeee" stroke="none" font-family="Arial" font-size="24px" font-style="normal" font-weight="normal" text-decoration="none" x="200" y="330">UNREGISTERED</text><text fill="#eeeeee" stroke="none" font-family="Arial" font-size="24px" font-style="normal" font-weight="normal" text-decoration="none" x="200" y="360">UNREGISTERED</text><text fill="#eeeeee" stroke="none" font-family="Arial" font-size="24px" font-style="normal" font-weight="normal" text-decoration="none" x="200" y="390">UNREGISTERED</text><text fill="#eeeeee" stroke="none" font-family="Arial" font-size="24px" font-style="normal" font-weight="normal" text-decoration="none" x="200" y="420">UNREGISTERED</text><text fill="#eeeeee" stroke="none" font-family="Arial" font-size="24px" font-style="normal" font-weight="normal" text-decoration="none" x="200" y="450">UNREGISTERED</text><text fill="#eeeeee" stroke="none" font-family="Arial" font-size="24px" font-style="normal" font-weight="normal" text-decoration="none" x="200" y="480">UNREGISTERED</text><text fill="#eeeeee" stroke="none" font-family="Arial" font-size="24px" font-style="normal" font-weight="normal" text-decoration="none" x="200" y="510">UNREGISTERED</text><text fill="#eeeeee" stroke="none" font-family="Arial" font-size="24px" font-style="normal" font-weight="normal" text-decoration="none" x="200" y="540">UNREGISTERED</text><text fill="#eeeeee" stroke="none" font-family="Arial" font-size="24px" font-style="normal" font-weight="normal" text-decoration="none" x="200" y="570">UNREGISTERED</text><text fill="#eeeeee" stroke="none" font-family="Arial" font-size="24px" font-style="normal" font-weight="normal" text-decoration="none" x="200" y="600">UNREGISTERED</text><text fill="#eeeeee" stroke="none" font-family="Arial" font-size="24px" font-style="normal" font-weight="normal" text-decoration="none" x="200" y="630">UNREGISTERED</text><text fill="#eeeeee" stroke="none" font-family="Arial" font-size="24px" font-style="normal" font-weight="normal" text-decoration="none" x="400" y="0">UNREGISTERED</text><text fill="#eeeeee" stroke="none" font-family="Arial" font-size="24px" font-style="normal" font-weight="normal" text-decoration="none" x="400" y="30">UNREGISTERED</text><text fill="#eeeeee" stroke="none" font-family="Arial" font-size="24px" font-style="normal" font-weight="normal" text-decoration="none" x="400" y="60">UNREGISTERED</text><text fill="#eeeeee" stroke="none" font-family="Arial" font-size="24px" font-style="normal" font-weight="normal" text-decoration="none" x="400" y="90">UNREGISTERED</text><text fill="#eeeeee" stroke="none" font-family="Arial" font-size="24px" font-style="normal" font-weight="normal" text-decoration="none" x="400" y="120">UNREGISTERED</text><text fill="#eeeeee" stroke="none" font-family="Arial" font-size="24px" font-style="normal" font-weight="normal" text-decoration="none" x="400" y="150">UNREGISTERED</text><text fill="#eeeeee" stroke="none" font-family="Arial" font-size="24px" font-style="normal" font-weight="normal" text-decoration="none" x="400" y="180">UNREGISTERED</text><text fill="#eeeeee" stroke="none" font-family="Arial" font-size="24px" font-style="normal" font-weight="normal" text-decoration="none" x="400" y="210">UNREGISTERED</text><text fill="#eeeeee" stroke="none" font-family="Arial" font-size="24px" font-style="normal" font-weight="normal" text-decoration="none" x="400" y="240">UNREGISTERED</text><text fill="#eeeeee" stroke="none" font-family="Arial" font-size="24px" font-style="normal" font-weight="normal" text-decoration="none" x="400" y="270">UNREGISTERED</text><text fill="#eeeeee" stroke="none" font-family="Arial" font-size="24px" font-style="normal" font-weight="normal" text-decoration="none" x="400" y="300">UNREGISTERED</text><text fill="#eeeeee" stroke="none" font-family="Arial" font-size="24px" font-style="normal" font-weight="normal" text-decoration="none" x="400" y="330">UNREGISTERED</text><text fill="#eeeeee" stroke="none" font-family="Arial" font-size="24px" font-style="normal" font-weight="normal" text-decoration="none" x="400" y="360">UNREGISTERED</text><text fill="#eeeeee" stroke="none" font-family="Arial" font-size="24px" font-style="normal" font-weight="normal" text-decoration="none" x="400" y="390">UNREGISTERED</text><text fill="#eeeeee" stroke="none" font-family="Arial" font-size="24px" font-style="normal" font-weight="normal" text-decoration="none" x="400" y="420">UNREGISTERED</text><text fill="#eeeeee" stroke="none" font-family="Arial" font-size="24px" font-style="normal" font-weight="normal" text-decoration="none" x="400" y="450">UNREGISTERED</text><text fill="#eeeeee" stroke="none" font-family="Arial" font-size="24px" font-style="normal" font-weight="normal" text-decoration="none" x="400" y="480">UNREGISTERED</text><text fill="#eeeeee" stroke="none" font-family="Arial" font-size="24px" font-style="normal" font-weight="normal" text-decoration="none" x="400" y="510">UNREGISTERED</text><text fill="#eeeeee" stroke="none" font-family="Arial" font-size="24px" font-style="normal" font-weight="normal" text-decoration="none" x="400" y="540">UNREGISTERED</text><text fill="#eeeeee" stroke="none" font-family="Arial" font-size="24px" font-style="normal" font-weight="normal" text-decoration="none" x="400" y="570">UNREGISTERED</text><text fill="#eeeeee" stroke="none" font-family="Arial" font-size="24px" font-style="normal" font-weight="normal" text-decoration="none" x="400" y="600">UNREGISTERED</text><text fill="#eeeeee" stroke="none" font-family="Arial" font-size="24px" font-style="normal" font-weight="normal" text-decoration="none" x="400" y="630">UNREGISTERED</text><text fill="#eeeeee" stroke="none" font-family="Arial" font-size="24px" font-style="normal" font-weight="normal" text-decoration="none" x="600" y="0">UNREGISTERED</text><text fill="#eeeeee" stroke="none" font-family="Arial" font-size="24px" font-style="normal" font-weight="normal" text-decoration="none" x="600" y="30">UNREGISTERED</text><text fill="#eeeeee" stroke="none" font-family="Arial" font-size="24px" font-style="normal" font-weight="normal" text-decoration="none" x="600" y="60">UNREGISTERED</text><text fill="#eeeeee" stroke="none" font-family="Arial" font-size="24px" font-style="normal" font-weight="normal" text-decoration="none" x="600" y="90">UNREGISTERED</text><text fill="#eeeeee" stroke="none" font-family="Arial" font-size="24px" font-style="normal" font-weight="normal" text-decoration="none" x="600" y="120">UNREGISTERED</text><text fill="#eeeeee" stroke="none" font-family="Arial" font-size="24px" font-style="normal" font-weight="normal" text-decoration="none" x="600" y="150">UNREGISTERED</text><text fill="#eeeeee" stroke="none" font-family="Arial" font-size="24px" font-style="normal" font-weight="normal" text-decoration="none" x="600" y="180">UNREGISTERED</text><text fill="#eeeeee" stroke="none" font-family="Arial" font-size="24px" font-style="normal" font-weight="normal" text-decoration="none" x="600" y="210">UNREGISTERED</text><text fill="#eeeeee" stroke="none" font-family="Arial" font-size="24px" font-style="normal" font-weight="normal" text-decoration="none" x="600" y="240">UNREGISTERED</text><text fill="#eeeeee" stroke="none" font-family="Arial" font-size="24px" font-style="normal" font-weight="normal" text-decoration="none" x="600" y="270">UNREGISTERED</text><text fill="#eeeeee" stroke="none" font-family="Arial" font-size="24px" font-style="normal" font-weight="normal" text-decoration="none" x="600" y="300">UNREGISTERED</text><text fill="#eeeeee" stroke="none" font-family="Arial" font-size="24px" font-style="normal" font-weight="normal" text-decoration="none" x="600" y="330">UNREGISTERED</text><text fill="#eeeeee" stroke="none" font-family="Arial" font-size="24px" font-style="normal" font-weight="normal" text-decoration="none" x="600" y="360">UNREGISTERED</text><text fill="#eeeeee" stroke="none" font-family="Arial" font-size="24px" font-style="normal" font-weight="normal" text-decoration="none" x="600" y="390">UNREGISTERED</text><text fill="#eeeeee" stroke="none" font-family="Arial" font-size="24px" font-style="normal" font-weight="normal" text-decoration="none" x="600" y="420">UNREGISTERED</text><text fill="#eeeeee" stroke="none" font-family="Arial" font-size="24px" font-style="normal" font-weight="normal" text-decoration="none" x="600" y="450">UNREGISTERED</text><text fill="#eeeeee" stroke="none" font-family="Arial" font-size="24px" font-style="normal" font-weight="normal" text-decoration="none" x="600" y="480">UNREGISTERED</text><text fill="#eeeeee" stroke="none" font-family="Arial" font-size="24px" font-style="normal" font-weight="normal" text-decoration="none" x="600" y="510">UNREGISTERED</text><text fill="#eeeeee" stroke="none" font-family="Arial" font-size="24px" font-style="normal" font-weight="normal" text-decoration="none" x="600" y="540">UNREGISTERED</text><text fill="#eeeeee" stroke="none" font-family="Arial" font-size="24px" font-style="normal" font-weight="normal" text-decoration="none" x="600" y="570">UNREGISTERED</text><text fill="#eeeeee" stroke="none" font-family="Arial" font-size="24px" font-style="normal" font-weight="normal" text-decoration="none" x="600" y="600">UNREGISTERED</text><text fill="#eeeeee" stroke="none" font-family="Arial" font-size="24px" font-style="normal" font-weight="normal" text-decoration="none" x="600" y="630">UNREGISTERED</text><text fill="#eeeeee" stroke="none" font-family="Arial" font-size="24px" font-style="normal" font-weight="normal" text-decoration="none" x="800" y="0">UNREGISTERED</text><text fill="#eeeeee" stroke="none" font-family="Arial" font-size="24px" font-style="normal" font-weight="normal" text-decoration="none" x="800" y="30">UNREGISTERED</text><text fill="#eeeeee" stroke="none" font-family="Arial" font-size="24px" font-style="normal" font-weight="normal" text-decoration="none" x="800" y="60">UNREGISTERED</text><text fill="#eeeeee" stroke="none" font-family="Arial" font-size="24px" font-style="normal" font-weight="normal" text-decoration="none" x="800" y="90">UNREGISTERED</text><text fill="#eeeeee" stroke="none" font-family="Arial" font-size="24px" font-style="normal" font-weight="normal" text-decoration="none" x="800" y="120">UNREGISTERED</text><text fill="#eeeeee" stroke="none" font-family="Arial" font-size="24px" font-style="normal" font-weight="normal" text-decoration="none" x="800" y="150">UNREGISTERED</text><text fill="#eeeeee" stroke="none" font-family="Arial" font-size="24px" font-style="normal" font-weight="normal" text-decoration="none" x="800" y="180">UNREGISTERED</text><text fill="#eeeeee" stroke="none" font-family="Arial" font-size="24px" font-style="normal" font-weight="normal" text-decoration="none" x="800" y="210">UNREGISTERED</text><text fill="#eeeeee" stroke="none" font-family="Arial" font-size="24px" font-style="normal" font-weight="normal" text-decoration="none" x="800" y="240">UNREGISTERED</text><text fill="#eeeeee" stroke="none" font-family="Arial" font-size="24px" font-style="normal" font-weight="normal" text-decoration="none" x="800" y="270">UNREGISTERED</text><text fill="#eeeeee" stroke="none" font-family="Arial" font-size="24px" font-style="normal" font-weight="normal" text-decoration="none" x="800" y="300">UNREGISTERED</text><text fill="#eeeeee" stroke="none" font-family="Arial" font-size="24px" font-style="normal" font-weight="normal" text-decoration="none" x="800" y="330">UNREGISTERED</text><text fill="#eeeeee" stroke="none" font-family="Arial" font-size="24px" font-style="normal" font-weight="normal" text-decoration="none" x="800" y="360">UNREGISTERED</text><text fill="#eeeeee" stroke="none" font-family="Arial" font-size="24px" font-style="normal" font-weight="normal" text-decoration="none" x="800" y="390">UNREGISTERED</text><text fill="#eeeeee" stroke="none" font-family="Arial" font-size="24px" font-style="normal" font-weight="normal" text-decoration="none" x="800" y="420">UNREGISTERED</text><text fill="#eeeeee" stroke="none" font-family="Arial" font-size="24px" font-style="normal" font-weight="normal" text-decoration="none" x="800" y="450">UNREGISTERED</text><text fill="#eeeeee" stroke="none" font-family="Arial" font-size="24px" font-style="normal" font-weight="normal" text-decoration="none" x="800" y="480">UNREGISTERED</text><text fill="#eeeeee" stroke="none" font-family="Arial" font-size="24px" font-style="normal" font-weight="normal" text-decoration="none" x="800" y="510">UNREGISTERED</text><text fill="#eeeeee" stroke="none" font-family="Arial" font-size="24px" font-style="normal" font-weight="normal" text-decoration="none" x="800" y="540">UNREGISTERED</text><text fill="#eeeeee" stroke="none" font-family="Arial" font-size="24px" font-style="normal" font-weight="normal" text-decoration="none" x="800" y="570">UNREGISTERED</text><text fill="#eeeeee" stroke="none" font-family="Arial" font-size="24px" font-style="normal" font-weight="normal" text-decoration="none" x="800" y="600">UNREGISTERED</text><text fill="#eeeeee" stroke="none" font-family="Arial" font-size="24px" font-style="normal" font-weight="normal" text-decoration="none" x="800" y="630">UNREGISTERED</text><text fill="#eeeeee" stroke="none" font-family="Arial" font-size="24px" font-style="normal" font-weight="normal" text-decoration="none" x="1000" y="0">UNREGISTERED</text><text fill="#eeeeee" stroke="none" font-family="Arial" font-size="24px" font-style="normal" font-weight="normal" text-decoration="none" x="1000" y="30">UNREGISTERED</text><text fill="#eeeeee" stroke="none" font-family="Arial" font-size="24px" font-style="normal" font-weight="normal" text-decoration="none" x="1000" y="60">UNREGISTERED</text><text fill="#eeeeee" stroke="none" font-family="Arial" font-size="24px" font-style="normal" font-weight="normal" text-decoration="none" x="1000" y="90">UNREGISTERED</text><text fill="#eeeeee" stroke="none" font-family="Arial" font-size="24px" font-style="normal" font-weight="normal" text-decoration="none" x="1000" y="120">UNREGISTERED</text><text fill="#eeeeee" stroke="none" font-family="Arial" font-size="24px" font-style="normal" font-weight="normal" text-decoration="none" x="1000" y="150">UNREGISTERED</text><text fill="#eeeeee" stroke="none" font-family="Arial" font-size="24px" font-style="normal" font-weight="normal" text-decoration="none" x="1000" y="180">UNREGISTERED</text><text fill="#eeeeee" stroke="none" font-family="Arial" font-size="24px" font-style="normal" font-weight="normal" text-decoration="none" x="1000" y="210">UNREGISTERED</text><text fill="#eeeeee" stroke="none" font-family="Arial" font-size="24px" font-style="normal" font-weight="normal" text-decoration="none" x="1000" y="240">UNREGISTERED</text><text fill="#eeeeee" stroke="none" font-family="Arial" font-size="24px" font-style="normal" font-weight="normal" text-decoration="none" x="1000" y="270">UNREGISTERED</text><text fill="#eeeeee" stroke="none" font-family="Arial" font-size="24px" font-style="normal" font-weight="normal" text-decoration="none" x="1000" y="300">UNREGISTERED</text><text fill="#eeeeee" stroke="none" font-family="Arial" font-size="24px" font-style="normal" font-weight="normal" text-decoration="none" x="1000" y="330">UNREGISTERED</text><text fill="#eeeeee" stroke="none" font-family="Arial" font-size="24px" font-style="normal" font-weight="normal" text-decoration="none" x="1000" y="360">UNREGISTERED</text><text fill="#eeeeee" stroke="none" font-family="Arial" font-size="24px" font-style="normal" font-weight="normal" text-decoration="none" x="1000" y="390">UNREGISTERED</text><text fill="#eeeeee" stroke="none" font-family="Arial" font-size="24px" font-style="normal" font-weight="normal" text-decoration="none" x="1000" y="420">UNREGISTERED</text><text fill="#eeeeee" stroke="none" font-family="Arial" font-size="24px" font-style="normal" font-weight="normal" text-decoration="none" x="1000" y="450">UNREGISTERED</text><text fill="#eeeeee" stroke="none" font-family="Arial" font-size="24px" font-style="normal" font-weight="normal" text-decoration="none" x="1000" y="480">UNREGISTERED</text><text fill="#eeeeee" stroke="none" font-family="Arial" font-size="24px" font-style="normal" font-weight="normal" text-decoration="none" x="1000" y="510">UNREGISTERED</text><text fill="#eeeeee" stroke="none" font-family="Arial" font-size="24px" font-style="normal" font-weight="normal" text-decoration="none" x="1000" y="540">UNREGISTERED</text><text fill="#eeeeee" stroke="none" font-family="Arial" font-size="24px" font-style="normal" font-weight="normal" text-decoration="none" x="1000" y="570">UNREGISTERED</text><text fill="#eeeeee" stroke="none" font-family="Arial" font-size="24px" font-style="normal" font-weight="normal" text-decoration="none" x="1000" y="600">UNREGISTERED</text><text fill="#eeeeee" stroke="none" font-family="Arial" font-size="24px" font-style="normal" font-weight="normal" text-decoration="none" x="1000" y="630">UNREGISTERED</text><g transform="translate(-246,-70) scale(1,1)"><path fill="#C0C0C0" stroke="none" d="M 583 96.5 C 583 91.2532944 587.2532944 87 592.5 87 C 597.7467056 87 602 91.2532944 602 96.5 C 602 101.7467056 597.7467056 106 592.5 106 C 587.2532944 106 583 101.7467056 583 96.5 Z" opacity="0.2"/></g><g transform="translate(-246,-70) scale(1,1)"><path fill="#000000" stroke="none" d="M 576 89.5 C 576 84.2532944 580.2532944 80 585.5 80 C 590.7467056 80 595 84.2532944 595 89.5 C 595 94.7467056 590.7467056 99 585.5 99 C 580.2532944 99 576 94.7467056 576 89.5 Z"/></g><g transform="translate(-246,-70) scale(1,1)"><path fill="#C0C0C0" stroke="none" d="M 537 159 L 643.75537109375 159 Q 653.75537109375 159 653.75537109375 169 L 653.75537109375 189 Q 653.75537109375 199 643.75537109375 199 L 537 199 Q 527 199 527 189 L 527 169 Q 527 159 537 159 Z" opacity="0.2"/></g><g transform="translate(-246,-70) scale(1,1)"><path fill="#ffffff" stroke="none" d="M 530 152 L 636.75537109375 152 Q 646.75537109375 152 646.75537109375 162 L 646.75537109375 182 Q 646.75537109375 192 636.75537109375 192 L 530 192 Q 520 192 520 182 L 520 162 Q 520 152 530 152 Z"/></g><g transform="translate(-246,-70) scale(1,1)"><path fill="none" stroke="#000000" d="M 530 152 L 636.75537109375 152 Q 646.75537109375 152 646.75537109375 162 L 646.75537109375 182 Q 646.75537109375 192 636.75537109375 192 L 530 192 Q 520 192 520 182 L 520 162 Q 520 152 530 152 Z" stroke-miterlimit="10"/></g><g transform="translate(-246,-70) scale(1,1)"><g><path fill="none" stroke="none"/><text fill="#000000" stroke="none" font-family="Arial" font-size="13px" font-style="normal" font-weight="bold" text-decoration="none" x="524.5" y="170">Display Dashboard</text></g></g><g transform="translate(-246,-70) scale(1,1)"><path fill="#C0C0C0" stroke="none" d="M 521 247 L 646.525390625 247 Q 656.525390625 247 656.525390625 257 L 656.525390625 277 Q 656.525390625 287 646.525390625 287 L 521 287 Q 511 287 511 277 L 511 257 Q 511 247 521 247 Z" opacity="0.2"/></g><g transform="translate(-246,-70) scale(1,1)"><path fill="#ffffff" stroke="none" d="M 514 240 L 639.525390625 240 Q 649.525390625 240 649.525390625 250 L 649.525390625 270 Q 649.525390625 280 639.525390625 280 L 514 280 Q 504 280 504 270 L 504 250 Q 504 240 514 240 Z"/></g><g transform="translate(-246,-70) scale(1,1)"><path fill="none" stroke="#000000" d="M 514 240 L 639.525390625 240 Q 649.525390625 240 649.525390625 250 L 649.525390625 270 Q 649.525390625 280 639.525390625 280 L 514 280 Q 504 280 504 270 L 504 250 Q 504 240 514 240 Z" stroke-miterlimit="10"/></g><g transform="translate(-246,-70) scale(1,1)"><g><path fill="none" stroke="none"/><text fill="#000000" stroke="none" font-family="Arial" font-size="13px" font-style="normal" font-weight="bold" text-decoration="none" x="508.5" y="258">Display Reports Menu</text></g></g><g transform="translate(-246,-70) scale(1,1)"><path fill="none" stroke="#000000" d="M 585 100 L 584 151" stroke-miterlimit="10"/></g><g transform="translate(-246,-70) scale(1,1)"><path fill="none" stroke="#000000" d="M 579.9905210615756 140.7567544868664 L 584 151 L 588.407938617311 140.92180188992006" stroke-miterlimit="10"/></g><g transform="translate(-246,-70) scale(1,1)"><path fill="none" stroke="#000000" d="M 581 193 L 578 239" stroke-miterlimit="10"/></g><g transform="translate(-246,-70) scale(1,1)"><path fill="none" stroke="#000000" d="M 574.4607840884197 228.58491715197536 L 578 239 L 582.8619721372962 229.13282072038035" stroke-miterlimit="10"/></g><g transform="translate(-246,-70) scale(1,1)"><path fill="#C0C0C0" stroke="none" d="M 559 375.5 L 583.5 351 L 607 375.5 L 583.5 399 L 559 375.5" opacity="0.2"/></g><g transform="translate(-246,-70) scale(1,1)"><path fill="#ffffff" stroke="none" d="M 552 368 L 576 344 L 600 368 L 576 392 L 552 368"/></g><g transform="translate(-246,-70) scale(1,1)"><path fill="none" stroke="#000000" d="M 552 368 L 576 344 L 600 368 L 576 392 L 552 368 L 552 368" stroke-miterlimit="10"/></g><g transform="translate(-246,-70) scale(1,1)"><path fill="none" stroke="#000000" d="M 576 281 L 576 343" stroke-miterlimit="10"/></g><g transform="translate(-246,-70) scale(1,1)"><path fill="none" stroke="#000000" d="M 571.790482243984 332.83732514237585 L 576 343 L 580.209517756016 332.83732514237585" stroke-miterlimit="10"/></g><g transform="translate(-246,-70) scale(1,1)"><path fill="#C0C0C0" stroke="none" d="M 465 455 L 703.67236328125 455 Q 713.67236328125 455 713.67236328125 465 L 713.67236328125 485 Q 713.67236328125 495 703.67236328125 495 L 465 495 Q 455 495 455 485 L 455 465 Q 455 455 465 455 Z" opacity="0.2"/></g><g transform="translate(-246,-70) scale(1,1)"><path fill="#ffffff" stroke="none" d="M 458 448 L 696.67236328125 448 Q 706.67236328125 448 706.67236328125 458 L 706.67236328125 478 Q 706.67236328125 488 696.67236328125 488 L 458 488 Q 448 488 448 478 L 448 458 Q 448 448 458 448 Z"/></g><g transform="translate(-246,-70) scale(1,1)"><path fill="none" stroke="#000000" d="M 458 448 L 696.67236328125 448 Q 706.67236328125 448 706.67236328125 458 L 706.67236328125 478 Q 706.67236328125 488 696.67236328125 488 L 458 488 Q 448 488 448 478 L 448 458 Q 448 448 458 448 Z" stroke-miterlimit="10"/></g><g transform="translate(-246,-70) scale(1,1)"><g><path fill="none" stroke="none"/><text fill="#000000" stroke="none" font-family="Arial" font-size="13px" font-style="normal" font-weight="bold" text-decoration="none" x="452.5" y="466">Disply Total Number Of borrowed Books</text></g></g><g transform="translate(-246,-70) scale(1,1)"><path fill="none" stroke="#000000" d="M 576 393 L 577 447" stroke-miterlimit="10"/></g><g transform="translate(-246,-70) scale(1,1)"><path fill="none" stroke="#000000" d="M 572.603038433977 436.9170079347985 L 577 447 L 581.0206307240026 436.76112659609436" stroke-miterlimit="10"/></g><g transform="translate(-246,-70) scale(1,1)"><g><path fill="none" stroke="none"/><text fill="#000000" stroke="none" font-family="Arial" font-size="13px" font-style="normal" font-weight="normal" text-decoration="none" x="590.67138671875" y="424">[Click 1]</text></g></g><g transform="translate(-246,-70) scale(1,1)"><path fill="#C0C0C0" stroke="none" d="M 815 375.5 L 839.5 359 L 863 375.5 L 839.5 391 L 815 375.5" opacity="0.2"/></g><g transform="translate(-246,-70) scale(1,1)"><path fill="#ffffff" stroke="none" d="M 808 368 L 832 352 L 856 368 L 832 384 L 808 368"/></g><g transform="translate(-246,-70) scale(1,1)"><path fill="none" stroke="#000000" d="M 808 368 L 832 352 L 856 368 L 832 384 L 808 368 L 808 368" stroke-miterlimit="10"/></g><g transform="translate(-246,-70) scale(1,1)"><path fill="none" stroke="#000000" d="M 601 368 L 807 368" stroke-miterlimit="10"/></g><g transform="translate(-246,-70) scale(1,1)"><path fill="none" stroke="#000000" d="M 796.8373251423759 372.209517756016 L 807 368 L 796.8373251423758 363.790482243984" stroke-miterlimit="10"/></g><g transform="translate(-246,-70) scale(1,1)"><g><path fill="none" stroke="none"/><text fill="#000000" stroke="none" font-family="Arial" font-size="13px" font-style="normal" font-weight="normal" text-decoration="none" x="687.5" y="358">[Else]</text></g></g><g transform="translate(-246,-70) scale(1,1)"><path fill="#C0C0C0" stroke="none" d="M 321 351 L 419.80810546875 351 Q 429.80810546875 351 429.80810546875 361 L 429.80810546875 381 Q 429.80810546875 391 419.80810546875 391 L 321 391 Q 311 391 311 381 L 311 361 Q 311 351 321 351 Z" opacity="0.2"/></g><g transform="translate(-246,-70) scale(1,1)"><path fill="#ffffff" stroke="none" d="M 314 344 L 412.80810546875 344 Q 422.80810546875 344 422.80810546875 354 L 422.80810546875 374 Q 422.80810546875 384 412.80810546875 384 L 314 384 Q 304 384 304 374 L 304 354 Q 304 344 314 344 Z"/></g><g transform="translate(-246,-70) scale(1,1)"><path fill="none" stroke="#000000" d="M 314 344 L 412.80810546875 344 Q 422.80810546875 344 422.80810546875 354 L 422.80810546875 374 Q 422.80810546875 384 412.80810546875 384 L 314 384 Q 304 384 304 374 L 304 354 Q 304 344 314 344 Z" stroke-miterlimit="10"/></g><g transform="translate(-246,-70) scale(1,1)"><g><path fill="none" stroke="none"/><text fill="#000000" stroke="none" font-family="Arial" font-size="13px" font-style="normal" font-weight="bold" text-decoration="none" x="308.5" y="362">Display All Books</text></g></g><g transform="translate(-246,-70) scale(1,1)"><path fill="#C0C0C0" stroke="none" d="M 1055 372.5 L 1079.5 351 L 1103 372.5 L 1079.5 393 L 1055 372.5" opacity="0.2"/></g><g transform="translate(-246,-70) scale(1,1)"><path fill="#ffffff" stroke="none" d="M 1048 365 L 1072 344 L 1096 365 L 1072 386 L 1048 365"/></g><g transform="translate(-246,-70) scale(1,1)"><path fill="none" stroke="#000000" d="M 1048 365 L 1072 344 L 1096 365 L 1072 386 L 1048 365 L 1048 365" stroke-miterlimit="10"/></g><g transform="translate(-246,-70) scale(1,1)"><path fill="none" stroke="#000000" d="M 857 368 L 1047 365" stroke-miterlimit="10"/></g><g transform="translate(-246,-70) scale(1,1)"><path fill="none" stroke="#000000" d="M 1036.9050495071172 369.36943641059617 L 1047 365 L 1036.772133934844 360.951450166636" stroke-miterlimit="10"/></g><g transform="translate(-246,-70) scale(1,1)"><g><path fill="none" stroke="none"/><text fill="#000000" stroke="none" font-family="Arial" font-size="13px" font-style="normal" font-weight="normal" text-decoration="none" x="934.5" y="356">[Else]</text></g></g><g transform="translate(-246,-70) scale(1,1)"><path fill="#C0C0C0" stroke="none" d="M 761 455 L 945.79345703125 455 Q 955.79345703125 455 955.79345703125 465 L 955.79345703125 485 Q 955.79345703125 495 945.79345703125 495 L 761 495 Q 751 495 751 485 L 751 465 Q 751 455 761 455 Z" opacity="0.2"/></g><g transform="translate(-246,-70) scale(1,1)"><path fill="#ffffff" stroke="none" d="M 754 448 L 938.79345703125 448 Q 948.79345703125 448 948.79345703125 458 L 948.79345703125 478 Q 948.79345703125 488 938.79345703125 488 L 754 488 Q 744 488 744 478 L 744 458 Q 744 448 754 448 Z"/></g><g transform="translate(-246,-70) scale(1,1)"><path fill="none" stroke="#000000" d="M 754 448 L 938.79345703125 448 Q 948.79345703125 448 948.79345703125 458 L 948.79345703125 478 Q 948.79345703125 488 938.79345703125 488 L 754 488 Q 744 488 744 478 L 744 458 Q 744 448 754 448 Z" stroke-miterlimit="10"/></g><g transform="translate(-246,-70) scale(1,1)"><g><path fill="none" stroke="none"/><text fill="#000000" stroke="none" font-family="Arial" font-size="13px" font-style="normal" font-weight="bold" text-decoration="none" x="748.5" y="466">Display Books In each category</text></g></g><g transform="translate(-246,-70) scale(1,1)"><path fill="none" stroke="#000000" d="M 834 385 L 843 447" stroke-miterlimit="10"/></g><g transform="translate(-246,-70) scale(1,1)"><path fill="none" stroke="#000000" d="M 837.3742189176515 437.5474560454082 L 843 447 L 845.7059299769562 436.33801411744463" stroke-miterlimit="10"/></g><g transform="translate(-246,-70) scale(1,1)"><g><path fill="none" stroke="none"/><text fill="#000000" stroke="none" font-family="Arial" font-size="13px" font-style="normal" font-weight="normal" text-decoration="none" x="828.67138671875" y="418">[Click 3]</text></g></g><g transform="translate(-246,-70) scale(1,1)"><path fill="none" stroke="#000000" d="M 551 368 L 424 365" stroke-miterlimit="10"/></g><g transform="translate(-246,-70) scale(1,1)"><path fill="none" stroke="#000000" d="M 434.2592503475454 361.03165244637137 L 424 365 L 434.06043095591565 369.4483400253639" stroke-miterlimit="10"/></g><g transform="translate(-246,-70) scale(1,1)"><g><path fill="none" stroke="none"/><text fill="#000000" stroke="none" font-family="Arial" font-size="13px" font-style="normal" font-weight="normal" text-decoration="none" x="470.67138671875" y="363">[Click 2]</text></g></g><g transform="translate(-246,-70) scale(1,1)"><path fill="#C0C0C0" stroke="none" d="M 777 263 L 903.26806640625 263 Q 913.26806640625 263 913.26806640625 273 L 913.26806640625 293 Q 913.26806640625 303 903.26806640625 303 L 777 303 Q 767 303 767 293 L 767 273 Q 767 263 777 263 Z" opacity="0.2"/></g><g transform="translate(-246,-70) scale(1,1)"><path fill="#ffffff" stroke="none" d="M 770 256 L 896.26806640625 256 Q 906.26806640625 256 906.26806640625 266 L 906.26806640625 286 Q 906.26806640625 296 896.26806640625 296 L 770 296 Q 760 296 760 286 L 760 266 Q 760 256 770 256 Z"/></g><g transform="translate(-246,-70) scale(1,1)"><path fill="none" stroke="#000000" d="M 770 256 L 896.26806640625 256 Q 906.26806640625 256 906.26806640625 266 L 906.26806640625 286 Q 906.26806640625 296 896.26806640625 296 L 770 296 Q 760 296 760 286 L 760 266 Q 760 256 770 256 Z" stroke-miterlimit="10"/></g><g transform="translate(-246,-70) scale(1,1)"><g><path fill="none" stroke="none"/><text fill="#000000" stroke="none" font-family="Arial" font-size="13px" font-style="normal" font-weight="bold" text-decoration="none" x="764.5" y="274">Display Missed Books</text></g></g><g transform="translate(-246,-70) scale(1,1)"><path fill="none" stroke="#000000" d="M 832 351 L 833 297" stroke-miterlimit="10"/></g><g transform="translate(-246,-70) scale(1,1)"><path fill="none" stroke="#000000" d="M 837.0206307240026 307.23887340390564 L 833 297 L 828.603038433977 307.0829920652015" stroke-miterlimit="10"/></g><g transform="translate(-246,-70) scale(1,1)"><g><path fill="none" stroke="none"/><text fill="#000000" stroke="none" font-family="Arial" font-size="13px" font-style="normal" font-weight="normal" text-decoration="none" x="793.67138671875" y="328">[Click 4]</text></g></g><g transform="translate(-246,-70) scale(1,1)"><path fill="#C0C0C0" stroke="none" d="M 977 447 L 1179.814453125 447 Q 1189.814453125 447 1189.814453125 457 L 1189.814453125 477 Q 1189.814453125 487 1179.814453125 487 L 977 487 Q 967 487 967 477 L 967 457 Q 967 447 977 447 Z" opacity="0.2"/></g><g transform="translate(-246,-70) scale(1,1)"><path fill="#ffffff" stroke="none" d="M 970 440 L 1172.814453125 440 Q 1182.814453125 440 1182.814453125 450 L 1182.814453125 470 Q 1182.814453125 480 1172.814453125 480 L 970 480 Q 960 480 960 470 L 960 450 Q 960 440 970 440 Z"/></g><g transform="translate(-246,-70) scale(1,1)"><path fill="none" stroke="#000000" d="M 970 440 L 1172.814453125 440 Q 1182.814453125 440 1182.814453125 450 L 1182.814453125 470 Q 1182.814453125 480 1172.814453125 480 L 970 480 Q 960 480 960 470 L 960 450 Q 960 440 970 440 Z" stroke-miterlimit="10"/></g><g transform="translate(-246,-70) scale(1,1)"><g><path fill="none" stroke="none"/><text fill="#000000" stroke="none" font-family="Arial" font-size="13px" font-style="normal" font-weight="bold" text-decoration="none" x="964.5" y="458">Display Books For Specific Author</text></g></g><g transform="translate(-246,-70) scale(1,1)"><path fill="none" stroke="#000000" d="M 1072 387 L 1071 439" stroke-miterlimit="10"/></g><g transform="translate(-246,-70) scale(1,1)"><path fill="none" stroke="#000000" d="M 1066.9866603419619 428.7582665144411 L 1071 439 L 1075.4041395113402 428.92014111385225" stroke-miterlimit="10"/></g><g transform="translate(-246,-70) scale(1,1)"><g><path fill="none" stroke="none"/><text fill="#000000" stroke="none" font-family="Arial" font-size="13px" font-style="normal" font-weight="normal" text-decoration="none" x="1061.67138671875" y="417">[Click 5]</text></g></g><g transform="translate(-246,-70) scale(1,1)"><path fill="#C0C0C0" stroke="none" d="M 1193 359 L 1327.1962890625 359 Q 1337.1962890625 359 1337.1962890625 369 L 1337.1962890625 389 Q 1337.1962890625 399 1327.1962890625 399 L 1193 399 Q 1183 399 1183 389 L 1183 369 Q 1183 359 1193 359 Z" opacity="0.2"/></g><g transform="translate(-246,-70) scale(1,1)"><path fill="#ffffff" stroke="none" d="M 1186 352 L 1320.1962890625 352 Q 1330.1962890625 352 1330.1962890625 362 L 1330.1962890625 382 Q 1330.1962890625 392 1320.1962890625 392 L 1186 392 Q 1176 392 1176 382 L 1176 362 Q 1176 352 1186 352 Z"/></g><g transform="translate(-246,-70) scale(1,1)"><path fill="none" stroke="#000000" d="M 1186 352 L 1320.1962890625 352 Q 1330.1962890625 352 1330.1962890625 362 L 1330.1962890625 382 Q 1330.1962890625 392 1320.1962890625 392 L 1186 392 Q 1176 392 1176 382 L 1176 362 Q 1176 352 1186 352 Z" stroke-miterlimit="10"/></g><g transform="translate(-246,-70) scale(1,1)"><g><path fill="none" stroke="none"/><text fill="#000000" stroke="none" font-family="Arial" font-size="13px" font-style="normal" font-weight="bold" text-decoration="none" x="1180.5" y="370">Display Customers Info</text></g></g><g transform="translate(-246,-70) scale(1,1)"><path fill="none" stroke="#000000" d="M 1097 366 L 1175 369" stroke-miterlimit="10"/></g><g transform="translate(-246,-70) scale(1,1)"><path fill="none" stroke="#000000" d="M 1164.6830486744702 372.81582433383 L 1175 369 L 1165.0066184942784 364.4030090188142" stroke-miterlimit="10"/></g><g transform="translate(-246,-70) scale(1,1)"><g><path fill="none" stroke="none"/><text fill="#000000" stroke="none" font-family="Arial" font-size="13px" font-style="normal" font-weight="normal" text-decoration="none" x="1112.67138671875" y="357">[Click 6]</text></g></g><g transform="translate(-246,-70) scale(1,1)"><path fill="none" stroke="#000000" d="M 1013 480 L 1013 544 M 1013 544 A 8 8 0 0 1 1005 552 L 804 552 M 804 552 A 8 8 0 0 0 796 560 L 796 664" stroke-miterlimit="10"/></g><g transform="translate(-246,-70) scale(1,1)"><path fill="none" stroke="#000000" d="M 791.790482243984 653.8373251423759 L 796 664 L 800.209517756016 653.8373251423759" stroke-miterlimit="10"/></g><g transform="translate(-246,-70) scale(1,1)"><path fill="none" stroke="#000000" d="M 896 488 L 896 664 M 896 664 A 8 8 0 0 1 888 672 L 832 672" stroke-miterlimit="10"/></g><g transform="translate(-246,-70) scale(1,1)"><path fill="none" stroke="#000000" d="M 842.1626748576241 667.790482243984 L 832 672 L 842.1626748576241 676.209517756016" stroke-miterlimit="10"/></g><g transform="translate(-246,-70) scale(1,1)"><path fill="none" stroke="#000000" d="M 605 488 L 605 576 M 605 576 A 8 8 0 0 0 613 584 L 768 584 M 768 584 A 8 8 0 0 1 776 592 L 776 664" stroke-miterlimit="10"/></g><g transform="translate(-246,-70) scale(1,1)"><path fill="none" stroke="#000000" d="M 771.790482243984 653.8373251423759 L 776 664 L 780.209517756016 653.8373251423759" stroke-miterlimit="10"/></g><g transform="translate(-246,-70) scale(1,1)"><path fill="none" stroke="#000000" d="M 397 384 L 397 668 M 397 668 A 8 8 0 0 0 405 676 L 760 676" stroke-miterlimit="10"/></g><g transform="translate(-246,-70) scale(1,1)"><path fill="none" stroke="#000000" d="M 749.8373251423759 680.209517756016 L 760 676 L 749.8373251423758 671.790482243984" stroke-miterlimit="10"/></g><g transform="translate(-246,-70) scale(1,1)"><path fill="none" stroke="#000000" d="M 1206 392 L 1206 576 M 1206 576 A 8 8 0 0 1 1198 584 L 832 584 M 832 584 A 8 8 0 0 0 824 592 L 824 664" stroke-miterlimit="10"/></g><g transform="translate(-246,-70) scale(1,1)"><path fill="none" stroke="#000000" d="M 819.790482243984 653.8373251423759 L 824 664 L 828.209517756016 653.8373251423759" stroke-miterlimit="10"/></g><g transform="translate(-246,-70) scale(1,1)"><path fill="none" stroke="#000000" d="M 906 280 L 1360 280 M 1360 280 A 8 8 0 0 1 1368 288 L 1368 688 M 1368 688 A 8 8 0 0 1 1360 696 L 832 696" stroke-miterlimit="10"/></g><g transform="translate(-246,-70) scale(1,1)"><path fill="none" stroke="#000000" d="M 842.1626748576241 691.790482243984 L 832 696 L 842.1626748576241 700.209517756016" stroke-miterlimit="10"/></g><g transform="translate(-246,-70) scale(1,1)"><path fill="none" stroke="#000000" d="M 760 704 L 264 704 M 264 704 A 8 8 0 0 1 256 696 L 256 176 M 256 176 A 8 8 0 0 1 264 168 L 520 168" stroke-miterlimit="10"/></g><g transform="translate(-246,-70) scale(1,1)"><path fill="none" stroke="#000000" d="M 509.83732514237585 172.209517756016 L 520 168 L 509.83732514237585 163.790482243984" stroke-miterlimit="10"/></g><g transform="translate(-246,-70) scale(1,1)"><g><path fill="none" stroke="none"/><text fill="#000000" stroke="none" font-family="Arial" font-size="13px" font-style="normal" font-weight="normal" text-decoration="none" x="559.5" y="698">[Display Dashboard]</text></g></g><g transform="translate(-246,-70) scale(1,1)"><path fill="#C0C0C0" stroke="none" d="M 767 699.5 L 803.5 671 L 839 699.5 L 803.5 727 L 767 699.5" opacity="0.2"/></g><g transform="translate(-246,-70) scale(1,1)"><path fill="#ffffff" stroke="none" d="M 760 692 L 796 664 L 832 692 L 796 720 L 760 692"/></g><g transform="translate(-246,-70) scale(1,1)"><path fill="none" stroke="#000000" d="M 760 692 L 796 664 L 832 692 L 796 720 L 760 692 L 760 692" stroke-miterlimit="10"/></g></g></svg>